<svg width="177" height="37" viewBox="0 0 177 37" fill="none" xmlns="http://www.w3.org/2000/svg">
<path d="M0.84 28.6543V24.0143H4.52V5.29429H0.84V0.654295H12.36C16.12 0.654295 18.9733 1.6143 20.92 3.5343C22.8933 5.42763 23.88 8.2543 23.88 12.0143V17.2943C23.88 21.0543 22.8933 23.8943 20.92 25.8143C18.9733 27.7076 16.12 28.6543 12.36 28.6543H0.84ZM9.8 23.8543H12.44C14.5733 23.8543 16.1333 23.2943 17.12 22.1743C18.1067 21.0543 18.6 19.481 18.6 17.4543V11.8543C18.6 9.80096 18.1067 8.22763 17.12 7.13429C16.1333 6.0143 14.5733 5.4543 12.44 5.4543H9.8V23.8543ZM28.2806 28.6543V0.654295H33.5606V23.8543H46.3606V28.6543H28.2806ZM69.5456 29.2143C66.079 29.2143 63.3323 28.2543 61.3056 26.3343C59.279 24.3876 58.2656 21.6143 58.2656 18.0143V11.2943C58.2656 7.6943 59.279 4.9343 61.3056 3.0143C63.3323 1.06763 66.079 0.094295 69.5456 0.094295C72.9856 0.094295 75.639 1.04096 77.5056 2.9343C79.399 4.80096 80.3456 7.3743 80.3456 10.6543V10.8943H75.1456V10.4943C75.1456 8.84096 74.679 7.48096 73.7456 6.41429C72.839 5.34763 71.439 4.8143 69.5456 4.8143C67.679 4.8143 66.2123 5.38763 65.1456 6.5343C64.079 7.68096 63.5456 9.24096 63.5456 11.2143V18.0943C63.5456 20.041 64.079 21.601 65.1456 22.7743C66.2123 23.921 67.679 24.4943 69.5456 24.4943C71.439 24.4943 72.839 23.961 73.7456 22.8943C74.679 21.801 75.1456 20.441 75.1456 18.8143V18.0943H80.3456V18.6543C80.3456 21.9343 79.399 24.521 77.5056 26.4143C75.639 28.281 72.9856 29.2143 69.5456 29.2143ZM84.8078 28.6543V0.654295H89.8478V11.2543H90.5678C90.7811 10.8276 91.1145 10.401 91.5678 9.9743C92.0211 9.54763 92.6211 9.20096 93.3678 8.9343C94.1411 8.64096 95.1145 8.4943 96.2878 8.4943C97.8345 8.4943 99.1811 8.8543 100.328 9.5743C101.501 10.2676 102.408 11.241 103.048 12.4943C103.688 13.721 104.008 15.161 104.008 16.8143V28.6543H98.9678V17.2143C98.9678 15.721 98.5945 14.601 97.8478 13.8543C97.1278 13.1076 96.0878 12.7343 94.7278 12.7343C93.1811 12.7343 91.9811 13.2543 91.1278 14.2943C90.2745 15.3076 89.8478 16.7343 89.8478 18.5743V28.6543H84.8078ZM118.496 29.2143C116.523 29.2143 114.776 28.801 113.256 27.9743C111.763 27.121 110.59 25.9343 109.736 24.4143C108.91 22.8676 108.496 21.0543 108.496 18.9743V18.4943C108.496 16.4143 108.91 14.6143 109.736 13.0943C110.563 11.5476 111.723 10.361 113.216 9.5343C114.71 8.68096 116.443 8.25429 118.416 8.25429C120.363 8.25429 122.056 8.6943 123.496 9.5743C124.936 10.4276 126.056 11.6276 126.856 13.1743C127.656 14.6943 128.056 16.4676 128.056 18.4943V20.2143H113.616C113.67 21.5743 114.176 22.681 115.136 23.5343C116.096 24.3876 117.27 24.8143 118.656 24.8143C120.07 24.8143 121.11 24.5076 121.776 23.8943C122.443 23.281 122.95 22.601 123.296 21.8543L127.416 24.0143C127.043 24.7076 126.496 25.4676 125.776 26.2943C125.083 27.0943 124.15 27.7876 122.976 28.3743C121.803 28.9343 120.31 29.2143 118.496 29.2143ZM113.656 16.4543H122.936C122.83 15.3076 122.363 14.3876 121.536 13.6943C120.736 13.001 119.683 12.6543 118.376 12.6543C117.016 12.6543 115.936 13.001 115.136 13.6943C114.336 14.3876 113.843 15.3076 113.656 16.4543ZM138.702 29.2143C137.289 29.2143 136.022 28.9743 134.902 28.4943C133.782 27.9876 132.889 27.2676 132.222 26.3343C131.582 25.3743 131.262 24.2143 131.262 22.8543C131.262 21.4943 131.582 20.361 132.222 19.4543C132.889 18.521 133.796 17.8276 134.942 17.3743C136.116 16.8943 137.449 16.6543 138.942 16.6543H144.382V15.5343C144.382 14.601 144.089 13.841 143.502 13.2543C142.916 12.641 141.982 12.3343 140.702 12.3343C139.449 12.3343 138.516 12.6276 137.902 13.2143C137.289 13.7743 136.889 14.5076 136.702 15.4143L132.062 13.8543C132.382 12.841 132.889 11.921 133.582 11.0943C134.302 10.241 135.249 9.56096 136.422 9.0543C137.622 8.52096 139.076 8.25429 140.782 8.25429C143.396 8.25429 145.462 8.90763 146.982 10.2143C148.502 11.521 149.262 13.4143 149.262 15.8943V23.2943C149.262 24.0943 149.636 24.4943 150.382 24.4943H151.982V28.6543H148.622C147.636 28.6543 146.822 28.4143 146.182 27.9343C145.542 27.4543 145.222 26.8143 145.222 26.0143V25.9743H144.462C144.356 26.2943 144.116 26.721 143.742 27.2543C143.369 27.761 142.782 28.2143 141.982 28.6143C141.182 29.0143 140.089 29.2143 138.702 29.2143ZM139.582 25.1343C140.996 25.1343 142.142 24.7476 143.022 23.9743C143.929 23.1743 144.382 22.121 144.382 20.8143V20.4143H139.302C138.369 20.4143 137.636 20.6143 137.102 21.0143C136.569 21.4143 136.302 21.9743 136.302 22.6943C136.302 23.4143 136.582 24.001 137.142 24.4543C137.702 24.9076 138.516 25.1343 139.582 25.1343ZM155.667 36.6543V8.8143H160.627V11.2143H161.347C161.801 10.441 162.507 9.76096 163.467 9.1743C164.427 8.56096 165.801 8.25429 167.587 8.25429C169.187 8.25429 170.667 8.6543 172.027 9.4543C173.387 10.2276 174.481 11.3743 175.307 12.8943C176.134 14.4143 176.547 16.2543 176.547 18.4143V19.0543C176.547 21.2143 176.134 23.0543 175.307 24.5743C174.481 26.0943 173.387 27.2543 172.027 28.0543C170.667 28.8276 169.187 29.2143 167.587 29.2143C166.387 29.2143 165.374 29.0676 164.547 28.7743C163.747 28.5076 163.094 28.161 162.587 27.7343C162.107 27.281 161.721 26.8276 161.427 26.3743H160.707V36.6543H155.667ZM166.067 24.8143C167.641 24.8143 168.934 24.321 169.947 23.3343C170.987 22.321 171.507 20.8543 171.507 18.9343V18.5343C171.507 16.6143 170.987 15.161 169.947 14.1743C168.907 13.161 167.614 12.6543 166.067 12.6543C164.521 12.6543 163.227 13.161 162.187 14.1743C161.147 15.161 160.627 16.6143 160.627 18.5343V18.9343C160.627 20.8543 161.147 22.321 162.187 23.3343C163.227 24.321 164.521 24.8143 166.067 24.8143Z" fill="#002B59"/>
</svg>
