<svg width="55" height="22" viewBox="0 0 55 22" fill="none" xmlns="http://www.w3.org/2000/svg">
<path d="M0.584 17V0.199999H7.88C8.936 0.199999 9.856 0.383999 10.64 0.751999C11.424 1.12 12.032 1.64 12.464 2.312C12.896 2.984 13.112 3.776 13.112 4.688V4.976C13.112 5.984 12.872 6.8 12.392 7.424C11.912 8.048 11.32 8.504 10.616 8.792V9.224C11.256 9.256 11.752 9.48 12.104 9.896C12.456 10.296 12.632 10.832 12.632 11.504V17H9.464V11.96C9.464 11.576 9.36 11.264 9.152 11.024C8.96 10.784 8.632 10.664 8.168 10.664H3.752V17H0.584ZM3.752 7.784H7.544C8.296 7.784 8.88 7.584 9.296 7.184C9.728 6.768 9.944 6.224 9.944 5.552V5.312C9.944 4.64 9.736 4.104 9.32 3.704C8.904 3.288 8.312 3.08 7.544 3.08H3.752V7.784ZM19.5401 17.336C18.6921 17.336 17.9321 17.192 17.2601 16.904C16.5881 16.6 16.0521 16.168 15.6521 15.608C15.2681 15.032 15.0761 14.336 15.0761 13.52C15.0761 12.704 15.2681 12.024 15.6521 11.48C16.0521 10.92 16.5961 10.504 17.2841 10.232C17.9881 9.944 18.7881 9.8 19.6841 9.8H22.9481V9.128C22.9481 8.568 22.7721 8.112 22.4201 7.76C22.0681 7.392 21.5081 7.208 20.7401 7.208C19.9881 7.208 19.4281 7.384 19.0601 7.736C18.6921 8.072 18.4521 8.512 18.3401 9.056L15.5561 8.12C15.7481 7.512 16.0521 6.96 16.4681 6.464C16.9001 5.952 17.4681 5.544 18.1721 5.24C18.8921 4.92 19.7641 4.76 20.7881 4.76C22.3561 4.76 23.5961 5.152 24.5081 5.936C25.4201 6.72 25.8761 7.856 25.8761 9.344V13.784C25.8761 14.264 26.1001 14.504 26.5481 14.504H27.5081V17H25.4921C24.9001 17 24.4121 16.856 24.0281 16.568C23.6441 16.28 23.4521 15.896 23.4521 15.416V15.392H22.9961C22.9321 15.584 22.7881 15.84 22.5641 16.16C22.3401 16.464 21.9881 16.736 21.5081 16.976C21.0281 17.216 20.3721 17.336 19.5401 17.336ZM20.0681 14.888C20.9161 14.888 21.6041 14.656 22.1321 14.192C22.6761 13.712 22.9481 13.08 22.9481 12.296V12.056H19.9001C19.3401 12.056 18.9001 12.176 18.5801 12.416C18.2601 12.656 18.1001 12.992 18.1001 13.424C18.1001 13.856 18.2681 14.208 18.6041 14.48C18.9401 14.752 19.4281 14.888 20.0681 14.888ZM29.7191 21.8V5.096H32.6951V6.536H33.1271C33.3991 6.072 33.8231 5.664 34.3991 5.312C34.9751 4.944 35.7991 4.76 36.8711 4.76C37.8311 4.76 38.7191 5 39.5351 5.48C40.3511 5.944 41.0071 6.632 41.5031 7.544C41.9991 8.456 42.2471 9.56 42.2471 10.856V11.24C42.2471 12.536 41.9991 13.64 41.5031 14.552C41.0071 15.464 40.3511 16.16 39.5351 16.64C38.7191 17.104 37.8311 17.336 36.8711 17.336C36.1511 17.336 35.5431 17.248 35.0471 17.072C34.5671 16.912 34.1751 16.704 33.8711 16.448C33.5831 16.176 33.3511 15.904 33.1751 15.632H32.7431V21.8H29.7191ZM35.9591 14.696C36.9031 14.696 37.6791 14.4 38.2871 13.808C38.9111 13.2 39.2231 12.32 39.2231 11.168V10.928C39.2231 9.776 38.9111 8.904 38.2871 8.312C37.6631 7.704 36.8871 7.4 35.9591 7.4C35.0311 7.4 34.2551 7.704 33.6311 8.312C33.0071 8.904 32.6951 9.776 32.6951 10.928V11.168C32.6951 12.32 33.0071 13.2 33.6311 13.808C34.2551 14.4 35.0311 14.696 35.9591 14.696ZM49.9678 17.336C48.4158 17.336 47.1438 17 46.1518 16.328C45.1598 15.656 44.5598 14.696 44.3518 13.448L47.1358 12.728C47.2478 13.288 47.4318 13.728 47.6878 14.048C47.9598 14.368 48.2878 14.6 48.6718 14.744C49.0718 14.872 49.5038 14.936 49.9678 14.936C50.6718 14.936 51.1918 14.816 51.5278 14.576C51.8638 14.32 52.0318 14.008 52.0318 13.64C52.0318 13.272 51.8718 12.992 51.5518 12.8C51.2318 12.592 50.7198 12.424 50.0158 12.296L49.3438 12.176C48.5118 12.016 47.7518 11.8 47.0638 11.528C46.3758 11.24 45.8238 10.848 45.4078 10.352C44.9918 9.856 44.7838 9.216 44.7838 8.432C44.7838 7.248 45.2158 6.344 46.0798 5.72C46.9438 5.08 48.0798 4.76 49.4878 4.76C50.8158 4.76 51.9198 5.056 52.7998 5.648C53.6798 6.24 54.2558 7.016 54.5278 7.976L51.7198 8.84C51.5918 8.232 51.3278 7.8 50.9278 7.544C50.5438 7.288 50.0638 7.16 49.4878 7.16C48.9118 7.16 48.4718 7.264 48.1678 7.472C47.8638 7.664 47.7118 7.936 47.7118 8.288C47.7118 8.672 47.8718 8.96 48.1918 9.152C48.5118 9.328 48.9438 9.464 49.4878 9.56L50.1598 9.68C51.0558 9.84 51.8638 10.056 52.5838 10.328C53.3198 10.584 53.8958 10.96 54.3118 11.456C54.7438 11.936 54.9598 12.592 54.9598 13.424C54.9598 14.672 54.5038 15.64 53.5918 16.328C52.6958 17 51.4878 17.336 49.9678 17.336Z" fill="url(#paint0_linear_776_509)"/>
<defs>
<linearGradient id="paint0_linear_776_509" x1="-8.2766" y1="10.8" x2="75.4042" y2="11.4128" gradientUnits="userSpaceOnUse">
<stop offset="0.0729167" stop-color="#E6F2FF" stop-opacity="0.75"/>
<stop offset="0.333334" stop-color="#81FFFF" stop-opacity="0.5"/>
<stop offset="0.48797" stop-color="#61C3EF" stop-opacity="0.75"/>
<stop offset="0.854167" stop-color="#005CBF"/>
</linearGradient>
</defs>
</svg>
