<svg width="106" height="23" viewBox="0 0 106 23" fill="none" xmlns="http://www.w3.org/2000/svg">
<path d="M0.104 18V15.216H2.312V3.984H0.104V1.2H7.016C9.272 1.2 10.984 1.776 12.152 2.928C13.336 4.064 13.928 5.76 13.928 8.016V11.184C13.928 13.44 13.336 15.144 12.152 16.296C10.984 17.432 9.272 18 7.016 18H0.104ZM5.48 15.12H7.064C8.344 15.12 9.28 14.784 9.872 14.112C10.464 13.44 10.76 12.496 10.76 11.28V7.92C10.76 6.688 10.464 5.744 9.872 5.088C9.28 4.416 8.344 4.08 7.064 4.08H5.48V15.12ZM16.5684 18V1.2H19.7364V15.12H27.4164V18H16.5684ZM41.3274 18.336C39.2474 18.336 37.5994 17.76 36.3834 16.608C35.1674 15.44 34.5594 13.776 34.5594 11.616V7.584C34.5594 5.424 35.1674 3.768 36.3834 2.616C37.5994 1.448 39.2474 0.863999 41.3274 0.863999C43.3914 0.863999 44.9834 1.432 46.1034 2.568C47.2394 3.688 47.8074 5.232 47.8074 7.2V7.344H44.6874V7.104C44.6874 6.112 44.4074 5.296 43.8474 4.656C43.3034 4.016 42.4634 3.696 41.3274 3.696C40.2074 3.696 39.3274 4.04 38.6874 4.728C38.0474 5.416 37.7274 6.352 37.7274 7.536V11.664C37.7274 12.832 38.0474 13.768 38.6874 14.472C39.3274 15.16 40.2074 15.504 41.3274 15.504C42.4634 15.504 43.3034 15.184 43.8474 14.544C44.4074 13.888 44.6874 13.072 44.6874 12.096V11.664H47.8074V12C47.8074 13.968 47.2394 15.52 46.1034 16.656C44.9834 17.776 43.3914 18.336 41.3274 18.336ZM50.4847 18V1.2H53.5087V7.56H53.9407C54.0687 7.304 54.2687 7.048 54.5407 6.792C54.8127 6.536 55.1727 6.328 55.6207 6.168C56.0847 5.992 56.6687 5.904 57.3727 5.904C58.3007 5.904 59.1087 6.12 59.7967 6.552C60.5007 6.968 61.0447 7.552 61.4287 8.304C61.8127 9.04 62.0047 9.904 62.0047 10.896V18H58.9807V11.136C58.9807 10.24 58.7567 9.568 58.3087 9.12C57.8767 8.672 57.2527 8.448 56.4367 8.448C55.5087 8.448 54.7887 8.76 54.2767 9.384C53.7647 9.992 53.5087 10.848 53.5087 11.952V18H50.4847ZM70.6978 18.336C69.5138 18.336 68.4658 18.088 67.5538 17.592C66.6578 17.08 65.9538 16.368 65.4418 15.456C64.9458 14.528 64.6978 13.44 64.6978 12.192V11.904C64.6978 10.656 64.9458 9.576 65.4418 8.664C65.9378 7.736 66.6338 7.024 67.5298 6.528C68.4258 6.016 69.4658 5.76 70.6497 5.76C71.8178 5.76 72.8338 6.024 73.6978 6.552C74.5618 7.064 75.2338 7.784 75.7137 8.712C76.1938 9.624 76.4338 10.688 76.4338 11.904V12.936H67.7698C67.8018 13.752 68.1058 14.416 68.6818 14.928C69.2578 15.44 69.9618 15.696 70.7938 15.696C71.6418 15.696 72.2658 15.512 72.6658 15.144C73.0658 14.776 73.3698 14.368 73.5778 13.92L76.0498 15.216C75.8258 15.632 75.4978 16.088 75.0658 16.584C74.6498 17.064 74.0898 17.48 73.3858 17.832C72.6818 18.168 71.7858 18.336 70.6978 18.336ZM67.7938 10.68H73.3618C73.2978 9.992 73.0178 9.44 72.5218 9.024C72.0418 8.608 71.4098 8.4 70.6258 8.4C69.8098 8.4 69.1618 8.608 68.6818 9.024C68.2018 9.44 67.9058 9.992 67.7938 10.68ZM82.8213 18.336C81.9733 18.336 81.2133 18.192 80.5413 17.904C79.8693 17.6 79.3333 17.168 78.9333 16.608C78.5493 16.032 78.3573 15.336 78.3573 14.52C78.3573 13.704 78.5493 13.024 78.9333 12.48C79.3333 11.92 79.8773 11.504 80.5653 11.232C81.2693 10.944 82.0693 10.8 82.9653 10.8H86.2293V10.128C86.2293 9.568 86.0533 9.112 85.7013 8.76C85.3493 8.392 84.7893 8.208 84.0213 8.208C83.2693 8.208 82.7093 8.384 82.3413 8.736C81.9733 9.072 81.7333 9.512 81.6213 10.056L78.8373 9.12C79.0293 8.512 79.3333 7.96 79.7493 7.464C80.1813 6.952 80.7493 6.544 81.4533 6.24C82.1733 5.92 83.0453 5.76 84.0693 5.76C85.6373 5.76 86.8773 6.152 87.7893 6.936C88.7013 7.72 89.1573 8.856 89.1573 10.344V14.784C89.1573 15.264 89.3813 15.504 89.8293 15.504H90.7893V18H88.7733C88.1813 18 87.6933 17.856 87.3093 17.568C86.9253 17.28 86.7333 16.896 86.7333 16.416V16.392H86.2773C86.2133 16.584 86.0693 16.84 85.8453 17.16C85.6213 17.464 85.2693 17.736 84.7893 17.976C84.3093 18.216 83.6533 18.336 82.8213 18.336ZM83.3493 15.888C84.1973 15.888 84.8853 15.656 85.4133 15.192C85.9573 14.712 86.2293 14.08 86.2293 13.296V13.056H83.1813C82.6213 13.056 82.1813 13.176 81.8613 13.416C81.5413 13.656 81.3813 13.992 81.3813 14.424C81.3813 14.856 81.5493 15.208 81.8853 15.48C82.2213 15.752 82.7093 15.888 83.3493 15.888ZM93.0003 22.8V6.096H95.9763V7.536H96.4083C96.6803 7.072 97.1043 6.664 97.6803 6.312C98.2563 5.944 99.0803 5.76 100.152 5.76C101.112 5.76 102 6 102.816 6.48C103.632 6.944 104.288 7.632 104.784 8.544C105.28 9.456 105.528 10.56 105.528 11.856V12.24C105.528 13.536 105.28 14.64 104.784 15.552C104.288 16.464 103.632 17.16 102.816 17.64C102 18.104 101.112 18.336 100.152 18.336C99.4323 18.336 98.8243 18.248 98.3283 18.072C97.8483 17.912 97.4563 17.704 97.1523 17.448C96.8643 17.176 96.6323 16.904 96.4563 16.632H96.0243V22.8H93.0003ZM99.2403 15.696C100.184 15.696 100.96 15.4 101.568 14.808C102.192 14.2 102.504 13.32 102.504 12.168V11.928C102.504 10.776 102.192 9.904 101.568 9.312C100.944 8.704 100.168 8.4 99.2403 8.4C98.3123 8.4 97.5363 8.704 96.9123 9.312C96.2883 9.904 95.9763 10.776 95.9763 11.928V12.168C95.9763 13.32 96.2883 14.2 96.9123 14.808C97.5363 15.4 98.3123 15.696 99.2403 15.696Z" fill="url(#paint0_linear_997_1606)"/>
<defs>
<linearGradient id="paint0_linear_997_1606" x1="-14.7872" y1="11.8" x2="143.744" y2="13.9998" gradientUnits="userSpaceOnUse">
<stop offset="0.0729167" stop-color="#E6F2FF" stop-opacity="0.75"/>
<stop offset="0.333334" stop-color="#81FFFF" stop-opacity="0.5"/>
<stop offset="0.48797" stop-color="#61C3EF" stop-opacity="0.75"/>
<stop offset="0.854167" stop-color="#005CBF"/>
</linearGradient>
</defs>
</svg>
