<svg width="412" height="72" viewBox="0 0 412 72" fill="none" xmlns="http://www.w3.org/2000/svg">
<path d="M1.584 44V27.2H8.88C9.936 27.2 10.856 27.384 11.64 27.752C12.424 28.12 13.032 28.64 13.464 29.312C13.896 29.984 14.112 30.776 14.112 31.688V31.976C14.112 32.984 13.872 33.8 13.392 34.424C12.912 35.048 12.32 35.504 11.616 35.792V36.224C12.256 36.256 12.752 36.48 13.104 36.896C13.456 37.296 13.632 37.832 13.632 38.504V44H10.464V38.96C10.464 38.576 10.36 38.264 10.152 38.024C9.96 37.784 9.632 37.664 9.168 37.664H4.752V44H1.584ZM4.752 34.784H8.544C9.296 34.784 9.88 34.584 10.296 34.184C10.728 33.768 10.944 33.224 10.944 32.552V32.312C10.944 31.64 10.736 31.104 10.32 30.704C9.904 30.288 9.312 30.08 8.544 30.08H4.752V34.784ZM20.5401 44.336C19.6921 44.336 18.9321 44.192 18.2601 43.904C17.5881 43.6 17.0521 43.168 16.6521 42.608C16.2681 42.032 16.0761 41.336 16.0761 40.52C16.0761 39.704 16.2681 39.024 16.6521 38.48C17.0521 37.92 17.5961 37.504 18.2841 37.232C18.9881 36.944 19.7881 36.8 20.6841 36.8H23.9481V36.128C23.9481 35.568 23.7721 35.112 23.4201 34.76C23.0681 34.392 22.5081 34.208 21.7401 34.208C20.9881 34.208 20.4281 34.384 20.0601 34.736C19.6921 35.072 19.4521 35.512 19.3401 36.056L16.5561 35.12C16.7481 34.512 17.0521 33.96 17.4681 33.464C17.9001 32.952 18.4681 32.544 19.1721 32.24C19.8921 31.92 20.7641 31.76 21.7881 31.76C23.3561 31.76 24.5961 32.152 25.5081 32.936C26.4201 33.72 26.8761 34.856 26.8761 36.344V40.784C26.8761 41.264 27.1001 41.504 27.5481 41.504H28.5081V44H26.4921C25.9001 44 25.4121 43.856 25.0281 43.568C24.6441 43.28 24.4521 42.896 24.4521 42.416V42.392H23.9961C23.9321 42.584 23.7881 42.84 23.5641 43.16C23.3401 43.464 22.9881 43.736 22.5081 43.976C22.0281 44.216 21.3721 44.336 20.5401 44.336ZM21.0681 41.888C21.9161 41.888 22.6041 41.656 23.1321 41.192C23.6761 40.712 23.9481 40.08 23.9481 39.296V39.056H20.9001C20.3401 39.056 19.9001 39.176 19.5801 39.416C19.2601 39.656 19.1001 39.992 19.1001 40.424C19.1001 40.856 19.2681 41.208 19.6041 41.48C19.9401 41.752 20.4281 41.888 21.0681 41.888ZM30.7191 48.8V32.096H33.6951V33.536H34.1271C34.3991 33.072 34.8231 32.664 35.3991 32.312C35.9751 31.944 36.7991 31.76 37.8711 31.76C38.8311 31.76 39.7191 32 40.5351 32.48C41.3511 32.944 42.0071 33.632 42.5031 34.544C42.9991 35.456 43.2471 36.56 43.2471 37.856V38.24C43.2471 39.536 42.9991 40.64 42.5031 41.552C42.0071 42.464 41.3511 43.16 40.5351 43.64C39.7191 44.104 38.8311 44.336 37.8711 44.336C37.1511 44.336 36.5431 44.248 36.0471 44.072C35.5671 43.912 35.1751 43.704 34.8711 43.448C34.5831 43.176 34.3511 42.904 34.1751 42.632H33.7431V48.8H30.7191ZM36.9591 41.696C37.9031 41.696 38.6791 41.4 39.2871 40.808C39.9111 40.2 40.2231 39.32 40.2231 38.168V37.928C40.2231 36.776 39.9111 35.904 39.2871 35.312C38.6631 34.704 37.8871 34.4 36.9591 34.4C36.0311 34.4 35.2551 34.704 34.6311 35.312C34.0071 35.904 33.6951 36.776 33.6951 37.928V38.168C33.6951 39.32 34.0071 40.2 34.6311 40.808C35.2551 41.4 36.0311 41.696 36.9591 41.696ZM50.9678 44.336C49.4158 44.336 48.1438 44 47.1518 43.328C46.1598 42.656 45.5598 41.696 45.3518 40.448L48.1358 39.728C48.2478 40.288 48.4318 40.728 48.6878 41.048C48.9598 41.368 49.2878 41.6 49.6718 41.744C50.0718 41.872 50.5038 41.936 50.9678 41.936C51.6718 41.936 52.1918 41.816 52.5278 41.576C52.8638 41.32 53.0318 41.008 53.0318 40.64C53.0318 40.272 52.8718 39.992 52.5518 39.8C52.2318 39.592 51.7198 39.424 51.0158 39.296L50.3438 39.176C49.5118 39.016 48.7518 38.8 48.0638 38.528C47.3758 38.24 46.8238 37.848 46.4078 37.352C45.9918 36.856 45.7838 36.216 45.7838 35.432C45.7838 34.248 46.2158 33.344 47.0798 32.72C47.9438 32.08 49.0798 31.76 50.4878 31.76C51.8158 31.76 52.9198 32.056 53.7998 32.648C54.6798 33.24 55.2558 34.016 55.5278 34.976L52.7198 35.84C52.5918 35.232 52.3278 34.8 51.9278 34.544C51.5438 34.288 51.0638 34.16 50.4878 34.16C49.9118 34.16 49.4718 34.264 49.1678 34.472C48.8638 34.664 48.7118 34.936 48.7118 35.288C48.7118 35.672 48.8718 35.96 49.1918 36.152C49.5118 36.328 49.9438 36.464 50.4878 36.56L51.1598 36.68C52.0558 36.84 52.8638 37.056 53.5838 37.328C54.3198 37.584 54.8958 37.96 55.3118 38.456C55.7438 38.936 55.9598 39.592 55.9598 40.424C55.9598 41.672 55.5038 42.64 54.5918 43.328C53.6958 44 52.4878 44.336 50.9678 44.336ZM63.5537 44.336C62.0017 44.336 60.7297 44 59.7377 43.328C58.7457 42.656 58.1457 41.696 57.9377 40.448L60.7217 39.728C60.8337 40.288 61.0177 40.728 61.2737 41.048C61.5457 41.368 61.8737 41.6 62.2577 41.744C62.6577 41.872 63.0897 41.936 63.5537 41.936C64.2577 41.936 64.7777 41.816 65.1137 41.576C65.4497 41.32 65.6177 41.008 65.6177 40.64C65.6177 40.272 65.4577 39.992 65.1377 39.8C64.8177 39.592 64.3057 39.424 63.6017 39.296L62.9297 39.176C62.0977 39.016 61.3377 38.8 60.6497 38.528C59.9617 38.24 59.4097 37.848 58.9937 37.352C58.5777 36.856 58.3697 36.216 58.3697 35.432C58.3697 34.248 58.8017 33.344 59.6657 32.72C60.5297 32.08 61.6657 31.76 63.0737 31.76C64.4017 31.76 65.5057 32.056 66.3857 32.648C67.2657 33.24 67.8417 34.016 68.1137 34.976L65.3057 35.84C65.1777 35.232 64.9137 34.8 64.5137 34.544C64.1297 34.288 63.6497 34.16 63.0737 34.16C62.4977 34.16 62.0577 34.264 61.7537 34.472C61.4497 34.664 61.2977 34.936 61.2977 35.288C61.2977 35.672 61.4577 35.96 61.7777 36.152C62.0977 36.328 62.5297 36.464 63.0737 36.56L63.7457 36.68C64.6417 36.84 65.4497 37.056 66.1697 37.328C66.9057 37.584 67.4817 37.96 67.8977 38.456C68.3297 38.936 68.5457 39.592 68.5457 40.424C68.5457 41.672 68.0897 42.64 67.1777 43.328C66.2817 44 65.0737 44.336 63.5537 44.336ZM71.1956 44V27.2H74.2196V33.56H74.6516C74.7796 33.304 74.9796 33.048 75.2516 32.792C75.5236 32.536 75.8836 32.328 76.3316 32.168C76.7956 31.992 77.3796 31.904 78.0836 31.904C79.0116 31.904 79.8196 32.12 80.5076 32.552C81.2116 32.968 81.7556 33.552 82.1396 34.304C82.5236 35.04 82.7156 35.904 82.7156 36.896V44H79.6916V37.136C79.6916 36.24 79.4676 35.568 79.0196 35.12C78.5876 34.672 77.9636 34.448 77.1476 34.448C76.2196 34.448 75.4996 34.76 74.9876 35.384C74.4756 35.992 74.2196 36.848 74.2196 37.952V44H71.1956ZM91.6487 44.336C90.4647 44.336 89.4007 44.096 88.4567 43.616C87.5127 43.136 86.7687 42.44 86.2247 41.528C85.6807 40.616 85.4087 39.52 85.4087 38.24V37.856C85.4087 36.576 85.6807 35.48 86.2247 34.568C86.7687 33.656 87.5127 32.96 88.4567 32.48C89.4007 32 90.4647 31.76 91.6487 31.76C92.8327 31.76 93.8967 32 94.8407 32.48C95.7847 32.96 96.5287 33.656 97.0727 34.568C97.6167 35.48 97.8887 36.576 97.8887 37.856V38.24C97.8887 39.52 97.6167 40.616 97.0727 41.528C96.5287 42.44 95.7847 43.136 94.8407 43.616C93.8967 44.096 92.8327 44.336 91.6487 44.336ZM91.6487 41.648C92.5767 41.648 93.3447 41.352 93.9527 40.76C94.5607 40.152 94.8647 39.288 94.8647 38.168V37.928C94.8647 36.808 94.5607 35.952 93.9527 35.36C93.3607 34.752 92.5927 34.448 91.6487 34.448C90.7207 34.448 89.9527 34.752 89.3447 35.36C88.7367 35.952 88.4327 36.808 88.4327 37.928V38.168C88.4327 39.288 88.7367 40.152 89.3447 40.76C89.9527 41.352 90.7207 41.648 91.6487 41.648ZM100.68 48.8V32.096H103.656V33.536H104.088C104.36 33.072 104.784 32.664 105.36 32.312C105.936 31.944 106.76 31.76 107.832 31.76C108.792 31.76 109.68 32 110.496 32.48C111.312 32.944 111.968 33.632 112.464 34.544C112.96 35.456 113.208 36.56 113.208 37.856V38.24C113.208 39.536 112.96 40.64 112.464 41.552C111.968 42.464 111.312 43.16 110.496 43.64C109.68 44.104 108.792 44.336 107.832 44.336C107.112 44.336 106.504 44.248 106.008 44.072C105.528 43.912 105.136 43.704 104.832 43.448C104.544 43.176 104.312 42.904 104.136 42.632H103.704V48.8H100.68ZM106.92 41.696C107.864 41.696 108.64 41.4 109.248 40.808C109.872 40.2 110.184 39.32 110.184 38.168V37.928C110.184 36.776 109.872 35.904 109.248 35.312C108.624 34.704 107.848 34.4 106.92 34.4C105.992 34.4 105.216 34.704 104.592 35.312C103.968 35.904 103.656 36.776 103.656 37.928V38.168C103.656 39.32 103.968 40.2 104.592 40.808C105.216 41.4 105.992 41.696 106.92 41.696ZM115.865 47.888V45.152H127.625V47.888H115.865ZM130.868 44V32.096H133.892V44H130.868ZM132.38 30.704C131.836 30.704 131.372 30.528 130.988 30.176C130.62 29.824 130.436 29.36 130.436 28.784C130.436 28.208 130.62 27.744 130.988 27.392C131.372 27.04 131.836 26.864 132.38 26.864C132.94 26.864 133.404 27.04 133.772 27.392C134.14 27.744 134.324 28.208 134.324 28.784C134.324 29.36 134.14 29.824 133.772 30.176C133.404 30.528 132.94 30.704 132.38 30.704ZM142.043 44.336C141.099 44.336 140.211 44.104 139.379 43.64C138.563 43.16 137.907 42.464 137.411 41.552C136.915 40.64 136.667 39.536 136.667 38.24V37.856C136.667 36.56 136.915 35.456 137.411 34.544C137.907 33.632 138.563 32.944 139.379 32.48C140.195 32 141.083 31.76 142.043 31.76C142.763 31.76 143.363 31.848 143.843 32.024C144.339 32.184 144.739 32.392 145.043 32.648C145.347 32.904 145.579 33.176 145.739 33.464H146.171V27.2H149.195V44H146.219V42.56H145.787C145.515 43.008 145.091 43.416 144.515 43.784C143.955 44.152 143.131 44.336 142.043 44.336ZM142.955 41.696C143.883 41.696 144.659 41.4 145.283 40.808C145.907 40.2 146.219 39.32 146.219 38.168V37.928C146.219 36.776 145.907 35.904 145.283 35.312C144.675 34.704 143.899 34.4 142.955 34.4C142.027 34.4 141.251 34.704 140.627 35.312C140.003 35.904 139.691 36.776 139.691 37.928V38.168C139.691 39.32 140.003 40.2 140.627 40.808C141.251 41.4 142.027 41.696 142.955 41.696Z" fill="url(#paint0_linear_1506_403)"/>
<g clip-path="url(#clip0_1506_403)">
<path d="M174.456 43.4888V40.9807H176.451V30.8618H174.456V28.3537H180.704C182.743 28.3537 184.291 28.8726 185.346 29.9104C186.417 30.9338 186.952 32.4618 186.952 34.4942V37.3483C186.952 39.3807 186.417 40.9158 185.346 41.9537C184.291 42.9771 182.743 43.4888 180.704 43.4888H174.456ZM179.315 40.8942H180.747C181.904 40.8942 182.75 40.5915 183.285 39.9861C183.821 39.3807 184.088 38.5303 184.088 37.4348V34.4077C184.088 33.2978 183.821 32.4474 183.285 31.8564C182.75 31.251 181.904 30.9483 180.747 30.9483H179.315V40.8942ZM189.339 43.4888V28.3537H192.202V40.8942H199.145V43.4888H189.339ZM211.72 43.7915C209.839 43.7915 208.35 43.2726 207.25 42.2347C206.151 41.1825 205.602 39.6834 205.602 37.7375V34.105C205.602 32.1591 206.151 30.6672 207.25 29.6293C208.35 28.5771 209.839 28.051 211.72 28.051C213.585 28.051 215.025 28.5627 216.037 29.5861C217.064 30.5951 217.577 31.9861 217.577 33.7591V33.8888H214.757V33.6726C214.757 32.7789 214.504 32.0438 213.998 31.4672C213.506 30.8906 212.747 30.6023 211.72 30.6023C210.707 30.6023 209.912 30.9122 209.333 31.532C208.755 32.1519 208.465 32.9951 208.465 34.0618V37.7807C208.465 38.833 208.755 39.6762 209.333 40.3104C209.912 40.9303 210.707 41.2402 211.72 41.2402C212.747 41.2402 213.506 40.9519 213.998 40.3753C214.504 39.7843 214.757 39.0492 214.757 38.1699V37.7807H217.577V38.0834C217.577 39.8564 217.064 41.2546 216.037 42.278C215.025 43.287 213.585 43.7915 211.72 43.7915ZM219.997 43.4888V28.3537H222.731V34.0834H223.122C223.237 33.8528 223.418 33.6222 223.664 33.3915C223.91 33.1609 224.235 32.9735 224.64 32.8293C225.06 32.6708 225.588 32.5915 226.224 32.5915C227.063 32.5915 227.793 32.7861 228.415 33.1753C229.051 33.55 229.543 34.0762 229.89 34.7537C230.238 35.4168 230.411 36.1951 230.411 37.0888V43.4888H227.677V37.305C227.677 36.4978 227.475 35.8924 227.07 35.4888C226.679 35.0852 226.115 34.8834 225.378 34.8834C224.539 34.8834 223.888 35.1645 223.425 35.7266C222.962 36.2744 222.731 37.0456 222.731 38.0402V43.4888H219.997ZM238.269 43.7915C237.199 43.7915 236.251 43.5681 235.427 43.1212C234.617 42.66 233.981 42.0185 233.518 41.1969C233.07 40.3609 232.845 39.3807 232.845 38.2564V37.9969C232.845 36.8726 233.07 35.8996 233.518 35.078C233.966 34.2419 234.596 33.6005 235.405 33.1537C236.216 32.6924 237.156 32.4618 238.226 32.4618C239.282 32.4618 240.2 32.6996 240.981 33.1753C241.762 33.6365 242.369 34.2852 242.803 35.1212C243.237 35.9429 243.454 36.9014 243.454 37.9969V38.9266H235.622C235.652 39.6618 235.926 40.26 236.447 40.7212C236.967 41.1825 237.604 41.4131 238.356 41.4131C239.123 41.4131 239.687 41.2473 240.048 40.9158C240.41 40.5843 240.685 40.2167 240.872 39.8131L243.107 40.9807C242.905 41.3555 242.608 41.7663 242.217 42.2131C241.842 42.6456 241.336 43.0203 240.699 43.3375C240.063 43.6402 239.253 43.7915 238.269 43.7915ZM235.644 36.8942H240.677C240.62 36.2744 240.366 35.7771 239.918 35.4023C239.484 35.0276 238.913 34.8402 238.204 34.8402C237.466 34.8402 236.881 35.0276 236.447 35.4023C236.013 35.7771 235.745 36.2744 235.644 36.8942ZM249.228 43.7915C248.462 43.7915 247.775 43.6618 247.167 43.4023C246.56 43.1284 246.075 42.7392 245.714 42.2347C245.366 41.7158 245.193 41.0888 245.193 40.3537C245.193 39.6185 245.366 39.0059 245.714 38.5158C246.075 38.0113 246.567 37.6365 247.189 37.3915C247.826 37.132 248.549 37.0023 249.358 37.0023H252.309V36.3969C252.309 35.8924 252.15 35.4816 251.832 35.1645C251.514 34.833 251.007 34.6672 250.313 34.6672C249.633 34.6672 249.127 34.8257 248.794 35.1429C248.462 35.4456 248.245 35.8419 248.143 36.332L245.627 35.4888C245.8 34.9411 246.075 34.4438 246.451 33.9969C246.842 33.5357 247.355 33.1681 247.992 32.8942C248.642 32.6059 249.431 32.4618 250.356 32.4618C251.774 32.4618 252.895 32.8149 253.719 33.5212C254.543 34.2276 254.956 35.251 254.956 36.5915V40.5915C254.956 41.0239 255.158 41.2402 255.563 41.2402H256.431V43.4888H254.609C254.074 43.4888 253.632 43.3591 253.285 43.0996C252.938 42.8402 252.764 42.4942 252.764 42.0618V42.0402H252.352C252.295 42.2131 252.165 42.4438 251.962 42.732C251.759 43.0059 251.441 43.251 251.007 43.4672C250.573 43.6834 249.98 43.7915 249.228 43.7915ZM249.705 41.5861C250.472 41.5861 251.094 41.3771 251.571 40.9591C252.063 40.5266 252.309 39.9573 252.309 39.251V39.0348H249.554C249.048 39.0348 248.65 39.1429 248.36 39.3591C248.071 39.5753 247.926 39.878 247.926 40.2672C247.926 40.6564 248.078 40.9735 248.382 41.2185C248.686 41.4636 249.127 41.5861 249.705 41.5861ZM258.43 47.8131V32.7645H261.12V34.0618H261.51C261.756 33.6438 262.139 33.2762 262.66 32.9591C263.181 32.6275 263.926 32.4618 264.895 32.4618C265.762 32.4618 266.565 32.678 267.303 33.1104C268.04 33.5284 268.634 34.1483 269.082 34.9699C269.53 35.7915 269.754 36.7861 269.754 37.9537V38.2996C269.754 39.4672 269.53 40.4618 269.082 41.2834C268.634 42.105 268.04 42.732 267.303 43.1645C266.565 43.5825 265.762 43.7915 264.895 43.7915C264.244 43.7915 263.694 43.7122 263.246 43.5537C262.812 43.4095 262.458 43.2222 262.183 42.9915C261.922 42.7465 261.713 42.5014 261.554 42.2564H261.163V47.8131H258.43ZM264.07 41.4131C264.924 41.4131 265.625 41.1465 266.175 40.6131C266.739 40.0654 267.021 39.2726 267.021 38.2347V38.0185C267.021 36.9807 266.739 36.1951 266.175 35.6618C265.611 35.114 264.909 34.8402 264.07 34.8402C263.232 34.8402 262.53 35.114 261.966 35.6618C261.402 36.1951 261.12 36.9807 261.12 38.0185V38.2347C261.12 39.2726 261.402 40.0654 261.966 40.6131C262.53 41.1465 263.232 41.4131 264.07 41.4131Z" fill="#002B59"/>
</g>
<path d="M294.584 44V27.2H301.88C302.936 27.2 303.856 27.384 304.64 27.752C305.424 28.12 306.032 28.64 306.464 29.312C306.896 29.984 307.112 30.776 307.112 31.688V31.976C307.112 32.984 306.872 33.8 306.392 34.424C305.912 35.048 305.32 35.504 304.616 35.792V36.224C305.256 36.256 305.752 36.48 306.104 36.896C306.456 37.296 306.632 37.832 306.632 38.504V44H303.464V38.96C303.464 38.576 303.36 38.264 303.152 38.024C302.96 37.784 302.632 37.664 302.168 37.664H297.752V44H294.584ZM297.752 34.784H301.544C302.296 34.784 302.88 34.584 303.296 34.184C303.728 33.768 303.944 33.224 303.944 32.552V32.312C303.944 31.64 303.736 31.104 303.32 30.704C302.904 30.288 302.312 30.08 301.544 30.08H297.752V34.784ZM313.54 44.336C312.692 44.336 311.932 44.192 311.26 43.904C310.588 43.6 310.052 43.168 309.652 42.608C309.268 42.032 309.076 41.336 309.076 40.52C309.076 39.704 309.268 39.024 309.652 38.48C310.052 37.92 310.596 37.504 311.284 37.232C311.988 36.944 312.788 36.8 313.684 36.8H316.948V36.128C316.948 35.568 316.772 35.112 316.42 34.76C316.068 34.392 315.508 34.208 314.74 34.208C313.988 34.208 313.428 34.384 313.06 34.736C312.692 35.072 312.452 35.512 312.34 36.056L309.556 35.12C309.748 34.512 310.052 33.96 310.468 33.464C310.9 32.952 311.468 32.544 312.172 32.24C312.892 31.92 313.764 31.76 314.788 31.76C316.356 31.76 317.596 32.152 318.508 32.936C319.42 33.72 319.876 34.856 319.876 36.344V40.784C319.876 41.264 320.1 41.504 320.548 41.504H321.508V44H319.492C318.9 44 318.412 43.856 318.028 43.568C317.644 43.28 317.452 42.896 317.452 42.416V42.392H316.996C316.932 42.584 316.788 42.84 316.564 43.16C316.34 43.464 315.988 43.736 315.508 43.976C315.028 44.216 314.372 44.336 313.54 44.336ZM314.068 41.888C314.916 41.888 315.604 41.656 316.132 41.192C316.676 40.712 316.948 40.08 316.948 39.296V39.056H313.9C313.34 39.056 312.9 39.176 312.58 39.416C312.26 39.656 312.1 39.992 312.1 40.424C312.1 40.856 312.268 41.208 312.604 41.48C312.94 41.752 313.428 41.888 314.068 41.888ZM323.719 48.8V32.096H326.695V33.536H327.127C327.399 33.072 327.823 32.664 328.399 32.312C328.975 31.944 329.799 31.76 330.871 31.76C331.831 31.76 332.719 32 333.535 32.48C334.351 32.944 335.007 33.632 335.503 34.544C335.999 35.456 336.247 36.56 336.247 37.856V38.24C336.247 39.536 335.999 40.64 335.503 41.552C335.007 42.464 334.351 43.16 333.535 43.64C332.719 44.104 331.831 44.336 330.871 44.336C330.151 44.336 329.543 44.248 329.047 44.072C328.567 43.912 328.175 43.704 327.871 43.448C327.583 43.176 327.351 42.904 327.175 42.632H326.743V48.8H323.719ZM329.959 41.696C330.903 41.696 331.679 41.4 332.287 40.808C332.911 40.2 333.223 39.32 333.223 38.168V37.928C333.223 36.776 332.911 35.904 332.287 35.312C331.663 34.704 330.887 34.4 329.959 34.4C329.031 34.4 328.255 34.704 327.631 35.312C327.007 35.904 326.695 36.776 326.695 37.928V38.168C326.695 39.32 327.007 40.2 327.631 40.808C328.255 41.4 329.031 41.696 329.959 41.696ZM343.968 44.336C342.416 44.336 341.144 44 340.152 43.328C339.16 42.656 338.56 41.696 338.352 40.448L341.136 39.728C341.248 40.288 341.432 40.728 341.688 41.048C341.96 41.368 342.288 41.6 342.672 41.744C343.072 41.872 343.504 41.936 343.968 41.936C344.672 41.936 345.192 41.816 345.528 41.576C345.864 41.32 346.032 41.008 346.032 40.64C346.032 40.272 345.872 39.992 345.552 39.8C345.232 39.592 344.72 39.424 344.016 39.296L343.344 39.176C342.512 39.016 341.752 38.8 341.064 38.528C340.376 38.24 339.824 37.848 339.408 37.352C338.992 36.856 338.784 36.216 338.784 35.432C338.784 34.248 339.216 33.344 340.08 32.72C340.944 32.08 342.08 31.76 343.488 31.76C344.816 31.76 345.92 32.056 346.8 32.648C347.68 33.24 348.256 34.016 348.528 34.976L345.72 35.84C345.592 35.232 345.328 34.8 344.928 34.544C344.544 34.288 344.064 34.16 343.488 34.16C342.912 34.16 342.472 34.264 342.168 34.472C341.864 34.664 341.712 34.936 341.712 35.288C341.712 35.672 341.872 35.96 342.192 36.152C342.512 36.328 342.944 36.464 343.488 36.56L344.16 36.68C345.056 36.84 345.864 37.056 346.584 37.328C347.32 37.584 347.896 37.96 348.312 38.456C348.744 38.936 348.96 39.592 348.96 40.424C348.96 41.672 348.504 42.64 347.592 43.328C346.696 44 345.488 44.336 343.968 44.336ZM351.61 48.8V32.096H354.586V33.536H355.018C355.29 33.072 355.714 32.664 356.29 32.312C356.866 31.944 357.69 31.76 358.762 31.76C359.722 31.76 360.61 32 361.426 32.48C362.242 32.944 362.898 33.632 363.394 34.544C363.89 35.456 364.138 36.56 364.138 37.856V38.24C364.138 39.536 363.89 40.64 363.394 41.552C362.898 42.464 362.242 43.16 361.426 43.64C360.61 44.104 359.722 44.336 358.762 44.336C358.042 44.336 357.434 44.248 356.938 44.072C356.458 43.912 356.066 43.704 355.762 43.448C355.474 43.176 355.242 42.904 355.066 42.632H354.634V48.8H351.61ZM357.85 41.696C358.794 41.696 359.57 41.4 360.178 40.808C360.802 40.2 361.114 39.32 361.114 38.168V37.928C361.114 36.776 360.802 35.904 360.178 35.312C359.554 34.704 358.778 34.4 357.85 34.4C356.922 34.4 356.146 34.704 355.522 35.312C354.898 35.904 354.586 36.776 354.586 37.928V38.168C354.586 39.32 354.898 40.2 355.522 40.808C356.146 41.4 356.922 41.696 357.85 41.696ZM372.578 44.336C371.394 44.336 370.33 44.096 369.386 43.616C368.442 43.136 367.698 42.44 367.154 41.528C366.61 40.616 366.338 39.52 366.338 38.24V37.856C366.338 36.576 366.61 35.48 367.154 34.568C367.698 33.656 368.442 32.96 369.386 32.48C370.33 32 371.394 31.76 372.578 31.76C373.762 31.76 374.826 32 375.77 32.48C376.714 32.96 377.458 33.656 378.002 34.568C378.546 35.48 378.818 36.576 378.818 37.856V38.24C378.818 39.52 378.546 40.616 378.002 41.528C377.458 42.44 376.714 43.136 375.77 43.616C374.826 44.096 373.762 44.336 372.578 44.336ZM372.578 41.648C373.506 41.648 374.274 41.352 374.882 40.76C375.49 40.152 375.794 39.288 375.794 38.168V37.928C375.794 36.808 375.49 35.952 374.882 35.36C374.29 34.752 373.522 34.448 372.578 34.448C371.65 34.448 370.882 34.752 370.274 35.36C369.666 35.952 369.362 36.808 369.362 37.928V38.168C369.362 39.288 369.666 40.152 370.274 40.76C370.882 41.352 371.65 41.648 372.578 41.648ZM381.61 44V32.096H384.634V44H381.61ZM383.122 30.704C382.578 30.704 382.114 30.528 381.73 30.176C381.362 29.824 381.178 29.36 381.178 28.784C381.178 28.208 381.362 27.744 381.73 27.392C382.114 27.04 382.578 26.864 383.122 26.864C383.682 26.864 384.146 27.04 384.514 27.392C384.882 27.744 385.066 28.208 385.066 28.784C385.066 29.36 384.882 29.824 384.514 30.176C384.146 30.528 383.682 30.704 383.122 30.704ZM387.985 44V32.096H390.961V33.656H391.393C391.585 33.24 391.945 32.848 392.473 32.48C393.001 32.096 393.801 31.904 394.873 31.904C395.801 31.904 396.609 32.12 397.297 32.552C398.001 32.968 398.545 33.552 398.929 34.304C399.313 35.04 399.505 35.904 399.505 36.896V44H396.481V37.136C396.481 36.24 396.257 35.568 395.809 35.12C395.377 34.672 394.753 34.448 393.937 34.448C393.009 34.448 392.289 34.76 391.777 35.384C391.265 35.992 391.009 36.848 391.009 37.952V44H387.985ZM407.006 44C406.222 44 405.582 43.76 405.086 43.28C404.606 42.784 404.366 42.128 404.366 41.312V34.592H401.39V32.096H404.366V28.4H407.39V32.096H410.654V34.592H407.39V40.784C407.39 41.264 407.614 41.504 408.062 41.504H410.366V44H407.006Z" fill="url(#paint1_linear_1506_403)"/>
<defs>
<linearGradient id="paint0_linear_1506_403" x1="-19.2766" y1="41.4" x2="202.407" y2="42.8336" gradientUnits="userSpaceOnUse">
<stop offset="0.0729167" stop-color="white" stop-opacity="0.75"/>
<stop offset="0.333334" stop-color="#FFEDBF" stop-opacity="0.5"/>
<stop offset="0.48797" stop-color="#EFBF61" stop-opacity="0.75"/>
<stop offset="0.854167" stop-color="#BF6700"/>
</linearGradient>
<linearGradient id="paint1_linear_1506_403" x1="419.5" y1="36" x2="286.019" y2="34.4177" gradientUnits="userSpaceOnUse">
<stop offset="0.0729167" stop-color="#E6F2FF" stop-opacity="0.75"/>
<stop offset="0.333334" stop-color="#81FFFF" stop-opacity="0.5"/>
<stop offset="0.48797" stop-color="#61C3EF" stop-opacity="0.75"/>
<stop offset="0.854167" stop-color="#005CBF"/>
</linearGradient>
<clipPath id="clip0_1506_403">
<rect width="96" height="20" fill="white" transform="translate(174 28)"/>
</clipPath>
</defs>
</svg>
