<svg id="svg" version="1.1" xmlns="http://www.w3.org/2000/svg" xmlns:xlink="http://www.w3.org/1999/xlink" width="400" height="116.56772800863465" viewBox="0, 0, 400,116.56772800863465"><g id="svgg"><path id="path2" d="M137.083 28.833 L 136.250 28.917 136.149 30.250 C 136.013 32.043,135.970 85.661,136.103 86.941 L 136.209 87.950 138.858 88.059 C 140.315 88.119,145.274 88.111,149.878 88.042 L 158.250 87.917 153.333 87.815 C 150.629 87.759,145.698 87.703,142.375 87.690 L 136.333 87.667 136.333 58.417 L 136.333 29.167 147.292 29.162 C 155.033 29.158,158.162 29.105,157.949 28.981 C 157.639 28.801,138.748 28.667,137.083 28.833 M76.121 35.287 C 76.417 35.324,76.942 35.324,77.288 35.288 C 77.634 35.252,77.392 35.222,76.750 35.221 C 76.108 35.221,75.825 35.250,76.121 35.287 M23.740 54.250 C 23.740 56.908,23.763 57.972,23.791 56.615 C 23.819 55.257,23.819 53.082,23.791 51.781 C 23.763 50.481,23.740 51.592,23.740 54.250 M278.757 52.625 C 278.603 53.232,278.453 83.718,278.592 86.125 L 278.700 88.000 285.012 88.000 L 291.323 88.000 291.371 83.125 C 291.484 71.609,291.455 53.132,291.326 53.750 C 291.249 54.117,291.182 61.898,291.176 71.042 L 291.167 87.667 284.976 87.667 L 278.786 87.667 278.868 69.917 C 278.913 60.154,278.932 52.167,278.911 52.167 C 278.890 52.167,278.820 52.373,278.757 52.625 M328.391 69.875 L 328.474 87.667 322.320 87.667 L 316.167 87.667 316.154 71.042 C 316.148 61.898,316.082 54.079,316.009 53.667 C 315.852 52.786,315.783 86.087,315.939 87.227 L 316.045 88.000 322.332 88.000 L 328.620 88.000 328.734 85.875 C 328.822 84.231,328.879 68.385,328.843 55.333 C 328.839 53.793,328.699 52.645,328.476 52.325 C 328.362 52.162,328.335 57.858,328.391 69.875 " stroke="none" fill="#77bae5" fill-rule="evenodd"></path><path id="path3" d="M153.042 28.782 C 153.202 28.823,153.465 28.823,153.625 28.782 C 153.785 28.740,153.654 28.705,153.333 28.705 C 153.012 28.705,152.881 28.740,153.042 28.782 M90.705 42.167 C 90.705 42.487,90.740 42.619,90.782 42.458 C 90.823 42.298,90.823 42.035,90.782 41.875 C 90.740 41.715,90.705 41.846,90.705 42.167 M90.747 59.167 C 90.747 68.013,90.767 71.631,90.792 67.208 C 90.816 62.785,90.816 55.548,90.792 51.125 C 90.767 46.702,90.747 50.321,90.747 59.167 M23.899 70.417 C 23.899 71.700,23.926 72.203,23.957 71.534 C 23.989 70.866,23.989 69.816,23.957 69.201 C 23.925 68.586,23.899 69.133,23.899 70.417 " stroke="none" fill="#a6d4f6" fill-rule="evenodd"></path><path id="path4" d="M141.042 28.782 C 141.202 28.823,141.465 28.823,141.625 28.782 C 141.785 28.740,141.654 28.705,141.333 28.705 C 141.012 28.705,140.881 28.740,141.042 28.782 M136.375 58.458 L 136.416 87.750 136.458 58.546 L 136.501 29.342 139.209 29.291 L 141.917 29.241 139.125 29.204 L 136.333 29.167 136.375 58.458 M74.875 35.282 C 75.035 35.323,75.298 35.323,75.458 35.282 C 75.619 35.240,75.487 35.205,75.167 35.205 C 74.846 35.205,74.715 35.240,74.875 35.282 M78.127 35.285 C 78.334 35.324,78.634 35.323,78.794 35.281 C 78.953 35.239,78.783 35.207,78.417 35.209 C 78.050 35.211,77.920 35.245,78.127 35.285 M36.708 45.448 C 36.869 45.490,37.131 45.490,37.292 45.448 C 37.452 45.406,37.321 45.372,37.000 45.372 C 36.679 45.372,36.548 45.406,36.708 45.448 M38.875 45.448 C 39.035 45.490,39.298 45.490,39.458 45.448 C 39.619 45.406,39.487 45.372,39.167 45.372 C 38.846 45.372,38.715 45.406,38.875 45.448 M23.727 48.000 C 23.727 48.871,23.755 49.227,23.789 48.792 C 23.824 48.356,23.824 47.644,23.789 47.208 C 23.755 46.773,23.727 47.129,23.727 48.000 M278.963 53.041 C 279.043 54.813,279.116 54.983,279.142 53.458 C 279.155 52.656,279.110 52.000,279.042 52.000 C 278.973 52.000,278.938 52.468,278.963 53.041 M291.078 65.750 C 291.078 70.792,291.099 72.878,291.125 70.387 C 291.151 67.895,291.151 63.770,291.125 61.220 C 291.099 58.670,291.078 60.708,291.078 65.750 M316.246 69.333 C 316.246 75.796,316.266 78.440,316.292 75.208 C 316.317 71.977,316.317 66.690,316.292 63.458 C 316.266 60.227,316.246 62.871,316.246 69.333 M23.734 61.500 C 23.734 62.921,23.759 63.502,23.791 62.792 C 23.822 62.081,23.822 60.919,23.791 60.208 C 23.759 59.498,23.734 60.079,23.734 61.500 M278.906 63.667 C 278.906 66.004,278.929 66.960,278.958 65.792 C 278.987 64.623,278.987 62.710,278.958 61.542 C 278.929 60.373,278.906 61.329,278.906 63.667 M74.460 72.118 C 74.668 72.158,74.968 72.156,75.127 72.115 C 75.286 72.073,75.117 72.040,74.750 72.042 C 74.383 72.044,74.253 72.078,74.460 72.118 M78.127 72.118 C 78.334 72.158,78.634 72.156,78.794 72.115 C 78.953 72.073,78.783 72.040,78.417 72.042 C 78.050 72.044,77.920 72.078,78.127 72.118 M328.407 83.000 C 328.407 85.612,328.430 86.681,328.458 85.375 C 328.486 84.069,328.486 81.931,328.458 80.625 C 328.430 79.319,328.407 80.387,328.407 83.000 M316.228 86.083 C 316.228 87.000,316.256 87.354,316.290 86.869 C 316.324 86.385,316.323 85.635,316.289 85.203 C 316.255 84.770,316.227 85.167,316.228 86.083 M278.883 86.833 C 278.883 87.337,278.915 87.544,278.953 87.292 C 278.991 87.040,278.991 86.627,278.953 86.375 C 278.915 86.123,278.883 86.329,278.883 86.833 M151.625 87.791 C 152.840 87.820,154.827 87.820,156.042 87.791 C 157.256 87.763,156.262 87.739,153.833 87.739 C 151.404 87.739,150.410 87.763,151.625 87.791 " stroke="none" fill="#3ea1ea" fill-rule="evenodd"></path><path id="path0" d="M73.333 35.515 C 68.600 36.251,65.723 37.169,54.667 41.466 C 45.138 45.169,39.294 46.220,34.058 45.170 C 31.330 44.623,30.186 44.176,26.456 42.197 C 24.286 41.045,24.228 41.052,24.055 42.458 C 23.743 44.997,23.889 75.011,24.217 75.862 C 24.801 77.376,26.860 78.699,30.360 79.811 C 37.251 82.000,43.224 81.428,54.500 77.499 C 63.978 74.195,65.539 73.694,68.750 72.923 C 76.414 71.082,84.140 72.034,89.164 75.440 C 89.830 75.892,90.420 75.949,90.563 75.577 C 90.755 75.075,90.690 41.416,90.495 40.901 C 89.205 37.486,79.745 34.517,73.333 35.515 " stroke="none" fill="#fbfbfc" fill-rule="evenodd"></path><path id="path1" d="M52.832 0.053 C 52.787 0.096,52.000 0.218,51.083 0.325 C 50.167 0.432,49.042 0.583,48.583 0.661 C 48.125 0.739,47.225 0.892,46.583 1.002 C 45.591 1.172,43.795 1.605,41.750 2.165 C 39.936 2.663,37.196 3.582,36.167 4.039 C 34.584 4.742,34.363 4.833,34.249 4.833 C 33.831 4.833,26.371 8.907,26.000 9.338 C 25.954 9.391,25.296 9.859,24.538 10.377 C 16.105 16.144,8.287 26.006,4.424 35.750 C 3.987 36.850,3.571 37.900,3.499 38.083 C 2.670 40.180,1.591 44.143,1.071 47.000 C -1.364 60.386,0.441 73.368,6.355 85.000 C 7.471 87.195,7.998 88.165,8.167 88.333 C 8.212 88.379,8.393 88.679,8.568 89.000 C 8.922 89.648,11.654 93.702,11.825 93.833 C 11.885 93.879,12.155 94.217,12.425 94.583 C 12.694 94.950,12.953 95.287,12.999 95.333 C 13.045 95.379,13.453 95.867,13.904 96.417 C 16.233 99.253,22.026 104.553,24.667 106.264 C 25.079 106.531,25.543 106.862,25.697 107.000 C 27.346 108.469,35.285 112.400,39.083 113.628 C 42.048 114.587,44.409 115.218,46.083 115.500 C 46.725 115.607,47.663 115.765,48.167 115.850 C 50.814 116.295,51.982 116.381,56.417 116.456 C 61.281 116.539,63.187 116.430,66.333 115.890 C 67.112 115.757,68.198 115.572,68.745 115.481 C 74.584 114.504,84.368 110.368,89.250 106.814 C 89.617 106.547,90.404 105.975,91.000 105.544 C 91.596 105.113,92.121 104.720,92.167 104.672 C 92.212 104.623,92.625 104.284,93.083 103.918 C 96.419 101.257,100.948 96.574,102.837 93.833 C 103.058 93.513,103.319 93.167,103.417 93.065 C 103.666 92.808,105.985 89.295,106.707 88.083 C 110.349 81.967,113.184 73.822,114.103 66.833 C 115.107 59.198,114.596 49.622,112.852 43.417 C 112.775 43.142,112.619 42.579,112.506 42.167 C 111.338 37.898,108.814 31.967,106.726 28.583 C 104.925 25.665,104.245 24.643,102.959 22.917 C 100.830 20.060,96.815 15.722,94.163 13.412 C 90.660 10.363,84.612 6.668,79.500 4.454 C 79.179 4.315,78.564 4.044,78.133 3.850 C 76.121 2.948,70.909 1.425,68.333 0.987 C 66.184 0.621,65.396 0.493,64.167 0.310 C 62.934 0.127,52.991 -0.099,52.832 0.053 M372.833 29.007 C 363.169 29.731,354.583 36.483,351.440 45.833 C 349.883 50.464,349.875 50.621,349.958 75.542 L 350.000 88.000 356.333 88.000 L 362.667 88.000 362.667 81.667 L 362.667 75.333 374.917 75.333 L 387.167 75.333 387.167 81.667 L 387.167 88.000 393.583 88.000 L 400.000 88.000 399.998 71.458 C 399.996 53.261,399.931 51.701,399.006 47.583 C 398.609 45.812,396.589 41.122,395.939 40.459 C 395.826 40.344,395.439 39.800,395.079 39.250 C 394.239 37.969,390.718 34.445,389.417 33.583 C 388.867 33.219,388.379 32.873,388.333 32.813 C 388.287 32.754,387.455 32.289,386.484 31.780 C 382.256 29.566,377.707 28.641,372.833 29.007 M149.083 29.175 C 143.950 29.236,139.019 29.296,138.125 29.309 L 136.500 29.333 136.500 58.495 L 136.500 87.658 147.625 87.731 C 153.744 87.771,159.275 87.807,159.917 87.811 C 163.664 87.836,168.617 85.995,173.357 82.815 C 175.550 81.344,176.795 80.282,178.333 78.568 C 185.428 70.668,187.832 59.988,184.784 49.917 C 184.507 49.000,184.217 48.179,184.140 48.092 C 184.063 48.005,184.000 47.830,184.000 47.703 C 184.000 47.452,182.630 44.601,181.839 43.208 C 180.701 41.203,178.990 38.978,177.255 37.247 C 172.780 32.783,164.446 28.901,159.617 29.033 C 158.957 29.051,154.217 29.115,149.083 29.175 M228.667 29.185 C 228.254 29.267,227.504 29.415,227.000 29.514 C 224.707 29.962,221.195 31.362,219.188 32.629 C 213.203 36.404,208.944 42.902,207.856 49.917 C 207.375 53.016,207.333 54.705,207.333 71.053 L 207.333 88.000 213.672 88.000 L 220.011 88.000 219.964 82.458 C 219.938 79.410,219.978 76.560,220.052 76.125 L 220.187 75.333 232.427 75.333 L 244.667 75.333 244.667 81.667 L 244.667 88.000 251.000 88.000 L 257.333 88.000 257.351 73.375 C 257.376 52.146,257.389 52.771,256.816 49.333 C 256.307 46.281,253.867 40.586,252.421 39.071 C 252.327 38.973,252.064 38.621,251.836 38.288 C 251.324 37.541,248.487 34.727,247.583 34.070 C 247.217 33.803,246.879 33.539,246.833 33.481 C 246.133 32.609,241.538 30.487,238.750 29.748 C 236.095 29.045,230.844 28.751,228.667 29.185 M300.083 29.183 C 296.073 29.882,292.653 31.208,289.667 33.222 C 289.254 33.500,288.879 33.771,288.833 33.823 C 288.787 33.876,288.487 34.114,288.166 34.353 C 287.131 35.123,285.248 37.050,284.276 38.333 C 283.756 39.021,283.183 39.771,283.004 40.000 C 282.410 40.758,280.521 44.724,280.007 46.293 C 279.159 48.879,279.101 49.268,279.085 52.500 C 279.076 54.196,279.005 61.996,278.927 69.833 C 278.849 77.671,278.841 84.890,278.909 85.875 L 279.032 87.667 285.016 87.667 C 289.672 87.667,291.008 87.620,291.038 87.458 C 291.059 87.344,291.077 79.787,291.080 70.667 C 291.082 58.454,291.135 53.886,291.280 53.333 C 291.389 52.921,291.566 52.096,291.674 51.500 C 292.384 47.593,296.246 43.508,300.333 42.342 C 300.746 42.224,301.301 42.062,301.567 41.981 C 302.193 41.790,305.307 41.790,305.933 41.981 C 306.199 42.062,306.754 42.225,307.167 42.344 C 308.818 42.821,312.648 45.227,312.671 45.802 C 312.674 45.865,312.976 46.254,313.343 46.666 C 314.200 47.630,315.423 50.134,315.663 51.417 C 315.766 51.967,315.937 52.792,316.043 53.250 C 316.181 53.842,316.248 58.493,316.276 69.333 C 316.298 77.721,316.319 85.277,316.324 86.125 L 316.333 87.667 322.333 87.667 L 328.333 87.667 328.374 69.875 C 328.420 49.849,328.424 50.251,328.153 49.000 C 326.965 43.516,323.197 37.342,319.250 34.413 C 318.883 34.141,318.546 33.872,318.500 33.814 C 318.454 33.757,317.880 33.363,317.225 32.941 C 314.256 31.026,311.058 29.834,307.094 29.167 C 305.911 28.967,301.257 28.978,300.083 29.183 M80.043 35.415 C 84.915 36.203,90.319 39.102,90.722 41.146 C 91.000 42.553,90.845 75.464,90.559 75.750 C 90.240 76.070,89.670 75.977,88.993 75.495 C 88.160 74.902,85.555 73.688,84.067 73.200 C 77.516 71.050,70.943 71.803,58.917 76.083 C 50.175 79.193,47.411 80.019,43.189 80.781 C 41.130 81.153,35.457 81.197,33.833 80.854 C 28.870 79.806,25.152 78.033,24.204 76.263 C 23.704 75.330,23.501 46.545,23.964 42.333 L 24.083 41.250 24.620 41.292 C 24.915 41.314,25.417 41.480,25.735 41.658 C 35.296 47.028,40.908 46.806,57.083 40.418 C 68.997 35.713,74.484 34.517,80.043 35.415 M159.954 42.099 C 177.472 45.526,177.768 71.012,160.333 74.775 C 159.110 75.039,150.873 75.285,149.609 75.096 L 148.833 74.980 148.833 58.413 L 148.833 41.847 150.208 41.791 C 152.933 41.679,158.748 41.863,159.954 42.099 M235.322 42.175 C 239.763 43.405,242.976 46.642,244.192 51.109 C 244.508 52.272,244.556 52.974,244.622 57.458 L 244.696 62.500 232.374 62.500 L 220.051 62.500 219.953 59.722 C 219.664 51.585,221.071 47.301,225.000 44.356 C 225.321 44.115,225.621 43.872,225.667 43.815 C 226.886 42.307,232.411 41.368,235.322 42.175 M377.500 42.069 C 384.889 43.870,388.077 50.014,387.258 60.875 L 387.136 62.500 374.901 62.500 L 362.667 62.500 362.651 59.625 C 362.611 52.265,362.879 50.542,364.487 47.836 C 366.264 44.845,368.832 42.980,372.500 42.017 C 373.384 41.784,376.465 41.816,377.500 42.069 " stroke="none" fill="#138cec" fill-rule="evenodd"></path><path id="path2" d="M137.083 28.833 L 136.250 28.917 136.149 30.250 C 136.013 32.043,135.970 85.661,136.103 86.941 L 136.209 87.950 138.858 88.059 C 140.315 88.119,145.274 88.111,149.878 88.042 L 158.250 87.917 153.333 87.815 C 150.629 87.759,145.698 87.703,142.375 87.690 L 136.333 87.667 136.333 58.417 L 136.333 29.167 147.292 29.162 C 155.033 29.158,158.162 29.105,157.949 28.981 C 157.639 28.801,138.748 28.667,137.083 28.833 M76.121 35.287 C 76.417 35.324,76.942 35.324,77.288 35.288 C 77.634 35.252,77.392 35.222,76.750 35.221 C 76.108 35.221,75.825 35.250,76.121 35.287 M23.740 54.250 C 23.740 56.908,23.763 57.972,23.791 56.615 C 23.819 55.257,23.819 53.082,23.791 51.781 C 23.763 50.481,23.740 51.592,23.740 54.250 M278.757 52.625 C 278.603 53.232,278.453 83.718,278.592 86.125 L 278.700 88.000 285.012 88.000 L 291.323 88.000 291.371 83.125 C 291.484 71.609,291.455 53.132,291.326 53.750 C 291.249 54.117,291.182 61.898,291.176 71.042 L 291.167 87.667 284.976 87.667 L 278.786 87.667 278.868 69.917 C 278.913 60.154,278.932 52.167,278.911 52.167 C 278.890 52.167,278.820 52.373,278.757 52.625 M328.391 69.875 L 328.474 87.667 322.320 87.667 L 316.167 87.667 316.154 71.042 C 316.148 61.898,316.082 54.079,316.009 53.667 C 315.852 52.786,315.783 86.087,315.939 87.227 L 316.045 88.000 322.332 88.000 L 328.620 88.000 328.734 85.875 C 328.822 84.231,328.879 68.385,328.843 55.333 C 328.839 53.793,328.699 52.645,328.476 52.325 C 328.362 52.162,328.335 57.858,328.391 69.875 " stroke="none" fill="#77bae5" fill-rule="evenodd"></path><path id="path3" d="M153.042 28.782 C 153.202 28.823,153.465 28.823,153.625 28.782 C 153.785 28.740,153.654 28.705,153.333 28.705 C 153.012 28.705,152.881 28.740,153.042 28.782 M90.705 42.167 C 90.705 42.487,90.740 42.619,90.782 42.458 C 90.823 42.298,90.823 42.035,90.782 41.875 C 90.740 41.715,90.705 41.846,90.705 42.167 M90.747 59.167 C 90.747 68.013,90.767 71.631,90.792 67.208 C 90.816 62.785,90.816 55.548,90.792 51.125 C 90.767 46.702,90.747 50.321,90.747 59.167 M23.899 70.417 C 23.899 71.700,23.926 72.203,23.957 71.534 C 23.989 70.866,23.989 69.816,23.957 69.201 C 23.925 68.586,23.899 69.133,23.899 70.417 " stroke="none" fill="#a6d4f6" fill-rule="evenodd"></path><path id="path4" d="M141.042 28.782 C 141.202 28.823,141.465 28.823,141.625 28.782 C 141.785 28.740,141.654 28.705,141.333 28.705 C 141.012 28.705,140.881 28.740,141.042 28.782 M136.375 58.458 L 136.416 87.750 136.458 58.546 L 136.501 29.342 139.209 29.291 L 141.917 29.241 139.125 29.204 L 136.333 29.167 136.375 58.458 M74.875 35.282 C 75.035 35.323,75.298 35.323,75.458 35.282 C 75.619 35.240,75.487 35.205,75.167 35.205 C 74.846 35.205,74.715 35.240,74.875 35.282 M78.127 35.285 C 78.334 35.324,78.634 35.323,78.794 35.281 C 78.953 35.239,78.783 35.207,78.417 35.209 C 78.050 35.211,77.920 35.245,78.127 35.285 M36.708 45.448 C 36.869 45.490,37.131 45.490,37.292 45.448 C 37.452 45.406,37.321 45.372,37.000 45.372 C 36.679 45.372,36.548 45.406,36.708 45.448 M38.875 45.448 C 39.035 45.490,39.298 45.490,39.458 45.448 C 39.619 45.406,39.487 45.372,39.167 45.372 C 38.846 45.372,38.715 45.406,38.875 45.448 M23.727 48.000 C 23.727 48.871,23.755 49.227,23.789 48.792 C 23.824 48.356,23.824 47.644,23.789 47.208 C 23.755 46.773,23.727 47.129,23.727 48.000 M278.963 53.041 C 279.043 54.813,279.116 54.983,279.142 53.458 C 279.155 52.656,279.110 52.000,279.042 52.000 C 278.973 52.000,278.938 52.468,278.963 53.041 M291.078 65.750 C 291.078 70.792,291.099 72.878,291.125 70.387 C 291.151 67.895,291.151 63.770,291.125 61.220 C 291.099 58.670,291.078 60.708,291.078 65.750 M316.246 69.333 C 316.246 75.796,316.266 78.440,316.292 75.208 C 316.317 71.977,316.317 66.690,316.292 63.458 C 316.266 60.227,316.246 62.871,316.246 69.333 M23.734 61.500 C 23.734 62.921,23.759 63.502,23.791 62.792 C 23.822 62.081,23.822 60.919,23.791 60.208 C 23.759 59.498,23.734 60.079,23.734 61.500 M278.906 63.667 C 278.906 66.004,278.929 66.960,278.958 65.792 C 278.987 64.623,278.987 62.710,278.958 61.542 C 278.929 60.373,278.906 61.329,278.906 63.667 M74.460 72.118 C 74.668 72.158,74.968 72.156,75.127 72.115 C 75.286 72.073,75.117 72.040,74.750 72.042 C 74.383 72.044,74.253 72.078,74.460 72.118 M78.127 72.118 C 78.334 72.158,78.634 72.156,78.794 72.115 C 78.953 72.073,78.783 72.040,78.417 72.042 C 78.050 72.044,77.920 72.078,78.127 72.118 M328.407 83.000 C 328.407 85.612,328.430 86.681,328.458 85.375 C 328.486 84.069,328.486 81.931,328.458 80.625 C 328.430 79.319,328.407 80.387,328.407 83.000 M316.228 86.083 C 316.228 87.000,316.256 87.354,316.290 86.869 C 316.324 86.385,316.323 85.635,316.289 85.203 C 316.255 84.770,316.227 85.167,316.228 86.083 M278.883 86.833 C 278.883 87.337,278.915 87.544,278.953 87.292 C 278.991 87.040,278.991 86.627,278.953 86.375 C 278.915 86.123,278.883 86.329,278.883 86.833 M151.625 87.791 C 152.840 87.820,154.827 87.820,156.042 87.791 C 157.256 87.763,156.262 87.739,153.833 87.739 C 151.404 87.739,150.410 87.763,151.625 87.791 " stroke="none" fill="#3ea1ea" fill-rule="evenodd"></path><path id="path0" d="M73.333 35.515 C 68.600 36.251,65.723 37.169,54.667 41.466 C 45.138 45.169,39.294 46.220,34.058 45.170 C 31.330 44.623,30.186 44.176,26.456 42.197 C 24.286 41.045,24.228 41.052,24.055 42.458 C 23.743 44.997,23.889 75.011,24.217 75.862 C 24.801 77.376,26.860 78.699,30.360 79.811 C 37.251 82.000,43.224 81.428,54.500 77.499 C 63.978 74.195,65.539 73.694,68.750 72.923 C 76.414 71.082,84.140 72.034,89.164 75.440 C 89.830 75.892,90.420 75.949,90.563 75.577 C 90.755 75.075,90.690 41.416,90.495 40.901 C 89.205 37.486,79.745 34.517,73.333 35.515 " stroke="none" fill="#fbfbfc" fill-rule="evenodd"></path><path id="path1" d="M52.832 0.053 C 52.787 0.096,52.000 0.218,51.083 0.325 C 50.167 0.432,49.042 0.583,48.583 0.661 C 48.125 0.739,47.225 0.892,46.583 1.002 C 45.591 1.172,43.795 1.605,41.750 2.165 C 39.936 2.663,37.196 3.582,36.167 4.039 C 34.584 4.742,34.363 4.833,34.249 4.833 C 33.831 4.833,26.371 8.907,26.000 9.338 C 25.954 9.391,25.296 9.859,24.538 10.377 C 16.105 16.144,8.287 26.006,4.424 35.750 C 3.987 36.850,3.571 37.900,3.499 38.083 C 2.670 40.180,1.591 44.143,1.071 47.000 C -1.364 60.386,0.441 73.368,6.355 85.000 C 7.471 87.195,7.998 88.165,8.167 88.333 C 8.212 88.379,8.393 88.679,8.568 89.000 C 8.922 89.648,11.654 93.702,11.825 93.833 C 11.885 93.879,12.155 94.217,12.425 94.583 C 12.694 94.950,12.953 95.287,12.999 95.333 C 13.045 95.379,13.453 95.867,13.904 96.417 C 16.233 99.253,22.026 104.553,24.667 106.264 C 25.079 106.531,25.543 106.862,25.697 107.000 C 27.346 108.469,35.285 112.400,39.083 113.628 C 42.048 114.587,44.409 115.218,46.083 115.500 C 46.725 115.607,47.663 115.765,48.167 115.850 C 50.814 116.295,51.982 116.381,56.417 116.456 C 61.281 116.539,63.187 116.430,66.333 115.890 C 67.112 115.757,68.198 115.572,68.745 115.481 C 74.584 114.504,84.368 110.368,89.250 106.814 C 89.617 106.547,90.404 105.975,91.000 105.544 C 91.596 105.113,92.121 104.720,92.167 104.672 C 92.212 104.623,92.625 104.284,93.083 103.918 C 96.419 101.257,100.948 96.574,102.837 93.833 C 103.058 93.513,103.319 93.167,103.417 93.065 C 103.666 92.808,105.985 89.295,106.707 88.083 C 110.349 81.967,113.184 73.822,114.103 66.833 C 115.107 59.198,114.596 49.622,112.852 43.417 C 112.775 43.142,112.619 42.579,112.506 42.167 C 111.338 37.898,108.814 31.967,106.726 28.583 C 104.925 25.665,104.245 24.643,102.959 22.917 C 100.830 20.060,96.815 15.722,94.163 13.412 C 90.660 10.363,84.612 6.668,79.500 4.454 C 79.179 4.315,78.564 4.044,78.133 3.850 C 76.121 2.948,70.909 1.425,68.333 0.987 C 66.184 0.621,65.396 0.493,64.167 0.310 C 62.934 0.127,52.991 -0.099,52.832 0.053 M372.833 29.007 C 363.169 29.731,354.583 36.483,351.440 45.833 C 349.883 50.464,349.875 50.621,349.958 75.542 L 350.000 88.000 356.333 88.000 L 362.667 88.000 362.667 81.667 L 362.667 75.333 374.917 75.333 L 387.167 75.333 387.167 81.667 L 387.167 88.000 393.583 88.000 L 400.000 88.000 399.998 71.458 C 399.996 53.261,399.931 51.701,399.006 47.583 C 398.609 45.812,396.589 41.122,395.939 40.459 C 395.826 40.344,395.439 39.800,395.079 39.250 C 394.239 37.969,390.718 34.445,389.417 33.583 C 388.867 33.219,388.379 32.873,388.333 32.813 C 388.287 32.754,387.455 32.289,386.484 31.780 C 382.256 29.566,377.707 28.641,372.833 29.007 M149.083 29.175 C 143.950 29.236,139.019 29.296,138.125 29.309 L 136.500 29.333 136.500 58.495 L 136.500 87.658 147.625 87.731 C 153.744 87.771,159.275 87.807,159.917 87.811 C 163.664 87.836,168.617 85.995,173.357 82.815 C 175.550 81.344,176.795 80.282,178.333 78.568 C 185.428 70.668,187.832 59.988,184.784 49.917 C 184.507 49.000,184.217 48.179,184.140 48.092 C 184.063 48.005,184.000 47.830,184.000 47.703 C 184.000 47.452,182.630 44.601,181.839 43.208 C 180.701 41.203,178.990 38.978,177.255 37.247 C 172.780 32.783,164.446 28.901,159.617 29.033 C 158.957 29.051,154.217 29.115,149.083 29.175 M228.667 29.185 C 228.254 29.267,227.504 29.415,227.000 29.514 C 224.707 29.962,221.195 31.362,219.188 32.629 C 213.203 36.404,208.944 42.902,207.856 49.917 C 207.375 53.016,207.333 54.705,207.333 71.053 L 207.333 88.000 213.672 88.000 L 220.011 88.000 219.964 82.458 C 219.938 79.410,219.978 76.560,220.052 76.125 L 220.187 75.333 232.427 75.333 L 244.667 75.333 244.667 81.667 L 244.667 88.000 251.000 88.000 L 257.333 88.000 257.351 73.375 C 257.376 52.146,257.389 52.771,256.816 49.333 C 256.307 46.281,253.867 40.586,252.421 39.071 C 252.327 38.973,252.064 38.621,251.836 38.288 C 251.324 37.541,248.487 34.727,247.583 34.070 C 247.217 33.803,246.879 33.539,246.833 33.481 C 246.133 32.609,241.538 30.487,238.750 29.748 C 236.095 29.045,230.844 28.751,228.667 29.185 M300.083 29.183 C 296.073 29.882,292.653 31.208,289.667 33.222 C 289.254 33.500,288.879 33.771,288.833 33.823 C 288.787 33.876,288.487 34.114,288.166 34.353 C 287.131 35.123,285.248 37.050,284.276 38.333 C 283.756 39.021,283.183 39.771,283.004 40.000 C 282.410 40.758,280.521 44.724,280.007 46.293 C 279.159 48.879,279.101 49.268,279.085 52.500 C 279.076 54.196,279.005 61.996,278.927 69.833 C 278.849 77.671,278.841 84.890,278.909 85.875 L 279.032 87.667 285.016 87.667 C 289.672 87.667,291.008 87.620,291.038 87.458 C 291.059 87.344,291.077 79.787,291.080 70.667 C 291.082 58.454,291.135 53.886,291.280 53.333 C 291.389 52.921,291.566 52.096,291.674 51.500 C 292.384 47.593,296.246 43.508,300.333 42.342 C 300.746 42.224,301.301 42.062,301.567 41.981 C 302.193 41.790,305.307 41.790,305.933 41.981 C 306.199 42.062,306.754 42.225,307.167 42.344 C 308.818 42.821,312.648 45.227,312.671 45.802 C 312.674 45.865,312.976 46.254,313.343 46.666 C 314.200 47.630,315.423 50.134,315.663 51.417 C 315.766 51.967,315.937 52.792,316.043 53.250 C 316.181 53.842,316.248 58.493,316.276 69.333 C 316.298 77.721,316.319 85.277,316.324 86.125 L 316.333 87.667 322.333 87.667 L 328.333 87.667 328.374 69.875 C 328.420 49.849,328.424 50.251,328.153 49.000 C 326.965 43.516,323.197 37.342,319.250 34.413 C 318.883 34.141,318.546 33.872,318.500 33.814 C 318.454 33.757,317.880 33.363,317.225 32.941 C 314.256 31.026,311.058 29.834,307.094 29.167 C 305.911 28.967,301.257 28.978,300.083 29.183 M80.043 35.415 C 84.915 36.203,90.319 39.102,90.722 41.146 C 91.000 42.553,90.845 75.464,90.559 75.750 C 90.240 76.070,89.670 75.977,88.993 75.495 C 88.160 74.902,85.555 73.688,84.067 73.200 C 77.516 71.050,70.943 71.803,58.917 76.083 C 50.175 79.193,47.411 80.019,43.189 80.781 C 41.130 81.153,35.457 81.197,33.833 80.854 C 28.870 79.806,25.152 78.033,24.204 76.263 C 23.704 75.330,23.501 46.545,23.964 42.333 L 24.083 41.250 24.620 41.292 C 24.915 41.314,25.417 41.480,25.735 41.658 C 35.296 47.028,40.908 46.806,57.083 40.418 C 68.997 35.713,74.484 34.517,80.043 35.415 M159.954 42.099 C 177.472 45.526,177.768 71.012,160.333 74.775 C 159.110 75.039,150.873 75.285,149.609 75.096 L 148.833 74.980 148.833 58.413 L 148.833 41.847 150.208 41.791 C 152.933 41.679,158.748 41.863,159.954 42.099 M235.322 42.175 C 239.763 43.405,242.976 46.642,244.192 51.109 C 244.508 52.272,244.556 52.974,244.622 57.458 L 244.696 62.500 232.374 62.500 L 220.051 62.500 219.953 59.722 C 219.664 51.585,221.071 47.301,225.000 44.356 C 225.321 44.115,225.621 43.872,225.667 43.815 C 226.886 42.307,232.411 41.368,235.322 42.175 M377.500 42.069 C 384.889 43.870,388.077 50.014,387.258 60.875 L 387.136 62.500 374.901 62.500 L 362.667 62.500 362.651 59.625 C 362.611 52.265,362.879 50.542,364.487 47.836 C 366.264 44.845,368.832 42.980,372.500 42.017 C 373.384 41.784,376.465 41.816,377.500 42.069 " stroke="none" fill="#138cec" fill-rule="evenodd"></path><path id="path2" d="M137.083 28.833 L 136.250 28.917 136.149 30.250 C 136.013 32.043,135.970 85.661,136.103 86.941 L 136.209 87.950 138.858 88.059 C 140.315 88.119,145.274 88.111,149.878 88.042 L 158.250 87.917 153.333 87.815 C 150.629 87.759,145.698 87.703,142.375 87.690 L 136.333 87.667 136.333 58.417 L 136.333 29.167 147.292 29.162 C 155.033 29.158,158.162 29.105,157.949 28.981 C 157.639 28.801,138.748 28.667,137.083 28.833 M76.121 35.287 C 76.417 35.324,76.942 35.324,77.288 35.288 C 77.634 35.252,77.392 35.222,76.750 35.221 C 76.108 35.221,75.825 35.250,76.121 35.287 M23.740 54.250 C 23.740 56.908,23.763 57.972,23.791 56.615 C 23.819 55.257,23.819 53.082,23.791 51.781 C 23.763 50.481,23.740 51.592,23.740 54.250 M278.757 52.625 C 278.603 53.232,278.453 83.718,278.592 86.125 L 278.700 88.000 285.012 88.000 L 291.323 88.000 291.371 83.125 C 291.484 71.609,291.455 53.132,291.326 53.750 C 291.249 54.117,291.182 61.898,291.176 71.042 L 291.167 87.667 284.976 87.667 L 278.786 87.667 278.868 69.917 C 278.913 60.154,278.932 52.167,278.911 52.167 C 278.890 52.167,278.820 52.373,278.757 52.625 M328.391 69.875 L 328.474 87.667 322.320 87.667 L 316.167 87.667 316.154 71.042 C 316.148 61.898,316.082 54.079,316.009 53.667 C 315.852 52.786,315.783 86.087,315.939 87.227 L 316.045 88.000 322.332 88.000 L 328.620 88.000 328.734 85.875 C 328.822 84.231,328.879 68.385,328.843 55.333 C 328.839 53.793,328.699 52.645,328.476 52.325 C 328.362 52.162,328.335 57.858,328.391 69.875 " stroke="none" fill="#77bae5" fill-rule="evenodd"></path><path id="path3" d="M153.042 28.782 C 153.202 28.823,153.465 28.823,153.625 28.782 C 153.785 28.740,153.654 28.705,153.333 28.705 C 153.012 28.705,152.881 28.740,153.042 28.782 M90.705 42.167 C 90.705 42.487,90.740 42.619,90.782 42.458 C 90.823 42.298,90.823 42.035,90.782 41.875 C 90.740 41.715,90.705 41.846,90.705 42.167 M90.747 59.167 C 90.747 68.013,90.767 71.631,90.792 67.208 C 90.816 62.785,90.816 55.548,90.792 51.125 C 90.767 46.702,90.747 50.321,90.747 59.167 M23.899 70.417 C 23.899 71.700,23.926 72.203,23.957 71.534 C 23.989 70.866,23.989 69.816,23.957 69.201 C 23.925 68.586,23.899 69.133,23.899 70.417 " stroke="none" fill="#a6d4f6" fill-rule="evenodd"></path><path id="path4" d="M141.042 28.782 C 141.202 28.823,141.465 28.823,141.625 28.782 C 141.785 28.740,141.654 28.705,141.333 28.705 C 141.012 28.705,140.881 28.740,141.042 28.782 M136.375 58.458 L 136.416 87.750 136.458 58.546 L 136.501 29.342 139.209 29.291 L 141.917 29.241 139.125 29.204 L 136.333 29.167 136.375 58.458 M74.875 35.282 C 75.035 35.323,75.298 35.323,75.458 35.282 C 75.619 35.240,75.487 35.205,75.167 35.205 C 74.846 35.205,74.715 35.240,74.875 35.282 M78.127 35.285 C 78.334 35.324,78.634 35.323,78.794 35.281 C 78.953 35.239,78.783 35.207,78.417 35.209 C 78.050 35.211,77.920 35.245,78.127 35.285 M36.708 45.448 C 36.869 45.490,37.131 45.490,37.292 45.448 C 37.452 45.406,37.321 45.372,37.000 45.372 C 36.679 45.372,36.548 45.406,36.708 45.448 M38.875 45.448 C 39.035 45.490,39.298 45.490,39.458 45.448 C 39.619 45.406,39.487 45.372,39.167 45.372 C 38.846 45.372,38.715 45.406,38.875 45.448 M23.727 48.000 C 23.727 48.871,23.755 49.227,23.789 48.792 C 23.824 48.356,23.824 47.644,23.789 47.208 C 23.755 46.773,23.727 47.129,23.727 48.000 M278.963 53.041 C 279.043 54.813,279.116 54.983,279.142 53.458 C 279.155 52.656,279.110 52.000,279.042 52.000 C 278.973 52.000,278.938 52.468,278.963 53.041 M291.078 65.750 C 291.078 70.792,291.099 72.878,291.125 70.387 C 291.151 67.895,291.151 63.770,291.125 61.220 C 291.099 58.670,291.078 60.708,291.078 65.750 M316.246 69.333 C 316.246 75.796,316.266 78.440,316.292 75.208 C 316.317 71.977,316.317 66.690,316.292 63.458 C 316.266 60.227,316.246 62.871,316.246 69.333 M23.734 61.500 C 23.734 62.921,23.759 63.502,23.791 62.792 C 23.822 62.081,23.822 60.919,23.791 60.208 C 23.759 59.498,23.734 60.079,23.734 61.500 M278.906 63.667 C 278.906 66.004,278.929 66.960,278.958 65.792 C 278.987 64.623,278.987 62.710,278.958 61.542 C 278.929 60.373,278.906 61.329,278.906 63.667 M74.460 72.118 C 74.668 72.158,74.968 72.156,75.127 72.115 C 75.286 72.073,75.117 72.040,74.750 72.042 C 74.383 72.044,74.253 72.078,74.460 72.118 M78.127 72.118 C 78.334 72.158,78.634 72.156,78.794 72.115 C 78.953 72.073,78.783 72.040,78.417 72.042 C 78.050 72.044,77.920 72.078,78.127 72.118 M328.407 83.000 C 328.407 85.612,328.430 86.681,328.458 85.375 C 328.486 84.069,328.486 81.931,328.458 80.625 C 328.430 79.319,328.407 80.387,328.407 83.000 M316.228 86.083 C 316.228 87.000,316.256 87.354,316.290 86.869 C 316.324 86.385,316.323 85.635,316.289 85.203 C 316.255 84.770,316.227 85.167,316.228 86.083 M278.883 86.833 C 278.883 87.337,278.915 87.544,278.953 87.292 C 278.991 87.040,278.991 86.627,278.953 86.375 C 278.915 86.123,278.883 86.329,278.883 86.833 M151.625 87.791 C 152.840 87.820,154.827 87.820,156.042 87.791 C 157.256 87.763,156.262 87.739,153.833 87.739 C 151.404 87.739,150.410 87.763,151.625 87.791 " stroke="none" fill="#3ea1ea" fill-rule="evenodd"></path></g></svg>