<svg id="svg" version="1.1" xmlns="http://www.w3.org/2000/svg" xmlns:xlink="http://www.w3.org/1999/xlink" width="400" height="110.9375" viewBox="0, 0, 400,110.9375"><g id="svgg"><path id="path0" d="M134.000 69.653 L 134.000 110.500 143.587 110.500 L 153.175 110.500 153.124 79.042 C 153.096 61.740,153.017 47.358,152.949 47.083 C 152.880 46.808,152.706 46.021,152.562 45.333 C 152.417 44.646,152.201 43.783,152.082 43.417 C 151.635 42.047,149.632 38.147,149.315 38.028 C 149.233 37.997,149.167 37.883,149.167 37.773 C 149.167 37.664,149.035 37.459,148.875 37.319 C 148.715 37.179,148.341 36.764,148.046 36.397 C 146.879 34.949,146.455 34.508,146.314 34.595 C 146.233 34.645,146.167 34.619,146.167 34.536 C 146.167 34.396,144.615 33.030,143.884 32.526 C 143.325 32.141,141.955 31.369,141.000 30.902 C 140.496 30.655,139.896 30.361,139.667 30.247 C 139.300 30.065,136.034 29.217,134.542 28.916 L 134.000 28.807 134.000 69.653 M93.268 30.014 C 91.254 30.241,88.112 31.011,86.720 31.618 C 86.370 31.771,86.046 31.907,86.000 31.920 C 85.954 31.933,85.692 32.003,85.417 32.076 C 84.870 32.220,82.234 33.571,81.833 33.913 C 81.696 34.031,81.321 34.258,81.000 34.419 C 78.394 35.727,74.210 40.304,72.895 43.286 C 72.661 43.816,72.300 44.625,72.093 45.083 C 71.559 46.263,70.947 48.170,71.065 48.287 C 71.119 48.341,71.098 48.468,71.018 48.568 C 70.350 49.402,70.183 55.615,70.744 58.750 C 70.793 59.025,70.878 59.512,70.932 59.833 C 71.059 60.583,71.776 62.726,72.184 63.573 C 72.358 63.934,72.500 64.322,72.500 64.436 C 72.500 64.550,72.618 64.761,72.762 64.905 C 72.906 65.049,72.976 65.167,72.917 65.167 C 72.859 65.167,72.950 65.373,73.120 65.625 C 73.290 65.877,73.526 66.278,73.646 66.516 C 73.765 66.755,74.051 67.167,74.282 67.433 C 74.513 67.699,74.912 68.217,75.169 68.583 C 75.426 68.950,76.029 69.587,76.509 70.000 C 76.989 70.412,77.500 70.881,77.644 71.042 C 77.789 71.202,78.003 71.333,78.120 71.333 C 78.238 71.333,78.333 71.408,78.333 71.500 C 78.333 71.592,78.427 71.670,78.542 71.673 C 78.656 71.677,79.010 71.902,79.327 72.173 C 79.644 72.445,79.968 72.667,80.046 72.667 C 80.125 72.667,80.428 72.848,80.719 73.070 C 81.011 73.293,81.550 73.584,81.917 73.719 C 82.283 73.853,83.371 74.317,84.333 74.750 C 85.916 75.461,87.848 76.160,88.500 76.258 C 88.638 76.279,89.937 76.680,91.388 77.150 C 92.839 77.619,94.096 77.961,94.180 77.908 C 94.264 77.856,94.333 77.885,94.333 77.972 C 94.333 78.058,94.615 78.188,94.958 78.260 C 95.592 78.393,95.734 78.426,95.958 78.498 C 96.027 78.520,96.158 78.553,96.250 78.570 C 96.342 78.588,96.567 78.661,96.750 78.733 C 96.933 78.806,97.308 78.944,97.583 79.041 C 98.382 79.324,101.578 80.898,101.639 81.039 C 101.669 81.109,101.792 81.167,101.912 81.167 C 102.178 81.167,104.147 83.088,104.473 83.667 C 106.389 87.055,104.874 93.838,101.997 94.751 C 101.815 94.809,101.667 94.930,101.667 95.021 C 101.667 95.112,101.592 95.140,101.500 95.083 C 101.408 95.027,101.333 95.060,101.333 95.157 C 101.333 95.254,101.230 95.333,101.105 95.333 C 100.979 95.333,100.547 95.479,100.146 95.656 C 99.744 95.834,98.778 96.065,97.999 96.170 C 95.760 96.473,93.870 96.445,91.000 96.069 C 90.228 95.968,87.476 94.988,87.196 94.715 C 87.075 94.597,86.888 94.500,86.780 94.500 C 86.564 94.500,84.660 93.571,84.000 93.143 C 82.813 92.374,81.660 91.673,81.624 91.697 C 81.602 91.712,81.075 91.404,80.454 91.011 C 78.023 89.476,75.973 89.419,74.000 90.831 C 73.234 91.380,72.856 91.768,72.653 92.215 C 72.386 92.802,72.075 93.307,71.777 93.637 C 71.625 93.805,71.500 93.998,71.500 94.066 C 71.500 94.134,71.313 94.435,71.083 94.735 C 70.854 95.036,70.667 95.368,70.667 95.474 C 70.667 95.580,70.604 95.667,70.527 95.667 C 70.450 95.667,70.309 95.838,70.213 96.048 C 70.117 96.258,69.503 97.252,68.848 98.257 C 67.368 100.527,67.316 100.704,67.938 101.362 C 68.858 102.337,72.928 105.333,73.331 105.333 C 73.424 105.333,73.500 105.413,73.500 105.510 C 73.500 105.607,73.569 105.644,73.652 105.592 C 73.736 105.540,73.830 105.555,73.861 105.624 C 74.212 106.416,82.923 109.808,86.167 110.416 C 86.487 110.476,87.087 110.588,87.500 110.665 C 89.891 111.114,102.451 110.816,103.118 110.295 C 103.228 110.209,103.388 110.181,103.472 110.233 C 103.810 110.441,110.333 107.824,110.333 107.480 C 110.333 107.399,110.446 107.333,110.583 107.333 C 110.721 107.333,110.833 107.258,110.833 107.167 C 110.833 107.075,110.918 107.000,111.022 107.000 C 111.125 107.000,111.576 106.737,112.022 106.417 C 112.469 106.096,112.894 105.833,112.968 105.833 C 113.255 105.833,117.267 101.925,117.241 101.672 C 117.229 101.562,117.490 101.231,117.875 100.868 C 118.035 100.716,118.167 100.531,118.167 100.456 C 118.167 100.381,118.305 100.171,118.473 99.990 C 118.642 99.809,118.886 99.456,119.015 99.206 C 119.144 98.955,119.292 98.712,119.344 98.667 C 119.781 98.281,122.230 92.210,122.148 91.713 C 122.137 91.642,122.145 91.527,122.168 91.458 C 122.190 91.390,122.227 91.183,122.250 91.000 C 122.273 90.817,122.306 90.648,122.324 90.625 C 122.342 90.602,122.391 90.283,122.432 89.917 C 122.472 89.550,122.580 88.701,122.670 88.030 C 123.376 82.767,122.258 76.984,119.844 73.407 C 119.563 72.991,119.333 72.593,119.333 72.524 C 119.333 72.150,114.766 67.833,114.370 67.833 C 114.287 67.833,114.088 67.689,113.928 67.512 C 113.768 67.336,113.213 66.986,112.694 66.734 C 112.175 66.483,111.000 65.907,110.083 65.454 C 109.167 65.002,107.704 64.384,106.833 64.081 C 105.962 63.779,104.175 63.149,102.861 62.682 C 101.546 62.215,100.245 61.793,99.968 61.744 C 99.367 61.639,95.543 60.266,94.553 59.801 C 94.169 59.621,93.757 59.454,93.636 59.429 C 92.851 59.270,90.749 57.939,89.470 56.792 C 87.327 54.869,87.157 50.892,89.096 48.076 C 89.440 47.576,89.789 47.167,89.871 47.167 C 89.953 47.167,89.973 47.092,89.917 47.000 C 89.860 46.908,89.906 46.833,90.019 46.833 C 90.131 46.833,90.342 46.729,90.487 46.602 C 90.759 46.362,91.983 45.719,93.000 45.281 C 96.281 43.867,103.127 44.785,107.196 47.184 C 107.646 47.449,108.086 47.667,108.174 47.667 C 108.262 47.667,108.333 47.733,108.333 47.813 C 108.333 47.894,108.577 48.057,108.875 48.176 C 109.173 48.294,109.626 48.535,109.881 48.711 C 110.136 48.887,110.436 49.050,110.548 49.073 C 110.659 49.097,110.975 49.211,111.250 49.328 C 112.823 49.997,115.173 49.602,116.167 48.503 C 116.915 47.675,117.202 47.291,117.234 47.077 C 117.251 46.962,117.346 46.766,117.446 46.642 C 117.546 46.518,117.833 46.004,118.085 45.500 C 118.337 44.996,118.681 44.387,118.850 44.148 C 119.019 43.908,119.109 43.665,119.051 43.606 C 118.992 43.548,119.022 43.500,119.116 43.500 C 119.288 43.500,120.167 41.706,120.167 41.354 C 120.167 41.251,120.226 41.167,120.299 41.167 C 120.371 41.167,120.544 40.923,120.684 40.625 C 120.823 40.327,121.157 39.686,121.427 39.201 L 121.917 38.319 121.500 37.995 C 121.271 37.816,120.965 37.557,120.819 37.418 C 120.674 37.280,120.448 37.167,120.318 37.167 C 120.187 37.167,119.986 37.015,119.870 36.830 C 119.446 36.152,113.612 32.833,112.843 32.833 C 112.654 32.833,112.500 32.761,112.500 32.673 C 112.500 32.541,111.871 32.310,110.917 32.090 C 110.825 32.069,110.525 31.959,110.250 31.847 C 108.987 31.330,106.186 30.633,104.583 30.436 C 104.217 30.391,103.564 30.275,103.133 30.178 C 102.703 30.081,102.178 29.999,101.967 29.994 C 97.745 29.903,94.178 29.912,93.268 30.014 M0.000 70.580 L 0.000 110.513 17.542 110.444 C 27.190 110.406,35.458 110.339,35.917 110.294 C 37.623 110.126,38.697 109.984,39.462 109.824 C 39.896 109.733,40.475 109.620,40.750 109.572 C 41.025 109.524,41.887 109.286,42.667 109.043 C 43.446 108.800,44.121 108.592,44.167 108.580 C 45.725 108.191,49.236 106.616,49.804 106.052 C 49.925 105.932,50.095 105.833,50.182 105.833 C 51.102 105.833,56.318 101.007,57.344 99.207 C 57.487 98.956,57.787 98.450,58.010 98.083 C 58.233 97.717,58.417 97.379,58.417 97.333 C 58.418 97.287,58.594 96.968,58.808 96.623 C 59.022 96.277,59.212 95.902,59.231 95.789 C 59.250 95.676,59.344 95.433,59.439 95.250 C 59.535 95.067,59.730 94.504,59.873 94.000 C 60.016 93.496,60.250 92.671,60.393 92.167 C 61.402 88.615,61.374 84.447,60.316 80.729 C 59.827 79.009,58.721 76.653,58.272 76.378 C 58.158 76.307,57.899 75.976,57.696 75.642 C 57.493 75.307,56.822 74.609,56.205 74.091 C 55.588 73.573,54.847 72.945,54.557 72.695 C 54.268 72.446,53.706 72.083,53.307 71.889 C 51.502 71.009,50.063 70.352,49.833 70.303 C 49.696 70.274,49.546 70.203,49.500 70.145 C 49.454 70.087,48.731 69.821,47.892 69.553 L 46.368 69.066 46.892 68.852 C 47.181 68.735,47.585 68.570,47.792 68.486 C 48.501 68.197,49.083 67.917,49.167 67.825 C 49.212 67.774,49.887 67.376,50.667 66.940 C 52.736 65.783,55.252 63.545,56.312 61.917 C 56.551 61.550,56.788 61.212,56.839 61.167 C 57.069 60.958,58.329 58.140,58.627 57.167 C 59.499 54.316,59.521 50.028,58.680 46.708 C 58.581 46.319,58.421 45.684,58.325 45.298 C 58.228 44.912,58.088 44.519,58.013 44.423 C 57.938 44.328,57.782 43.950,57.667 43.583 C 57.551 43.217,57.411 42.842,57.356 42.750 C 57.300 42.658,57.251 42.546,57.245 42.500 C 57.227 42.354,56.460 40.920,56.353 40.833 C 56.296 40.787,56.137 40.548,56.000 40.302 C 55.585 39.558,53.716 37.577,52.702 36.807 C 52.178 36.410,51.712 36.046,51.667 36.000 C 51.209 35.537,46.963 33.333,46.530 33.333 C 46.464 33.333,45.887 33.114,45.247 32.845 C 44.032 32.335,41.320 31.735,37.500 31.130 C 35.327 30.786,34.646 30.772,17.625 30.711 L 0.000 30.648 0.000 70.580 M33.417 44.988 C 33.967 45.091,34.717 45.293,35.083 45.437 C 35.450 45.582,35.877 45.725,36.032 45.755 C 36.730 45.892,38.402 47.166,39.086 48.083 C 40.252 49.646,40.574 50.956,40.579 54.167 C 40.588 59.512,38.556 62.522,34.333 63.416 C 34.012 63.484,33.678 63.582,33.590 63.634 C 33.087 63.934,29.380 64.085,23.792 64.033 L 18.333 63.983 18.333 54.310 L 18.333 44.636 25.375 44.719 C 29.482 44.767,32.833 44.879,33.417 44.988 M280.795 57.594 C 280.732 57.657,280.445 57.736,280.158 57.770 C 279.536 57.842,277.667 58.806,277.548 59.116 C 277.502 59.236,277.372 59.333,277.260 59.333 C 276.438 59.333,275.288 62.163,275.389 63.939 C 275.535 66.496,276.833 68.346,278.937 68.992 C 279.201 69.073,280.035 69.369,280.792 69.651 C 281.548 69.933,282.167 70.117,282.167 70.061 C 282.167 70.005,282.279 70.053,282.417 70.167 C 282.554 70.281,282.667 70.327,282.667 70.270 C 282.667 70.018,285.069 71.466,285.386 71.910 C 286.299 73.186,285.713 75.930,284.379 76.622 C 281.991 77.862,279.411 77.550,277.144 75.748 C 276.130 74.942,275.000 75.219,275.000 76.272 C 275.000 76.398,274.930 76.500,274.845 76.500 C 274.759 76.500,274.638 76.662,274.575 76.860 C 274.335 77.616,277.457 79.662,279.250 79.924 C 280.670 80.131,282.279 80.163,283.162 80.001 C 284.240 79.803,286.666 78.678,286.667 78.375 C 286.667 78.260,286.733 78.185,286.815 78.208 C 287.042 78.272,287.942 77.070,288.449 76.023 C 289.041 74.801,289.126 72.029,288.604 70.917 C 288.217 70.090,287.538 69.167,287.318 69.167 C 287.227 69.167,286.990 69.015,286.791 68.829 C 286.296 68.368,284.079 67.333,283.587 67.333 C 283.367 67.333,283.146 67.268,283.096 67.187 C 283.014 67.055,281.653 66.616,281.250 66.593 C 281.158 66.588,280.984 66.490,280.863 66.375 C 280.742 66.260,280.505 66.167,280.337 66.167 C 279.894 66.167,278.504 64.560,278.482 64.024 C 278.348 60.684,281.528 59.213,285.068 60.977 C 286.666 61.773,287.158 61.903,287.517 61.623 C 287.798 61.405,288.500 60.134,288.500 59.845 C 288.500 59.547,286.070 58.089,285.314 57.933 C 285.096 57.887,284.729 57.796,284.500 57.729 C 283.926 57.562,280.936 57.453,280.795 57.594 M181.625 57.764 C 181.556 57.833,181.500 62.826,181.500 68.861 L 181.500 79.833 186.378 79.833 C 191.813 79.833,194.381 79.414,194.806 78.458 C 194.836 78.390,194.953 78.333,195.065 78.333 C 195.607 78.333,197.043 76.234,197.279 75.095 C 197.493 74.058,197.394 72.005,197.115 71.727 C 197.052 71.663,197.000 71.483,197.000 71.327 C 197.000 70.870,195.332 69.221,194.731 69.085 C 194.269 68.980,193.187 68.576,193.081 68.470 C 193.030 68.419,193.197 68.335,193.453 68.283 C 195.509 67.863,197.197 64.295,196.469 61.908 C 195.793 59.686,193.931 58.279,191.156 57.891 C 190.020 57.733,181.767 57.622,181.625 57.764 M207.778 57.778 C 207.717 57.839,207.667 57.987,207.667 58.107 C 207.667 58.226,207.484 58.720,207.260 59.204 C 207.037 59.688,206.655 60.571,206.413 61.167 C 206.171 61.762,205.800 62.625,205.589 63.083 C 205.379 63.542,205.156 64.104,205.094 64.333 C 204.907 65.020,204.205 66.779,203.811 67.545 C 203.534 68.084,202.930 69.748,202.965 69.875 C 202.984 69.944,202.917 70.000,202.816 70.000 C 202.714 70.000,202.674 70.112,202.727 70.250 C 202.780 70.387,202.738 70.500,202.634 70.500 C 202.530 70.500,202.488 70.544,202.542 70.597 C 202.595 70.651,202.277 71.513,201.834 72.514 C 201.392 73.515,201.070 74.333,201.119 74.333 C 201.168 74.333,201.130 74.427,201.034 74.542 C 200.836 74.781,200.140 76.458,200.083 76.833 C 200.035 77.146,199.569 78.272,199.245 78.859 C 198.752 79.750,198.857 79.833,200.474 79.833 C 202.138 79.833,202.602 79.544,202.670 78.461 C 202.675 78.394,202.901 77.869,203.172 77.294 C 203.444 76.720,203.666 76.119,203.667 75.958 C 203.667 75.798,203.734 75.667,203.815 75.667 C 203.897 75.667,204.012 75.460,204.071 75.208 C 204.130 74.956,204.260 74.544,204.359 74.292 L 204.540 73.833 209.417 73.833 C 213.918 73.833,214.301 73.856,214.381 74.125 C 214.465 74.411,215.304 76.679,215.629 77.500 C 215.719 77.729,215.791 77.954,215.789 78.000 C 215.774 78.266,216.552 79.516,216.823 79.661 C 217.528 80.038,219.849 79.878,219.763 79.458 C 219.652 78.918,219.001 77.287,218.798 77.042 C 218.703 76.927,218.668 76.833,218.719 76.833 C 218.770 76.833,218.587 76.336,218.312 75.729 C 218.036 75.122,217.619 74.091,217.385 73.438 C 217.150 72.784,216.824 71.950,216.659 71.583 C 216.304 70.794,215.433 68.770,215.149 68.074 C 215.039 67.804,214.923 67.450,214.892 67.287 C 214.860 67.124,214.725 66.729,214.591 66.409 C 214.457 66.089,214.338 65.772,214.325 65.705 C 214.313 65.638,214.203 65.396,214.081 65.167 C 213.765 64.573,213.266 63.404,212.855 62.292 C 211.953 59.854,211.766 59.400,211.568 59.167 C 211.353 58.912,211.333 58.849,211.333 58.429 C 211.333 57.790,208.317 57.238,207.778 57.778 M223.000 68.731 L 223.000 79.833 224.417 79.833 L 225.833 79.833 225.833 71.571 C 225.833 64.955,225.875 63.354,226.042 63.531 C 226.660 64.188,227.834 65.656,227.838 65.777 C 227.840 65.854,228.121 66.223,228.463 66.597 C 228.804 66.970,229.233 67.485,229.417 67.740 C 229.600 67.995,229.825 68.289,229.917 68.393 C 230.008 68.498,230.290 68.883,230.542 69.250 C 230.794 69.617,231.303 70.254,231.674 70.667 C 232.044 71.079,232.459 71.623,232.595 71.875 C 232.731 72.127,232.915 72.333,233.004 72.333 C 233.094 72.333,233.148 72.404,233.125 72.490 C 233.088 72.629,233.932 73.717,234.699 74.520 C 234.855 74.683,235.097 75.038,235.238 75.310 C 235.378 75.582,235.692 75.961,235.936 76.152 C 236.179 76.343,236.324 76.500,236.258 76.500 C 236.138 76.500,236.862 77.459,237.453 78.083 C 237.627 78.267,237.774 78.481,237.782 78.560 C 237.843 79.237,238.888 79.833,240.014 79.833 L 241.167 79.833 241.167 68.744 L 241.167 57.654 239.708 57.702 L 238.250 57.750 238.250 65.937 C 238.250 71.329,238.193 74.101,238.083 74.057 C 237.992 74.020,237.617 73.568,237.250 73.054 C 236.883 72.539,236.377 71.910,236.125 71.655 C 235.873 71.401,235.667 71.112,235.667 71.014 C 235.667 70.916,235.517 70.742,235.333 70.628 C 235.150 70.513,235.000 70.328,235.000 70.216 C 235.000 70.103,234.780 69.765,234.512 69.464 C 234.244 69.163,233.629 68.392,233.147 67.750 C 232.665 67.108,232.209 66.558,232.135 66.528 C 232.061 66.497,232.000 66.394,232.000 66.298 C 232.000 66.138,231.405 65.391,230.436 64.333 C 230.226 64.104,229.809 63.523,229.510 63.042 C 229.210 62.560,228.913 62.167,228.848 62.167 C 228.738 62.167,227.940 61.147,227.294 60.182 C 227.136 59.944,226.816 59.525,226.585 59.250 C 226.354 58.975,225.980 58.528,225.754 58.256 C 225.384 57.810,225.230 57.755,224.172 57.695 L 223.000 57.629 223.000 68.731 M247.002 68.750 L 247.009 79.833 248.588 79.833 L 250.167 79.833 250.167 74.833 L 250.167 69.833 250.989 69.833 C 252.338 69.833,252.983 70.266,254.583 72.246 C 255.201 73.010,256.398 74.355,257.292 75.290 C 257.498 75.505,257.667 75.724,257.667 75.775 C 257.667 75.826,257.964 76.179,258.327 76.559 C 259.091 77.358,259.697 78.033,260.594 79.085 L 261.232 79.833 263.033 79.833 C 265.225 79.833,265.215 79.943,263.223 77.624 C 262.338 76.593,261.519 75.637,261.404 75.500 C 261.290 75.362,260.889 74.928,260.515 74.535 C 260.140 74.142,259.833 73.767,259.833 73.702 C 259.833 73.637,259.377 73.096,258.820 72.500 C 258.263 71.904,257.684 71.229,257.534 71.000 C 257.124 70.375,256.669 69.860,255.790 69.028 C 255.039 68.317,255.013 68.263,255.290 68.000 C 255.796 67.521,258.209 64.847,258.465 64.482 C 258.599 64.290,259.018 63.815,259.396 63.425 C 260.432 62.359,262.051 60.584,262.333 60.205 C 262.471 60.020,262.977 59.446,263.458 58.930 C 264.663 57.636,264.645 57.611,262.580 57.701 L 260.826 57.777 259.705 58.959 C 257.932 60.826,255.833 63.135,255.833 63.218 C 255.833 63.260,255.552 63.585,255.208 63.941 C 254.865 64.297,254.098 65.129,253.505 65.791 C 252.379 67.047,251.878 67.333,250.808 67.333 L 250.167 67.333 250.167 62.500 L 250.167 57.667 248.581 57.667 L 246.996 57.667 247.002 68.750 M290.261 57.816 C 290.142 58.009,290.374 58.443,291.520 60.171 C 292.036 60.948,292.510 61.752,292.573 61.958 C 292.637 62.165,292.759 62.333,292.845 62.333 C 292.930 62.333,293.000 62.414,293.000 62.512 C 293.000 62.610,293.475 63.416,294.056 64.304 C 294.636 65.191,295.161 66.029,295.221 66.167 C 295.282 66.304,295.425 66.565,295.541 66.746 C 295.656 66.928,296.162 67.724,296.667 68.515 C 298.320 71.111,298.189 70.508,298.172 75.448 L 298.157 79.833 299.828 79.833 L 301.500 79.833 301.500 75.491 L 301.500 71.148 302.161 70.033 C 302.525 69.419,302.883 68.842,302.956 68.750 C 303.190 68.459,304.833 65.855,304.833 65.776 C 304.833 65.653,306.162 63.504,306.683 62.784 C 306.949 62.417,307.167 62.041,307.167 61.949 C 307.167 61.857,307.354 61.536,307.583 61.235 C 307.813 60.935,308.000 60.640,308.000 60.580 C 308.000 60.520,308.375 59.929,308.833 59.266 C 309.952 57.648,309.960 57.667,308.106 57.667 C 306.279 57.667,305.928 57.851,305.317 59.126 C 305.109 59.561,304.813 60.104,304.661 60.333 C 303.414 62.204,303.167 62.612,303.167 62.793 C 303.167 62.907,303.110 63.000,303.042 63.001 C 302.973 63.001,302.778 63.338,302.608 63.751 C 302.439 64.163,302.233 64.500,302.150 64.500 C 302.068 64.500,302.000 64.576,302.000 64.670 C 302.000 64.763,301.800 65.157,301.555 65.545 C 301.310 65.933,301.123 66.269,301.138 66.292 C 301.154 66.315,301.027 66.473,300.856 66.644 C 300.685 66.815,300.409 67.389,300.242 67.919 C 300.011 68.653,299.911 68.808,299.823 68.567 C 299.760 68.393,299.741 68.194,299.781 68.125 C 299.820 68.056,299.774 68.000,299.677 68.000 C 299.579 68.000,299.500 67.855,299.500 67.679 C 299.500 67.502,299.387 67.245,299.250 67.107 C 299.112 66.970,299.000 66.788,299.000 66.704 C 299.000 66.620,298.850 66.416,298.667 66.250 C 298.483 66.084,298.333 65.882,298.333 65.802 C 298.333 65.621,296.832 62.949,296.665 62.833 C 296.599 62.788,296.492 62.581,296.428 62.375 C 296.364 62.169,296.248 62.000,296.171 62.000 C 296.095 62.000,295.756 61.466,295.418 60.814 C 294.285 58.624,293.738 57.889,293.155 57.773 C 292.365 57.615,290.367 57.645,290.261 57.816 M316.294 58.542 C 316.067 59.023,315.786 59.717,315.669 60.083 C 315.552 60.450,315.396 60.827,315.321 60.922 C 315.247 61.016,315.152 61.279,315.111 61.505 C 315.069 61.731,314.840 62.343,314.601 62.864 C 314.362 63.386,314.167 63.864,314.167 63.927 C 314.167 63.991,313.941 64.502,313.665 65.063 C 313.389 65.624,313.130 66.252,313.091 66.459 C 313.051 66.666,312.961 66.928,312.889 67.042 C 312.818 67.157,312.746 67.337,312.730 67.443 C 312.714 67.550,312.168 68.880,311.517 70.400 C 310.866 71.920,310.333 73.247,310.333 73.348 C 310.333 73.450,310.224 73.769,310.091 74.058 C 309.958 74.347,309.703 74.958,309.525 75.417 C 309.348 75.875,309.007 76.676,308.768 77.198 C 308.529 77.719,308.333 78.223,308.333 78.319 C 308.333 78.414,308.184 78.738,308.001 79.038 C 307.518 79.830,307.523 79.833,309.224 79.833 C 310.821 79.833,311.288 79.648,311.394 78.973 C 311.413 78.850,311.557 78.495,311.714 78.183 C 311.871 77.871,312.000 77.545,312.000 77.458 C 312.000 77.371,312.105 77.064,312.234 76.775 C 312.362 76.486,312.674 75.706,312.927 75.042 L 313.386 73.833 318.173 73.833 C 323.376 73.833,323.128 73.786,323.455 74.833 C 323.555 75.154,323.985 76.242,324.411 77.250 C 324.837 78.258,325.206 79.183,325.230 79.305 C 325.310 79.714,325.741 79.828,327.208 79.831 C 328.799 79.834,328.861 79.786,328.433 78.901 C 327.773 77.536,327.208 76.083,327.337 76.083 C 327.366 76.083,327.286 75.896,327.159 75.667 C 327.033 75.438,326.945 75.194,326.965 75.125 C 326.984 75.056,326.925 75.000,326.833 75.000 C 326.742 75.000,326.667 74.849,326.667 74.664 C 326.667 74.480,326.597 74.199,326.512 74.039 C 326.427 73.880,326.208 73.412,326.026 73.000 C 325.844 72.587,325.539 71.898,325.348 71.467 C 325.156 71.037,325.000 70.581,325.000 70.454 C 325.000 70.326,324.944 70.166,324.875 70.097 C 324.806 70.028,324.744 69.922,324.736 69.861 C 324.720 69.733,324.411 68.940,324.141 68.333 C 324.039 68.104,323.898 67.767,323.828 67.583 C 323.758 67.400,323.439 66.612,323.119 65.833 C 322.799 65.054,322.482 64.229,322.414 64.000 C 322.287 63.569,321.092 60.715,320.425 59.250 C 320.217 58.792,319.993 58.248,319.928 58.042 C 319.818 57.688,319.722 57.667,318.258 57.667 L 316.706 57.667 316.294 58.542 M331.833 68.745 L 331.833 79.833 333.417 79.833 L 335.000 79.833 335.000 75.347 L 335.000 70.860 336.279 70.805 C 337.985 70.732,338.275 70.901,339.533 72.709 C 340.111 73.538,340.715 74.335,340.875 74.479 C 341.035 74.623,341.167 74.806,341.167 74.885 C 341.167 74.965,341.504 75.425,341.917 75.908 C 342.329 76.391,342.667 76.830,342.667 76.885 C 342.667 77.077,343.647 78.427,344.293 79.125 L 344.949 79.833 346.641 79.833 C 348.396 79.833,348.707 79.685,348.066 79.153 C 347.920 79.031,347.538 78.515,347.218 78.007 C 346.898 77.499,346.546 77.008,346.435 76.917 C 346.325 76.825,345.683 76.000,345.008 75.083 C 344.333 74.167,343.717 73.392,343.640 73.361 C 343.563 73.331,343.500 73.227,343.500 73.131 C 343.500 73.035,343.234 72.648,342.908 72.270 C 342.098 71.329,342.000 71.199,342.000 71.059 C 342.000 70.993,341.854 70.783,341.676 70.594 L 341.353 70.249 342.701 69.587 C 348.277 66.850,347.470 59.118,341.500 58.090 C 339.526 57.750,338.633 57.689,335.412 57.673 L 331.833 57.656 331.833 68.745 M351.875 57.777 C 351.711 57.843,351.667 60.215,351.667 68.853 L 351.667 79.845 353.292 79.798 L 354.917 79.750 354.963 69.083 C 354.988 63.217,354.968 58.248,354.918 58.042 C 354.829 57.675,352.607 57.482,351.875 57.777 M366.763 57.958 C 366.712 58.119,366.676 58.317,366.683 58.398 C 366.690 58.479,366.628 58.592,366.546 58.648 C 366.381 58.761,365.636 60.508,364.833 62.667 C 364.543 63.446,364.166 64.383,363.996 64.750 C 363.826 65.117,363.565 65.717,363.416 66.083 C 363.266 66.450,363.078 66.900,362.997 67.083 C 362.916 67.267,362.739 67.754,362.602 68.167 C 362.466 68.579,362.046 69.629,361.669 70.500 C 361.292 71.371,360.808 72.533,360.594 73.083 C 359.011 77.147,358.195 79.170,357.991 79.542 C 357.843 79.810,357.955 79.833,359.403 79.833 C 361.232 79.833,361.310 79.786,361.827 78.375 C 362.020 77.848,362.225 77.304,362.283 77.167 C 362.341 77.029,362.397 76.879,362.407 76.833 C 362.418 76.787,362.687 76.094,363.005 75.292 L 363.583 73.835 368.443 73.834 L 373.303 73.833 373.637 74.792 C 373.821 75.319,374.230 76.360,374.546 77.105 C 374.862 77.849,375.168 78.650,375.227 78.885 C 375.431 79.697,375.735 79.833,377.345 79.833 C 379.111 79.833,379.069 79.938,378.153 77.822 C 377.779 76.957,377.453 76.175,377.429 76.083 C 377.205 75.229,377.108 75.000,376.972 75.000 C 376.885 75.000,376.854 74.934,376.904 74.854 C 376.954 74.773,376.892 74.492,376.767 74.229 C 376.231 73.102,374.813 69.662,374.751 69.337 C 374.713 69.142,374.566 68.750,374.425 68.466 C 374.283 68.181,374.167 67.857,374.167 67.745 C 374.167 67.633,374.052 67.446,373.913 67.330 C 373.773 67.214,373.695 67.082,373.740 67.038 C 373.785 66.993,373.734 66.797,373.627 66.603 C 373.520 66.409,373.417 66.155,373.397 66.039 C 373.378 65.922,373.131 65.333,372.848 64.728 C 372.565 64.124,372.333 63.492,372.333 63.324 C 372.333 63.157,372.258 62.973,372.167 62.917 C 372.075 62.860,372.000 62.709,372.000 62.581 C 372.000 62.453,371.784 61.876,371.520 61.299 C 371.256 60.722,370.796 59.669,370.498 58.958 L 369.955 57.667 368.405 57.667 C 367.076 57.667,366.843 57.708,366.763 57.958 M382.002 68.750 L 381.996 79.833 383.581 79.833 L 385.167 79.833 385.167 74.917 L 385.167 70.000 391.083 70.000 L 397.000 70.000 397.000 74.917 L 397.000 79.833 398.500 79.833 L 400.000 79.833 400.000 68.750 L 400.000 57.667 398.500 57.667 L 397.000 57.667 397.000 62.583 L 397.000 67.500 391.083 67.500 L 385.167 67.500 385.167 62.583 L 385.167 57.667 383.588 57.667 L 382.009 57.667 382.002 68.750 M190.300 60.494 C 191.901 60.797,193.223 61.820,193.298 62.812 C 193.471 65.096,192.820 66.664,191.577 66.954 C 191.489 66.975,191.117 67.103,190.750 67.238 C 190.266 67.418,189.342 67.487,187.375 67.493 L 184.667 67.500 184.667 63.917 L 184.667 60.333 187.061 60.333 C 188.377 60.333,189.835 60.405,190.300 60.494 M339.686 60.512 C 340.179 60.611,340.658 60.709,340.750 60.730 C 341.287 60.854,343.145 62.167,342.783 62.167 C 342.728 62.167,342.788 62.416,342.915 62.721 C 343.220 63.451,343.261 64.955,342.993 65.583 C 342.876 65.858,342.790 66.135,342.803 66.197 C 342.843 66.396,341.295 67.670,340.889 67.772 C 340.675 67.826,340.500 67.924,340.500 67.990 C 340.500 68.157,340.409 68.166,337.542 68.274 L 335.000 68.370 335.000 64.351 L 335.000 60.333 336.894 60.333 C 337.936 60.333,339.192 60.414,339.686 60.512 M209.854 62.542 C 210.055 63.206,210.301 63.805,210.401 63.872 C 210.501 63.940,210.518 63.996,210.438 63.997 C 210.358 63.999,210.386 64.112,210.500 64.250 C 210.614 64.387,210.658 64.500,210.598 64.500 C 210.538 64.500,210.582 64.669,210.697 64.875 C 210.811 65.081,210.914 65.287,210.925 65.333 C 211.047 65.835,212.085 68.259,212.217 68.352 C 212.297 68.408,212.349 68.504,212.333 68.565 C 212.277 68.784,212.900 70.586,213.073 70.706 C 213.170 70.773,213.191 70.829,213.119 70.831 C 213.047 70.832,213.067 70.981,213.164 71.161 C 213.335 71.482,213.257 71.489,209.358 71.536 L 205.378 71.583 205.555 71.167 C 205.652 70.938,205.782 70.675,205.844 70.583 C 206.010 70.338,206.407 69.104,206.367 68.958 C 206.349 68.890,206.398 68.833,206.477 68.833 C 206.618 68.833,206.805 68.369,207.416 66.500 C 207.581 65.996,207.771 65.508,207.838 65.417 C 207.904 65.325,208.015 65.069,208.083 64.848 C 208.151 64.627,208.324 64.177,208.468 63.848 C 208.612 63.519,208.739 63.212,208.749 63.167 C 208.803 62.937,209.417 61.333,209.451 61.333 C 209.473 61.333,209.654 61.877,209.854 62.542 M319.002 63.417 C 319.213 63.967,319.492 64.581,319.622 64.783 C 319.753 64.984,319.853 65.191,319.844 65.242 C 319.819 65.385,320.034 66.229,320.143 66.417 C 320.197 66.508,320.253 66.662,320.267 66.757 C 320.282 66.853,320.446 67.266,320.632 67.674 C 320.818 68.082,320.980 68.472,320.992 68.539 C 321.005 68.606,321.126 68.928,321.263 69.255 C 321.400 69.582,321.658 70.221,321.837 70.675 L 322.162 71.500 318.242 71.500 L 314.322 71.500 314.522 71.125 C 314.633 70.919,314.712 70.732,314.699 70.710 C 314.661 70.645,315.922 67.346,316.850 65.083 C 316.963 64.808,317.068 64.546,317.084 64.500 C 317.099 64.454,317.158 64.304,317.213 64.167 C 317.269 64.029,317.518 63.330,317.766 62.613 L 318.218 61.310 318.419 61.863 C 318.529 62.168,318.792 62.867,319.002 63.417 M368.667 61.802 C 368.667 62.147,369.256 63.722,369.571 64.220 C 369.697 64.420,369.854 64.846,369.920 65.167 C 369.985 65.487,370.124 65.855,370.228 65.984 C 370.332 66.113,370.385 66.225,370.345 66.234 C 370.250 66.255,370.850 67.873,371.028 68.075 C 371.104 68.162,371.167 68.368,371.167 68.533 C 371.167 68.698,371.254 68.833,371.361 68.833 C 371.468 68.833,371.512 68.877,371.459 68.930 C 371.406 68.983,371.581 69.555,371.848 70.203 C 372.115 70.850,372.333 71.406,372.333 71.440 C 372.333 71.473,370.577 71.500,368.431 71.500 L 364.529 71.500 364.835 70.662 C 365.003 70.201,365.156 69.770,365.174 69.704 C 365.221 69.529,365.403 69.090,366.085 67.500 C 366.419 66.721,366.809 65.746,366.951 65.333 C 367.331 64.230,368.022 62.316,368.226 61.804 C 368.415 61.331,368.667 61.329,368.667 61.802 M192.153 70.355 C 192.392 70.418,192.780 70.722,193.458 71.379 C 194.397 72.289,194.412 74.306,193.490 75.657 C 192.639 76.904,192.156 77.037,188.041 77.154 L 184.666 77.250 184.666 73.629 L 184.667 70.008 187.542 69.962 C 190.111 69.922,190.682 69.970,192.153 70.355 M34.833 76.890 C 35.063 76.944,35.587 77.068,36.000 77.166 C 41.372 78.436,43.535 82.298,42.517 88.804 C 42.225 90.673,40.581 93.414,39.367 94.055 C 39.119 94.186,38.485 94.533,37.958 94.826 C 36.282 95.757,34.477 96.211,32.417 96.219 C 32.325 96.219,29.119 96.207,25.292 96.193 L 18.333 96.167 18.333 86.405 L 18.333 76.644 26.375 76.718 C 30.798 76.759,34.604 76.836,34.833 76.890 M246.583 88.175 C 245.535 88.330,244.200 88.650,243.917 88.815 C 243.739 88.918,243.630 88.946,243.281 88.979 C 243.161 88.991,242.899 89.153,242.698 89.340 C 242.497 89.527,242.333 89.630,242.333 89.570 C 242.333 89.423,241.252 90.248,240.370 91.068 C 239.213 92.143,237.471 95.215,237.756 95.677 C 237.800 95.747,237.769 95.830,237.687 95.861 C 237.606 95.892,237.477 96.517,237.400 97.250 C 236.851 102.534,238.316 106.439,241.712 108.748 C 242.614 109.361,244.171 110.181,244.377 110.151 C 244.399 110.148,244.529 110.182,244.667 110.227 C 245.827 110.606,250.667 110.698,251.302 110.353 C 251.515 110.238,251.852 110.112,252.052 110.075 C 253.521 109.798,256.639 107.485,257.359 106.138 C 258.969 103.132,259.243 102.147,259.229 99.417 C 259.193 92.020,253.687 87.125,246.583 88.175 M311.000 88.164 C 309.441 88.378,308.152 88.837,307.643 89.358 C 307.381 89.626,307.167 89.805,307.167 89.756 C 307.167 89.319,305.605 91.563,305.372 92.333 C 304.736 94.445,305.205 96.831,306.487 98.000 C 307.875 99.267,308.270 99.474,310.938 100.335 C 313.814 101.264,314.045 101.369,314.766 102.091 C 315.529 102.854,315.894 103.920,315.638 104.636 C 315.562 104.848,315.500 105.204,315.500 105.428 C 315.500 105.651,315.421 105.833,315.323 105.833 C 315.226 105.833,315.186 105.897,315.234 105.974 C 315.330 106.130,314.695 106.760,313.917 107.281 C 312.437 108.272,309.612 108.148,308.031 107.022 C 307.757 106.827,307.450 106.667,307.349 106.667 C 307.249 106.667,307.167 106.594,307.167 106.504 C 307.167 106.269,306.255 105.833,305.763 105.833 C 305.393 105.833,304.167 107.250,304.167 107.677 C 304.167 107.876,306.302 109.500,306.563 109.500 C 306.712 109.500,306.833 109.569,306.833 109.654 C 306.833 109.778,307.642 110.137,308.208 110.264 C 308.277 110.279,308.352 110.307,308.375 110.326 C 308.685 110.583,312.560 110.659,313.583 110.428 C 318.391 109.343,320.480 103.089,317.136 99.792 C 316.602 99.265,316.042 98.833,315.892 98.833 C 315.742 98.833,315.274 98.673,314.852 98.477 C 313.972 98.070,313.732 97.976,312.583 97.586 C 312.125 97.431,311.300 97.096,310.750 96.843 C 310.200 96.589,309.600 96.333,309.417 96.274 C 308.008 95.822,307.791 93.306,309.044 91.961 C 309.924 91.018,310.519 90.803,312.167 90.835 C 313.858 90.867,314.247 91.000,316.120 92.186 C 316.852 92.648,317.169 92.497,317.812 91.378 L 318.360 90.423 317.953 90.086 C 316.675 89.033,316.149 88.764,314.667 88.409 C 314.621 88.398,314.396 88.343,314.167 88.287 C 313.385 88.094,311.918 88.037,311.000 88.164 M181.540 99.375 L 181.583 110.417 183.167 110.417 L 184.750 110.417 184.793 99.375 L 184.836 88.333 183.167 88.333 L 181.498 88.333 181.540 99.375 M190.667 99.375 L 190.667 110.417 192.042 110.390 L 193.417 110.363 193.500 102.056 C 193.557 96.418,193.637 93.836,193.750 94.019 C 193.919 94.292,194.678 95.259,195.208 95.878 C 195.369 96.065,195.501 96.262,195.503 96.317 C 195.505 96.409,196.168 97.231,196.723 97.833 C 196.850 97.971,197.404 98.700,197.953 99.455 C 198.502 100.209,199.000 100.778,199.059 100.719 C 199.118 100.660,199.167 100.698,199.167 100.804 C 199.167 101.012,200.063 102.245,200.850 103.121 C 201.116 103.416,201.333 103.696,201.333 103.743 C 201.333 103.887,203.190 106.246,203.350 106.306 C 203.432 106.336,203.500 106.433,203.500 106.521 C 203.500 106.609,203.690 106.884,203.922 107.132 C 204.154 107.380,204.682 108.081,205.095 108.688 C 206.200 110.315,206.315 110.391,207.671 110.405 L 208.833 110.417 208.833 99.375 L 208.833 88.333 207.329 88.333 L 205.824 88.333 205.870 96.578 L 205.917 104.823 205.500 104.288 C 205.271 103.994,204.952 103.621,204.792 103.460 C 204.631 103.299,204.500 103.118,204.500 103.059 C 204.500 102.927,203.393 101.541,202.921 101.083 C 202.732 100.900,202.371 100.412,202.118 100.000 C 201.717 99.347,201.302 98.814,199.817 97.042 C 199.644 96.835,199.532 96.667,199.569 96.667 C 199.637 96.667,198.984 95.866,198.478 95.328 C 198.328 95.169,197.891 94.575,197.506 94.009 C 197.122 93.443,196.700 92.939,196.570 92.889 C 196.440 92.839,196.333 92.728,196.333 92.642 C 196.333 92.556,196.257 92.395,196.163 92.285 C 196.070 92.174,195.801 91.858,195.567 91.583 C 195.332 91.308,194.957 90.801,194.733 90.456 C 193.531 88.602,193.160 88.333,191.809 88.333 L 190.667 88.333 190.667 99.375 M214.667 99.375 L 214.667 110.417 219.625 110.392 C 225.491 110.362,226.202 110.288,227.833 109.530 C 229.113 108.936,230.319 108.147,230.965 107.482 C 231.899 106.521,232.000 106.395,232.000 106.194 C 232.000 106.087,232.075 106.000,232.167 106.000 C 232.258 106.000,232.333 105.897,232.333 105.770 C 232.333 105.644,232.443 105.449,232.578 105.338 C 232.713 105.226,232.810 105.086,232.794 105.026 C 232.778 104.966,232.884 104.692,233.031 104.417 C 233.863 102.850,234.338 99.675,234.027 97.750 C 233.319 93.365,231.369 90.778,227.417 88.979 C 226.408 88.520,224.110 88.334,219.458 88.334 L 214.667 88.333 214.667 99.375 M263.667 99.375 L 263.666 110.417 265.125 110.385 L 266.583 110.354 266.583 102.084 L 266.583 93.815 267.208 94.526 C 267.552 94.918,267.833 95.292,267.833 95.357 C 267.833 95.423,267.929 95.575,268.047 95.696 C 268.302 95.960,269.765 97.807,270.287 98.526 C 271.139 99.699,271.439 100.073,271.856 100.484 C 272.097 100.722,272.409 101.142,272.549 101.417 C 272.690 101.692,273.046 102.179,273.341 102.500 C 273.636 102.821,274.299 103.646,274.816 104.333 C 275.776 105.612,276.976 107.155,277.473 107.750 C 277.626 107.933,278.088 108.547,278.500 109.114 C 279.387 110.333,279.602 110.447,280.917 110.399 L 281.917 110.363 281.960 99.348 L 282.002 88.333 280.496 88.333 L 278.989 88.333 279.036 96.500 C 279.062 100.992,279.049 104.667,279.007 104.667 C 278.847 104.667,277.502 103.102,277.409 102.808 C 277.355 102.639,277.241 102.500,277.155 102.500 C 277.070 102.500,277.000 102.426,277.000 102.335 C 277.000 102.127,276.464 101.465,275.116 100.008 C 274.823 99.692,274.692 99.499,274.824 99.580 C 275.227 99.825,273.963 98.224,272.840 97.066 C 272.653 96.873,272.500 96.663,272.500 96.600 C 272.500 96.433,271.308 94.855,270.606 94.092 C 270.273 93.731,270.000 93.386,270.000 93.326 C 270.000 93.267,269.869 93.063,269.708 92.874 C 269.548 92.686,269.304 92.363,269.167 92.158 C 269.029 91.952,268.712 91.570,268.463 91.307 C 268.213 91.045,267.753 90.431,267.441 89.943 C 266.568 88.578,266.167 88.333,264.811 88.333 L 263.667 88.333 263.667 99.375 M287.707 99.341 L 287.750 110.338 294.688 110.377 L 301.627 110.417 301.635 109.125 L 301.644 107.833 296.322 107.833 L 291.000 107.833 291.000 104.250 L 291.000 100.667 295.247 100.667 L 299.494 100.667 299.590 100.283 C 299.643 100.072,299.663 99.490,299.635 98.991 L 299.583 98.083 295.292 98.039 L 291.000 97.994 291.000 94.497 L 291.000 91.000 296.125 90.997 C 302.046 90.994,301.699 91.085,301.633 89.568 L 301.583 88.417 294.624 88.380 L 287.664 88.344 287.707 99.341 M323.207 99.375 L 323.250 110.417 324.875 110.464 L 326.500 110.512 326.500 99.423 L 326.500 88.333 324.832 88.333 L 323.164 88.333 323.207 99.375 M338.087 89.042 C 337.924 89.431,337.765 89.862,337.734 90.000 C 337.703 90.138,337.295 91.112,336.826 92.167 C 336.358 93.221,335.956 94.158,335.933 94.250 C 335.911 94.342,335.760 94.717,335.598 95.083 C 335.435 95.450,335.278 95.862,335.247 96.000 C 335.217 96.138,335.177 96.269,335.159 96.292 C 335.140 96.315,335.115 96.390,335.102 96.458 C 335.064 96.670,334.646 97.709,334.247 98.583 C 333.551 100.108,333.298 100.707,333.269 100.896 C 333.253 100.999,333.194 101.158,333.138 101.250 C 333.081 101.342,332.764 102.139,332.435 103.021 C 332.105 103.904,331.722 104.842,331.585 105.105 C 331.448 105.368,331.335 105.715,331.334 105.875 C 331.334 106.035,331.276 106.167,331.206 106.167 C 331.092 106.167,330.552 107.493,330.493 107.917 C 330.480 108.008,330.370 108.271,330.248 108.500 C 330.127 108.729,329.909 109.235,329.765 109.625 L 329.503 110.333 330.654 110.333 C 331.288 110.333,331.920 110.377,332.059 110.430 C 332.549 110.618,333.754 108.523,334.367 106.417 C 334.474 106.050,334.660 105.602,334.781 105.421 C 334.901 105.240,335.000 104.959,335.000 104.796 C 335.000 104.519,335.318 104.500,339.959 104.500 L 344.919 104.500 345.109 104.958 C 345.213 105.210,345.349 105.637,345.410 105.905 C 345.472 106.174,345.667 106.695,345.844 107.062 C 346.022 107.429,346.167 107.828,346.167 107.948 C 346.167 108.068,346.233 108.167,346.314 108.167 C 346.394 108.167,346.543 108.494,346.644 108.894 C 346.989 110.264,347.198 110.384,349.199 110.353 L 350.481 110.333 350.005 109.013 C 349.545 107.739,349.274 107.076,348.705 105.833 C 348.559 105.513,348.427 105.212,348.414 105.167 C 348.355 104.972,347.981 104.057,347.833 103.750 C 347.745 103.567,347.475 102.854,347.233 102.167 C 346.990 101.479,346.642 100.579,346.460 100.167 C 345.705 98.460,344.828 96.344,344.768 96.083 C 344.645 95.548,343.937 93.833,343.839 93.833 C 343.775 93.833,343.721 93.740,343.719 93.625 C 343.718 93.510,343.405 92.689,343.025 91.800 C 342.645 90.911,342.333 90.104,342.333 90.006 C 342.333 89.909,342.258 89.699,342.167 89.539 C 342.075 89.380,341.927 89.044,341.838 88.792 C 341.675 88.334,341.674 88.333,340.029 88.333 L 338.384 88.333 338.087 89.042 M224.378 91.070 C 226.791 91.326,229.694 93.554,230.075 95.441 C 230.109 95.611,230.224 95.975,230.330 96.250 C 230.437 96.525,230.510 96.750,230.495 96.750 C 230.479 96.750,230.524 97.200,230.596 97.750 C 230.744 98.888,230.748 100.550,230.604 101.167 C 230.135 103.172,229.919 103.765,229.339 104.638 C 227.795 106.962,225.926 107.696,221.292 107.796 L 217.833 107.871 217.833 99.440 L 217.833 91.008 220.542 90.962 C 222.031 90.937,223.287 90.928,223.333 90.942 C 223.379 90.956,223.849 91.014,224.378 91.070 M250.213 91.076 C 252.443 91.411,254.879 93.752,255.423 96.083 C 255.444 96.175,255.553 96.587,255.665 96.999 C 255.941 98.015,255.894 101.663,255.600 102.140 C 255.534 102.246,255.455 102.464,255.423 102.624 C 255.302 103.232,255.248 103.419,255.167 103.500 C 255.121 103.546,254.936 103.872,254.756 104.225 C 253.618 106.459,251.230 107.750,248.234 107.750 L 246.219 107.750 244.651 106.972 C 242.691 105.999,242.319 105.610,241.330 103.500 C 240.184 101.054,240.339 96.158,241.611 94.654 C 241.733 94.509,241.833 94.314,241.833 94.221 C 241.833 94.128,241.982 93.918,242.163 93.754 C 242.344 93.590,242.456 93.397,242.412 93.325 C 242.367 93.254,242.575 93.044,242.874 92.859 C 243.172 92.674,243.569 92.386,243.755 92.219 C 244.990 91.113,247.502 90.668,250.213 91.076 M340.800 94.167 C 341.084 94.854,341.552 95.979,341.841 96.667 C 342.129 97.354,342.478 98.292,342.616 98.750 C 342.754 99.208,343.036 99.958,343.244 100.417 C 343.451 100.875,343.674 101.419,343.738 101.625 L 343.856 102.000 340.011 102.000 C 337.897 102.000,336.167 101.979,336.167 101.953 C 336.167 101.835,336.841 100.007,337.148 99.292 C 337.335 98.856,337.444 98.500,337.390 98.500 C 337.337 98.500,337.366 98.406,337.455 98.292 C 337.582 98.129,339.246 93.954,339.929 92.083 C 340.032 91.803,340.070 91.844,340.168 92.333 C 340.232 92.654,340.517 93.479,340.800 94.167 " stroke="none" fill="#04a49c" fill-rule="evenodd"></path><path id="path1" d="M156.333 0.500 C 156.333 0.775,156.413 1.000,156.510 1.000 C 156.608 1.000,156.664 0.831,156.635 0.625 C 156.595 0.332,156.656 0.261,156.917 0.299 C 157.191 0.339,157.206 0.317,157.000 0.176 C 156.556 -0.127,156.333 -0.019,156.333 0.500 M157.667 0.760 C 157.667 0.885,158.114 1.333,158.238 1.333 C 158.450 1.333,158.313 1.067,158.000 0.872 C 157.817 0.758,157.667 0.707,157.667 0.760 M158.467 1.347 C 158.389 1.578,159.291 2.098,159.466 1.923 C 159.511 1.878,159.406 1.788,159.232 1.723 C 159.059 1.657,158.833 1.493,158.732 1.357 C 158.574 1.147,158.535 1.145,158.467 1.347 M160.737 2.761 C 160.880 2.904,161.073 2.975,161.165 2.917 C 161.258 2.860,161.333 2.898,161.333 3.000 C 161.333 3.102,161.408 3.140,161.500 3.083 C 161.592 3.027,161.667 3.064,161.667 3.167 C 161.667 3.269,161.735 3.311,161.819 3.259 C 161.903 3.207,162.001 3.252,162.036 3.359 C 162.098 3.543,162.833 3.752,162.833 3.585 C 162.833 3.541,162.458 3.316,162.000 3.083 C 161.542 2.851,161.167 2.715,161.167 2.781 C 161.167 2.846,161.077 2.810,160.967 2.700 C 160.857 2.590,160.701 2.500,160.621 2.500 C 160.542 2.500,160.593 2.617,160.737 2.761 M156.249 3.276 C 156.294 3.337,156.245 3.488,156.141 3.614 C 156.038 3.739,156.001 3.890,156.060 3.948 C 156.118 4.007,156.167 3.964,156.167 3.851 C 156.167 3.739,156.235 3.689,156.319 3.741 C 156.493 3.849,156.459 3.389,156.283 3.255 C 156.219 3.206,156.204 3.216,156.249 3.276 M163.080 3.828 C 163.203 4.027,163.833 4.158,163.833 3.984 C 163.833 3.901,163.777 3.828,163.708 3.821 C 163.640 3.814,163.452 3.783,163.291 3.752 C 163.130 3.721,163.035 3.755,163.080 3.828 M178.744 3.843 C 178.699 3.917,178.749 4.031,178.856 4.098 C 178.985 4.177,179.007 4.146,178.919 4.004 C 178.831 3.861,178.864 3.817,179.018 3.871 C 179.163 3.921,179.230 4.134,179.197 4.434 C 179.133 5.014,179.407 4.797,179.560 4.146 C 179.662 3.711,178.982 3.458,178.744 3.843 M155.944 4.444 C 155.883 4.506,155.833 4.661,155.833 4.790 C 155.833 4.984,155.876 4.981,156.083 4.774 C 156.221 4.636,156.333 4.481,156.333 4.429 C 156.333 4.298,156.080 4.308,155.944 4.444 M175.750 4.566 L 175.250 4.783 175.789 4.766 C 176.086 4.757,176.365 4.656,176.409 4.542 C 176.509 4.284,176.388 4.289,175.750 4.566 M165.667 4.690 C 165.667 4.769,165.773 4.833,165.903 4.833 C 166.033 4.833,166.270 4.884,166.430 4.945 C 166.614 5.015,166.681 4.992,166.613 4.882 C 166.477 4.661,165.667 4.497,165.667 4.690 M155.762 5.364 C 155.121 7.391,154.955 8.167,155.163 8.167 C 155.257 8.167,155.345 7.998,155.359 7.792 C 155.373 7.585,155.392 7.326,155.402 7.215 C 155.412 7.104,155.508 6.926,155.614 6.819 C 155.720 6.713,155.768 6.523,155.719 6.396 C 155.671 6.270,155.722 6.167,155.833 6.167 C 155.954 6.167,155.992 6.054,155.929 5.888 C 155.870 5.735,155.908 5.557,156.012 5.492 C 156.151 5.407,156.152 5.344,156.017 5.260 C 155.915 5.197,155.800 5.244,155.762 5.364 M178.559 6.293 C 178.619 6.391,178.596 6.497,178.506 6.527 C 178.414 6.559,178.404 6.680,178.482 6.806 C 178.587 6.974,178.643 6.944,178.711 6.681 C 178.761 6.490,178.722 6.285,178.625 6.224 C 178.526 6.163,178.497 6.194,178.559 6.293 M154.833 8.396 C 154.833 8.431,154.714 8.750,154.569 9.105 C 154.350 9.638,154.346 9.707,154.548 9.500 C 154.791 9.250,155.084 8.333,154.920 8.333 C 154.872 8.333,154.833 8.362,154.833 8.396 M177.953 8.458 C 177.916 8.527,177.942 8.771,178.010 9.000 C 178.082 9.243,178.140 9.301,178.150 9.139 C 178.159 8.986,178.212 8.742,178.268 8.597 C 178.367 8.338,178.084 8.213,177.953 8.458 M153.830 10.591 C 153.706 10.908,153.539 11.167,153.459 11.167 C 153.379 11.167,153.360 11.242,153.417 11.333 C 153.473 11.425,153.603 11.500,153.704 11.500 C 153.806 11.500,153.840 11.451,153.780 11.391 C 153.720 11.331,153.823 11.037,154.008 10.738 C 154.193 10.438,154.279 10.153,154.200 10.104 C 154.121 10.055,153.955 10.274,153.830 10.591 M152.712 12.388 C 152.514 12.679,152.301 13.052,152.238 13.217 C 152.176 13.381,151.740 13.890,151.271 14.346 C 150.801 14.803,150.529 15.156,150.667 15.130 C 150.804 15.104,151.087 14.896,151.295 14.667 C 151.503 14.438,151.819 14.100,151.998 13.916 C 152.176 13.732,152.407 13.339,152.511 13.041 C 152.614 12.744,152.752 12.533,152.816 12.573 C 152.881 12.613,153.022 12.503,153.130 12.330 C 153.472 11.782,153.089 11.834,152.712 12.388 M177.914 17.211 C 178.110 17.966,178.350 18.733,178.446 18.917 C 178.543 19.100,178.588 19.344,178.547 19.458 C 178.504 19.577,178.604 19.666,178.778 19.664 C 179.009 19.662,179.029 19.627,178.861 19.520 C 178.738 19.443,178.650 19.330,178.665 19.270 C 178.712 19.080,178.467 18.090,178.330 17.917 C 178.257 17.825,178.145 17.396,178.081 16.964 C 178.016 16.531,177.872 16.101,177.760 16.008 C 177.628 15.899,177.683 16.325,177.914 17.211 M149.106 16.475 C 148.756 16.861,148.761 17.001,149.125 16.997 C 149.370 16.995,149.378 16.970,149.171 16.839 C 148.969 16.712,148.997 16.657,149.324 16.536 C 149.544 16.455,149.646 16.340,149.551 16.281 C 149.456 16.223,149.255 16.310,149.106 16.475 M147.568 17.750 C 147.301 17.979,147.163 18.166,147.260 18.166 C 147.436 18.167,148.167 17.557,148.167 17.410 C 148.167 17.268,148.054 17.332,147.568 17.750 M145.667 19.139 C 145.667 19.246,145.550 19.333,145.407 19.333 C 145.261 19.333,145.196 19.413,145.260 19.516 C 145.337 19.640,145.456 19.615,145.635 19.437 C 145.779 19.293,145.845 19.123,145.782 19.060 C 145.718 18.996,145.667 19.032,145.667 19.139 M145.013 19.789 C 144.997 20.041,146.615 20.886,146.737 20.688 C 146.870 20.473,146.667 20.344,146.373 20.456 C 146.202 20.522,146.153 20.490,146.231 20.364 C 146.307 20.241,146.264 20.204,146.113 20.261 C 145.982 20.312,145.829 20.229,145.770 20.076 C 145.711 19.922,145.558 19.839,145.426 19.890 C 145.295 19.940,145.152 19.892,145.107 19.782 C 145.046 19.633,145.023 19.634,145.013 19.789 M178.833 19.898 C 178.833 19.933,178.945 20.177,179.082 20.439 C 179.342 20.938,179.399 20.847,179.228 20.208 C 179.147 19.904,178.833 19.657,178.833 19.898 M147.031 20.814 C 146.886 20.904,146.950 21.000,147.245 21.134 C 147.688 21.336,147.818 21.166,147.453 20.863 C 147.335 20.766,147.145 20.743,147.031 20.814 M179.273 21.250 C 179.326 21.387,179.440 21.500,179.528 21.500 C 179.615 21.500,179.644 21.568,179.592 21.652 C 179.541 21.735,179.604 22.017,179.734 22.277 C 179.863 22.537,180.070 22.968,180.193 23.234 C 180.328 23.526,180.436 23.621,180.464 23.474 C 180.533 23.124,179.914 21.811,179.750 21.959 C 179.675 22.027,179.660 21.954,179.716 21.797 C 179.773 21.640,179.746 21.466,179.657 21.410 C 179.568 21.355,179.538 21.240,179.590 21.155 C 179.643 21.070,179.572 21.000,179.432 21.000 C 179.274 21.000,179.214 21.095,179.273 21.250 M149.167 21.805 C 149.167 21.999,150.667 22.722,150.797 22.592 C 150.841 22.548,150.660 22.417,150.397 22.301 C 150.133 22.185,149.862 22.014,149.794 21.920 C 149.727 21.827,149.671 21.815,149.669 21.895 C 149.668 21.975,149.554 21.947,149.417 21.833 C 149.256 21.700,149.167 21.690,149.167 21.805 M151.099 22.642 C 150.970 22.850,151.934 23.394,152.172 23.247 C 152.261 23.192,152.333 23.264,152.333 23.407 C 152.333 23.550,152.446 23.667,152.583 23.667 C 152.926 23.667,152.899 23.394,152.542 23.257 C 152.381 23.196,152.212 23.145,152.167 23.144 C 152.121 23.143,151.952 23.024,151.792 22.879 C 151.631 22.734,151.499 22.683,151.497 22.766 C 151.496 22.849,151.430 22.815,151.352 22.691 C 151.256 22.540,151.172 22.524,151.099 22.642 M152.901 23.859 C 152.831 23.971,152.855 24.007,152.957 23.943 C 153.053 23.884,153.179 23.958,153.236 24.108 C 153.294 24.258,153.388 24.334,153.446 24.276 C 153.503 24.219,153.655 24.302,153.782 24.461 C 153.998 24.731,154.010 24.728,153.959 24.417 C 153.927 24.222,153.785 24.093,153.619 24.106 C 153.462 24.119,153.333 24.025,153.333 23.898 C 153.333 23.618,153.065 23.593,152.901 23.859 M180.589 23.991 C 180.533 24.081,180.627 24.293,180.796 24.463 C 180.965 24.632,181.074 24.860,181.038 24.969 C 180.997 25.092,181.074 25.128,181.243 25.063 C 181.488 24.969,181.489 24.931,181.257 24.675 C 181.116 24.518,181.000 24.307,181.000 24.205 C 181.000 23.945,180.710 23.794,180.589 23.991 M155.242 25.800 C 155.393 26.103,155.645 26.397,155.800 26.454 C 155.956 26.511,156.143 26.658,156.217 26.779 C 156.290 26.901,156.427 27.000,156.520 27.000 C 156.614 27.000,156.573 26.882,156.429 26.738 C 156.285 26.594,156.167 26.394,156.167 26.294 C 156.167 26.193,156.121 26.157,156.065 26.213 C 156.009 26.268,155.739 26.075,155.465 25.782 L 154.966 25.250 155.242 25.800 M181.744 26.132 C 181.769 26.469,182.333 27.347,182.333 27.049 C 182.333 26.943,182.215 26.739,182.071 26.595 C 181.927 26.451,181.888 26.333,181.983 26.333 C 182.078 26.333,182.113 26.221,182.060 26.083 C 181.927 25.737,181.718 25.770,181.744 26.132 M179.127 27.285 C 179.334 27.324,179.634 27.323,179.794 27.281 C 179.953 27.239,179.783 27.207,179.417 27.209 C 179.050 27.211,178.920 27.245,179.127 27.285 M175.667 27.536 C 175.667 27.608,175.817 27.667,176.000 27.667 C 176.183 27.667,176.333 27.608,176.333 27.536 C 176.333 27.464,176.183 27.405,176.000 27.405 C 175.817 27.405,175.667 27.464,175.667 27.536 M157.338 28.674 C 157.610 29.136,157.833 29.586,157.833 29.674 C 157.833 29.762,157.913 29.833,158.010 29.833 C 158.107 29.833,158.144 29.902,158.092 29.987 C 158.040 30.071,158.097 30.240,158.220 30.363 C 158.343 30.486,158.415 30.671,158.381 30.774 C 158.347 30.877,158.431 31.074,158.568 31.211 C 158.705 31.348,158.784 31.507,158.743 31.565 C 158.703 31.622,158.762 31.591,158.875 31.494 C 159.006 31.383,159.021 31.277,158.915 31.201 C 158.824 31.136,158.725 30.971,158.695 30.833 C 158.665 30.696,158.534 30.465,158.403 30.320 C 158.273 30.175,158.213 30.010,158.269 29.953 C 158.326 29.896,158.252 29.728,158.103 29.579 C 157.955 29.431,157.833 29.202,157.833 29.071 C 157.833 28.940,157.767 28.833,157.687 28.833 C 157.606 28.833,157.447 28.608,157.333 28.333 C 157.219 28.058,157.062 27.833,156.984 27.833 C 156.906 27.833,157.065 28.212,157.338 28.674 M172.942 28.042 C 172.985 28.110,172.795 28.167,172.520 28.167 C 172.245 28.167,171.973 28.242,171.917 28.333 C 171.860 28.425,171.668 28.500,171.490 28.500 C 171.312 28.500,171.167 28.579,171.167 28.677 C 171.167 28.774,171.100 28.812,171.019 28.762 C 170.938 28.711,170.775 28.786,170.658 28.927 C 170.496 29.123,170.659 29.098,171.348 28.823 C 171.844 28.624,172.451 28.402,172.696 28.330 C 173.487 28.094,173.811 27.860,173.301 27.890 C 173.061 27.905,172.900 27.973,172.942 28.042 M168.714 29.749 C 168.251 30.061,167.814 30.264,167.743 30.200 C 167.671 30.136,167.667 30.176,167.732 30.290 C 167.825 30.452,167.930 30.446,168.217 30.264 C 168.418 30.136,168.869 29.882,169.218 29.698 C 169.567 29.515,169.786 29.324,169.705 29.273 C 169.623 29.223,169.177 29.437,168.714 29.749 M166.883 30.823 C 166.692 31.001,166.478 31.095,166.408 31.032 C 166.337 30.968,166.328 31.000,166.386 31.103 C 166.518 31.334,165.916 31.904,165.689 31.764 C 165.598 31.707,165.476 31.737,165.418 31.831 C 165.184 32.210,165.963 31.966,166.473 31.500 C 166.774 31.225,167.078 31.000,167.149 31.000 C 167.220 31.000,167.278 30.887,167.278 30.750 C 167.278 30.440,167.298 30.436,166.883 30.823 M159.426 33.375 C 159.636 34.063,159.841 34.290,159.765 33.750 C 159.726 33.475,159.688 33.194,159.680 33.125 C 159.673 33.056,159.587 33.000,159.489 33.000 C 159.381 33.000,159.356 33.149,159.426 33.375 M163.849 33.490 C 163.718 33.571,163.679 33.718,163.754 33.840 C 163.832 33.967,163.817 34.010,163.718 33.948 C 163.535 33.835,162.943 34.463,162.873 34.845 C 162.845 34.993,162.924 34.961,163.081 34.760 C 163.220 34.582,163.333 34.371,163.333 34.292 C 163.333 34.212,163.405 34.191,163.493 34.245 C 163.580 34.300,163.778 34.152,163.932 33.917 C 164.237 33.451,164.202 33.272,163.849 33.490 M160.001 35.170 C 160.080 35.446,160.144 35.726,160.143 35.791 C 160.142 35.855,160.224 35.923,160.325 35.942 C 160.439 35.962,160.443 35.943,160.336 35.890 C 160.242 35.843,160.205 35.740,160.254 35.660 C 160.375 35.465,160.165 34.667,159.994 34.667 C 159.918 34.667,159.922 34.893,160.001 35.170 M162.513 34.927 C 162.506 35.024,162.347 35.268,162.160 35.469 C 161.971 35.672,161.908 35.833,162.019 35.833 C 162.128 35.833,162.056 35.973,161.859 36.145 C 161.661 36.316,161.500 36.545,161.500 36.654 C 161.500 36.764,161.425 36.807,161.333 36.750 C 161.242 36.693,161.169 36.783,161.173 36.948 C 161.178 37.172,161.325 37.079,161.744 36.590 C 162.055 36.226,162.277 35.876,162.236 35.811 C 162.196 35.747,162.283 35.574,162.429 35.429 C 162.574 35.283,162.656 35.071,162.610 34.957 C 162.564 34.843,162.520 34.830,162.513 34.927 M160.431 37.060 C 160.488 37.210,160.621 37.334,160.726 37.336 C 160.831 37.337,160.804 37.411,160.667 37.500 C 160.451 37.639,160.456 37.662,160.698 37.664 C 161.065 37.667,161.184 37.462,160.992 37.159 C 160.907 37.026,160.837 36.982,160.836 37.062 C 160.834 37.142,160.719 37.113,160.580 36.997 C 160.367 36.821,160.343 36.831,160.431 37.060 M222.912 68.833 C 222.912 74.837,222.933 77.294,222.958 74.292 C 222.984 71.290,222.984 66.377,222.958 63.375 C 222.933 60.373,222.912 62.829,222.912 68.833 " stroke="none" fill="#fcac3c" fill-rule="evenodd"></path><path id="path2" d="M156.647 0.300 C 156.637 0.364,156.642 0.548,156.658 0.708 C 156.674 0.869,156.608 1.000,156.510 1.000 C 156.413 1.000,156.333 1.079,156.333 1.177 C 156.333 1.274,156.404 1.310,156.489 1.257 C 156.585 1.198,156.589 1.355,156.501 1.663 C 156.422 1.940,156.392 2.167,156.434 2.167 C 156.477 2.167,156.428 2.323,156.326 2.513 C 156.224 2.704,156.196 2.985,156.262 3.138 C 156.451 3.572,156.484 3.843,156.336 3.752 C 156.262 3.706,156.154 3.793,156.095 3.946 C 156.037 4.099,156.078 4.279,156.188 4.347 C 156.335 4.437,156.313 4.544,156.105 4.753 C 155.886 4.971,155.865 5.088,156.015 5.268 C 156.161 5.444,156.160 5.500,156.009 5.500 C 155.887 5.500,155.851 5.627,155.917 5.833 C 155.981 6.037,155.947 6.167,155.827 6.167 C 155.719 6.167,155.671 6.270,155.719 6.396 C 155.768 6.523,155.726 6.707,155.627 6.806 C 155.528 6.905,155.421 7.229,155.388 7.526 C 155.355 7.823,155.261 8.108,155.178 8.160 C 155.094 8.211,154.973 8.478,154.908 8.752 C 154.843 9.026,154.642 9.413,154.461 9.613 C 154.280 9.812,154.173 10.042,154.223 10.123 C 154.355 10.337,153.753 11.193,153.576 11.043 C 153.495 10.974,153.538 11.062,153.672 11.240 C 153.893 11.531,153.889 11.552,153.625 11.453 C 153.451 11.388,153.323 11.426,153.308 11.547 C 153.226 12.206,153.004 12.689,152.832 12.583 C 152.759 12.537,152.614 12.744,152.511 13.041 C 152.407 13.339,152.176 13.732,151.998 13.916 C 151.819 14.100,151.503 14.447,151.295 14.688 C 150.925 15.116,150.840 15.167,150.500 15.167 C 150.408 15.167,150.333 15.250,150.333 15.351 C 150.333 15.452,150.145 15.683,149.915 15.864 C 149.685 16.045,149.534 16.254,149.580 16.328 C 149.626 16.402,149.495 16.508,149.290 16.564 C 148.975 16.651,148.956 16.694,149.167 16.842 C 149.373 16.987,149.359 17.008,149.083 16.958 C 148.881 16.922,148.567 17.084,148.285 17.372 C 148.029 17.632,147.736 17.793,147.634 17.730 C 147.518 17.658,147.496 17.691,147.574 17.819 C 147.654 17.948,147.573 18.056,147.350 18.114 C 147.158 18.164,146.999 18.328,146.997 18.478 C 146.995 18.698,146.967 18.706,146.849 18.520 C 146.735 18.340,146.678 18.370,146.586 18.657 C 146.519 18.870,146.377 18.988,146.248 18.939 C 146.125 18.892,145.907 19.034,145.762 19.255 C 145.614 19.482,145.398 19.617,145.267 19.567 C 145.138 19.517,144.977 19.569,144.908 19.681 C 144.827 19.811,144.851 19.842,144.974 19.766 C 145.080 19.701,145.167 19.724,145.167 19.818 C 145.167 19.912,145.279 19.947,145.415 19.894 C 145.559 19.839,145.709 19.915,145.770 20.076 C 145.829 20.229,145.982 20.312,146.113 20.261 C 146.253 20.208,146.306 20.243,146.242 20.346 C 146.177 20.451,146.258 20.501,146.442 20.469 C 146.611 20.440,146.734 20.502,146.714 20.607 C 146.695 20.712,146.826 20.836,147.006 20.883 C 147.218 20.939,147.300 20.901,147.238 20.776 C 147.186 20.670,147.326 20.798,147.550 21.060 C 147.814 21.368,147.999 21.470,148.074 21.349 C 148.138 21.246,148.268 21.209,148.363 21.268 C 148.474 21.337,148.455 21.426,148.309 21.518 C 148.143 21.624,148.178 21.662,148.444 21.664 C 148.643 21.666,148.844 21.760,148.890 21.875 C 148.956 22.037,149.010 22.033,149.133 21.857 C 149.246 21.697,149.325 21.685,149.407 21.818 C 149.471 21.921,149.593 21.962,149.678 21.910 C 149.764 21.857,149.833 21.893,149.833 21.990 C 149.833 22.087,149.946 22.167,150.083 22.167 C 150.221 22.167,150.476 22.309,150.650 22.483 C 150.880 22.714,151.017 22.750,151.150 22.617 C 151.283 22.483,151.333 22.495,151.333 22.661 C 151.333 22.786,151.383 22.839,151.445 22.777 C 151.506 22.716,151.701 22.797,151.879 22.958 C 152.056 23.119,152.250 23.241,152.309 23.230 C 152.556 23.183,152.847 23.390,152.780 23.564 C 152.741 23.667,152.826 23.861,152.969 23.995 C 153.200 24.211,153.217 24.206,153.120 23.953 C 152.956 23.526,153.242 23.607,153.435 24.042 C 153.526 24.248,153.581 24.323,153.556 24.208 C 153.474 23.831,153.838 23.991,153.994 24.400 C 154.172 24.868,154.494 25.117,154.514 24.802 C 154.521 24.682,154.634 24.827,154.764 25.125 C 154.894 25.423,155.043 25.667,155.094 25.667 C 155.145 25.667,155.134 25.573,155.071 25.458 C 155.008 25.344,155.183 25.489,155.460 25.782 C 155.737 26.075,156.009 26.268,156.065 26.213 C 156.121 26.157,156.167 26.193,156.167 26.294 C 156.167 26.394,156.285 26.594,156.429 26.738 C 156.573 26.882,156.608 27.000,156.507 27.000 C 156.406 27.000,156.280 26.888,156.227 26.750 C 156.174 26.613,156.050 26.500,155.951 26.500 C 155.852 26.500,155.984 26.722,156.244 26.994 C 156.505 27.266,156.794 27.441,156.887 27.383 C 156.989 27.320,157.014 27.389,156.950 27.556 C 156.892 27.709,156.907 27.833,156.985 27.833 C 157.063 27.833,157.219 28.058,157.333 28.333 C 157.447 28.608,157.615 28.833,157.706 28.833 C 157.798 28.833,157.831 28.991,157.781 29.183 C 157.730 29.376,157.731 29.492,157.781 29.441 C 157.878 29.344,158.333 29.735,158.333 29.915 C 158.333 29.972,158.240 29.962,158.125 29.892 C 158.010 29.822,158.123 30.012,158.376 30.313 C 158.629 30.615,158.793 30.930,158.741 31.014 C 158.689 31.098,158.726 31.167,158.823 31.167 C 158.921 31.167,159.000 31.246,159.000 31.343 C 159.000 31.440,158.926 31.474,158.835 31.418 C 158.741 31.360,158.713 31.426,158.769 31.574 C 158.824 31.715,158.942 31.786,159.031 31.731 C 159.121 31.675,159.169 31.775,159.139 31.956 C 159.108 32.135,159.186 32.406,159.312 32.558 C 159.438 32.709,159.489 32.833,159.425 32.833 C 159.362 32.833,159.420 32.944,159.555 33.079 C 159.690 33.214,159.785 33.552,159.766 33.829 C 159.747 34.106,159.796 34.333,159.875 34.333 C 159.955 34.333,159.977 34.402,159.925 34.486 C 159.874 34.570,159.901 34.663,159.987 34.694 C 160.072 34.725,160.196 34.967,160.262 35.233 C 160.357 35.617,160.334 35.692,160.149 35.596 C 160.021 35.530,160.052 35.586,160.217 35.721 C 160.444 35.906,160.464 35.988,160.301 36.056 C 160.140 36.122,160.167 36.213,160.407 36.406 C 160.585 36.549,160.654 36.667,160.560 36.667 C 160.466 36.667,160.389 36.771,160.389 36.898 C 160.389 37.025,160.508 37.111,160.653 37.088 C 160.798 37.066,160.972 37.130,161.039 37.232 C 161.109 37.338,161.163 37.253,161.164 37.032 C 161.166 36.818,161.241 36.693,161.333 36.750 C 161.425 36.807,161.501 36.755,161.502 36.635 C 161.502 36.515,161.727 36.239,162.002 36.023 C 162.276 35.806,162.498 35.544,162.495 35.440 C 162.492 35.335,162.413 35.381,162.320 35.542 C 162.227 35.702,162.076 35.833,161.985 35.833 C 161.895 35.833,161.973 35.669,162.160 35.469 C 162.347 35.268,162.501 35.024,162.503 34.927 C 162.504 34.830,162.578 34.862,162.667 35.000 C 162.774 35.167,162.829 35.181,162.831 35.042 C 162.832 34.927,162.815 34.813,162.792 34.788 C 162.701 34.688,163.258 34.207,163.379 34.280 C 163.450 34.323,163.488 34.259,163.462 34.137 C 163.437 34.016,163.508 33.935,163.619 33.956 C 163.736 33.979,163.781 33.891,163.726 33.748 C 163.643 33.532,163.724 33.478,164.167 33.456 C 164.286 33.451,164.852 32.833,164.738 32.833 C 164.559 32.833,165.083 32.398,165.412 32.273 C 165.688 32.169,165.701 32.124,165.495 31.994 C 165.268 31.850,165.390 31.759,165.729 31.821 C 165.809 31.835,165.997 31.737,166.146 31.602 C 166.295 31.467,166.492 31.347,166.583 31.334 C 166.675 31.322,166.732 31.221,166.710 31.111 C 166.688 31.001,166.827 30.813,167.019 30.693 C 167.211 30.574,167.318 30.556,167.258 30.654 C 167.100 30.909,167.315 30.876,167.587 30.603 C 167.714 30.477,167.784 30.327,167.742 30.270 C 167.701 30.213,167.713 30.200,167.769 30.241 C 167.826 30.283,168.247 30.063,168.706 29.754 C 169.183 29.433,169.650 29.235,169.798 29.291 C 169.986 29.364,170.017 29.327,169.912 29.153 C 169.795 28.959,169.815 28.953,170.026 29.124 C 170.237 29.295,170.336 29.273,170.580 29.003 C 170.744 28.822,170.943 28.715,171.022 28.764 C 171.102 28.813,171.167 28.774,171.167 28.677 C 171.167 28.579,171.312 28.500,171.490 28.500 C 171.668 28.500,171.860 28.425,171.917 28.333 C 171.973 28.242,172.245 28.167,172.520 28.167 C 172.841 28.167,172.979 28.101,172.906 27.983 C 172.825 27.852,172.885 27.849,173.120 27.975 C 173.445 28.149,174.167 28.062,174.167 27.849 C 174.167 27.788,174.479 27.725,174.860 27.710 C 175.242 27.695,175.598 27.620,175.652 27.544 C 175.706 27.468,176.338 27.408,177.058 27.411 C 177.777 27.414,178.398 27.364,178.437 27.300 C 178.477 27.236,178.939 27.216,179.463 27.256 C 179.988 27.296,180.885 27.365,181.458 27.410 C 182.347 27.480,182.500 27.452,182.500 27.218 C 182.500 27.068,182.453 26.991,182.396 27.048 C 182.212 27.232,181.717 26.458,181.761 26.056 C 181.785 25.842,181.736 25.667,181.652 25.667 C 181.568 25.667,181.500 25.509,181.500 25.316 C 181.500 25.064,181.425 24.993,181.236 25.066 C 181.074 25.128,180.998 25.091,181.038 24.969 C 181.074 24.860,180.961 24.627,180.785 24.452 C 180.568 24.235,180.521 24.079,180.637 23.963 C 180.731 23.869,180.765 23.683,180.714 23.549 C 180.651 23.385,180.583 23.366,180.507 23.489 C 180.395 23.670,180.341 23.586,179.818 22.417 C 179.491 21.687,179.453 21.553,179.651 21.833 C 179.749 21.971,179.829 22.006,179.831 21.912 C 179.832 21.818,179.667 21.598,179.464 21.424 C 179.224 21.219,179.165 21.084,179.297 21.040 C 179.409 21.003,179.500 20.891,179.500 20.792 C 179.500 20.692,179.451 20.660,179.391 20.720 C 179.248 20.863,178.809 20.008,178.927 19.816 C 178.978 19.734,178.903 19.667,178.760 19.667 C 178.617 19.667,178.500 19.587,178.500 19.490 C 178.500 19.393,178.583 19.365,178.684 19.427 C 178.785 19.490,178.736 19.340,178.576 19.095 C 178.232 18.570,177.482 15.803,177.724 15.952 C 177.830 16.017,177.839 15.938,177.749 15.736 C 177.672 15.560,177.621 14.367,177.637 13.083 C 177.675 10.044,177.668 10.167,177.813 10.167 C 177.882 10.167,177.940 9.785,177.941 9.319 C 177.943 8.845,178.032 8.417,178.143 8.348 C 178.253 8.280,178.359 7.994,178.379 7.712 C 178.400 7.430,178.473 7.234,178.542 7.276 C 178.720 7.386,178.696 7.200,178.481 6.797 C 178.330 6.516,178.340 6.467,178.529 6.539 C 178.684 6.599,178.774 6.501,178.795 6.252 C 178.812 6.044,178.912 5.658,179.018 5.395 C 179.306 4.676,179.330 3.678,179.057 3.783 C 178.935 3.830,178.887 3.954,178.950 4.059 C 179.013 4.164,178.925 4.137,178.755 4.000 C 178.518 3.808,178.429 3.799,178.375 3.959 C 178.337 4.075,178.243 4.130,178.166 4.083 C 178.090 4.036,177.815 4.085,177.556 4.192 C 177.296 4.298,176.952 4.369,176.791 4.349 C 176.629 4.329,176.454 4.425,176.401 4.563 C 176.327 4.756,176.210 4.778,175.893 4.658 C 175.666 4.571,175.521 4.566,175.571 4.646 C 175.620 4.726,175.493 4.802,175.289 4.814 C 174.525 4.859,174.079 4.930,173.917 5.030 C 173.825 5.086,173.321 5.113,172.796 5.090 C 172.272 5.066,171.882 5.111,171.931 5.190 C 171.980 5.269,171.940 5.333,171.843 5.333 C 171.746 5.333,171.666 5.240,171.664 5.125 C 171.662 4.986,171.607 4.999,171.497 5.167 C 171.370 5.361,171.303 5.370,171.198 5.208 C 171.098 5.053,170.582 5.019,169.198 5.077 C 167.871 5.134,167.333 5.102,167.333 4.967 C 167.333 4.863,167.286 4.825,167.228 4.883 C 167.170 4.941,166.974 4.908,166.791 4.811 C 166.547 4.680,166.491 4.684,166.577 4.823 C 166.728 5.068,165.800 4.859,165.639 4.612 C 165.578 4.519,165.267 4.437,164.947 4.430 C 164.628 4.423,164.401 4.360,164.443 4.292 C 164.485 4.223,164.421 4.161,164.302 4.154 C 163.720 4.121,163.234 3.974,163.083 3.785 C 162.992 3.670,162.742 3.587,162.528 3.599 C 162.314 3.612,162.100 3.520,162.052 3.396 C 162.004 3.271,161.898 3.210,161.816 3.261 C 161.734 3.312,161.667 3.261,161.667 3.149 C 161.667 3.036,161.617 2.994,161.557 3.054 C 161.496 3.115,161.344 3.018,161.219 2.839 C 161.093 2.660,160.888 2.553,160.762 2.602 C 160.637 2.650,160.483 2.608,160.422 2.509 C 160.361 2.409,160.246 2.368,160.167 2.417 C 160.087 2.466,159.924 2.373,159.803 2.211 C 159.682 2.049,159.490 1.909,159.375 1.900 C 158.794 1.853,158.752 1.827,159.000 1.659 C 159.185 1.534,159.131 1.518,158.790 1.597 C 158.411 1.685,158.348 1.656,158.433 1.433 C 158.513 1.226,158.468 1.190,158.240 1.277 C 158.012 1.365,157.966 1.328,158.046 1.121 C 158.119 0.930,158.078 0.878,157.908 0.943 C 157.763 0.999,157.667 0.935,157.667 0.784 C 157.667 0.538,156.685 0.072,156.647 0.300 " stroke="none" fill="#f4b03c" fill-rule="evenodd"></path><path id="path3" d="M184.738 63.917 C 184.738 65.933,184.762 66.735,184.791 65.699 C 184.820 64.663,184.820 63.013,184.791 62.032 C 184.762 61.052,184.738 61.900,184.738 63.917 M184.738 73.667 C 184.738 75.729,184.762 76.573,184.791 75.542 C 184.820 74.510,184.820 72.823,184.791 71.792 C 184.762 70.760,184.738 71.604,184.738 73.667 M191.375 110.455 C 191.719 110.491,192.281 110.491,192.625 110.455 C 192.969 110.419,192.688 110.389,192.000 110.389 C 191.313 110.389,191.031 110.419,191.375 110.455 M207.458 110.451 C 207.665 110.491,208.002 110.491,208.208 110.451 C 208.415 110.411,208.246 110.379,207.833 110.379 C 207.421 110.379,207.252 110.411,207.458 110.451 M217.042 110.458 C 218.210 110.487,220.123 110.487,221.292 110.458 C 222.460 110.429,221.504 110.406,219.167 110.406 C 216.829 110.406,215.873 110.429,217.042 110.458 M264.542 110.455 C 264.885 110.491,265.448 110.491,265.792 110.455 C 266.135 110.419,265.854 110.389,265.167 110.389 C 264.479 110.389,264.198 110.419,264.542 110.455 M280.625 110.451 C 280.831 110.491,281.169 110.491,281.375 110.451 C 281.581 110.411,281.412 110.379,281.000 110.379 C 280.587 110.379,280.419 110.411,280.625 110.451 M291.292 110.458 C 293.148 110.485,296.185 110.485,298.042 110.458 C 299.898 110.431,298.379 110.409,294.667 110.409 C 290.954 110.409,289.435 110.431,291.292 110.458 M330.129 110.456 C 330.521 110.491,331.121 110.490,331.463 110.454 C 331.804 110.419,331.483 110.390,330.750 110.390 C 330.017 110.391,329.737 110.420,330.129 110.456 M348.629 110.456 C 349.021 110.491,349.621 110.490,349.963 110.454 C 350.304 110.419,349.983 110.390,349.250 110.390 C 348.517 110.391,348.237 110.420,348.629 110.456 " stroke="none" fill="#04a4a4" fill-rule="evenodd"></path><path id="path4" d="" stroke="none" fill="#44ac70" fill-rule="evenodd"></path></g></svg>