<svg id="svg" version="1.1" xmlns="http://www.w3.org/2000/svg" xmlns:xlink="http://www.w3.org/1999/xlink" width="400" height="116.40625" viewBox="0, 0, 400,116.40625"><g id="svgg"><path id="path0" d="M304.833 0.116 C 303.280 0.377,300.727 1.104,299.104 1.745 C 298.055 2.160,297.133 2.500,297.056 2.501 C 296.980 2.502,296.129 2.937,295.167 3.468 C 294.204 3.999,292.892 4.723,292.250 5.077 C 291.608 5.431,290.708 5.957,290.250 6.247 C 289.792 6.536,288.892 7.058,288.250 7.408 C 286.600 8.307,285.707 8.829,284.754 9.455 C 284.298 9.755,283.864 10.000,283.790 10.000 C 283.716 10.000,282.865 10.469,281.899 11.042 C 280.932 11.615,279.598 12.383,278.934 12.750 C 277.583 13.496,276.089 14.355,273.107 16.102 C 270.790 17.458,267.933 19.095,267.032 19.582 C 266.693 19.765,265.597 20.397,264.594 20.986 C 255.297 26.455,247.449 25.378,241.750 17.853 C 240.862 16.681,239.819 15.375,237.417 12.430 C 236.317 11.081,235.131 9.579,234.782 9.091 C 229.759 2.078,217.700 0.062,207.000 4.447 C 204.678 5.398,204.480 5.494,202.917 6.404 C 200.193 7.991,197.765 9.374,196.730 9.929 C 196.169 10.231,195.194 10.793,194.564 11.180 C 193.933 11.567,192.779 12.217,192.000 12.626 C 191.221 13.035,190.471 13.467,190.333 13.585 C 190.196 13.704,189.221 14.268,188.167 14.839 C 187.112 15.410,185.923 16.095,185.523 16.362 C 185.123 16.629,184.359 17.068,183.826 17.337 C 183.293 17.606,182.105 18.278,181.186 18.830 C 180.267 19.382,179.469 19.833,179.412 19.833 C 179.355 19.833,178.375 20.396,177.234 21.083 C 176.093 21.771,175.107 22.333,175.042 22.333 C 174.977 22.333,174.060 22.848,173.004 23.478 C 170.734 24.831,167.995 26.405,166.824 27.030 C 166.364 27.276,165.184 27.950,164.202 28.529 C 163.220 29.108,162.216 29.670,161.972 29.777 C 161.727 29.885,161.117 30.235,160.617 30.555 C 160.116 30.875,158.892 31.583,157.895 32.129 C 155.545 33.415,154.512 34.052,154.505 34.215 C 154.498 34.405,155.779 36.144,156.435 36.836 C 156.741 37.158,157.312 37.846,157.704 38.365 C 158.096 38.884,158.792 39.754,159.250 40.300 C 159.708 40.846,160.646 41.990,161.333 42.842 C 164.109 46.285,165.204 47.320,167.500 48.671 C 172.128 51.395,178.092 51.928,182.417 50.004 C 183.994 49.302,184.655 48.959,185.833 48.226 C 186.521 47.799,187.571 47.192,188.167 46.878 C 188.762 46.563,189.625 46.061,190.083 45.761 C 190.542 45.462,191.517 44.893,192.250 44.497 C 192.983 44.101,194.170 43.411,194.887 42.964 C 195.604 42.516,196.354 42.085,196.554 42.008 C 196.753 41.930,197.592 41.446,198.417 40.932 C 199.242 40.418,200.248 39.839,200.654 39.645 C 201.059 39.451,202.147 38.829,203.070 38.262 C 203.994 37.695,205.162 37.019,205.667 36.760 C 206.171 36.501,206.883 36.086,207.250 35.837 C 207.617 35.588,208.704 34.951,209.667 34.421 C 210.629 33.890,211.792 33.220,212.250 32.931 C 213.125 32.380,218.524 29.667,218.746 29.667 C 218.817 29.667,219.757 29.335,220.835 28.930 C 229.167 25.796,237.357 25.837,243.319 29.044 C 246.315 30.655,250.487 34.322,253.129 37.667 C 253.817 38.537,254.504 39.362,254.656 39.500 C 254.808 39.637,255.134 40.050,255.380 40.417 C 255.626 40.783,256.135 41.421,256.510 41.833 C 256.886 42.246,257.367 42.846,257.578 43.167 C 257.790 43.487,258.204 44.012,258.498 44.333 C 258.792 44.654,259.360 45.331,259.761 45.836 C 263.476 50.531,269.716 50.414,277.668 45.499 C 278.557 44.950,279.330 44.500,279.386 44.500 C 279.442 44.500,280.184 44.075,281.035 43.556 C 281.887 43.037,282.992 42.394,283.491 42.128 C 283.991 41.861,285.266 41.133,286.325 40.509 C 288.333 39.328,291.420 37.533,293.417 36.387 C 294.058 36.018,295.014 35.462,295.541 35.150 C 296.068 34.838,297.476 34.021,298.670 33.333 C 299.863 32.646,301.720 31.565,302.795 30.932 C 317.640 22.188,330.742 22.413,339.629 31.564 C 341.168 33.148,343.965 36.481,345.083 38.062 C 346.832 40.535,350.161 43.895,352.090 45.135 C 356.781 48.150,361.101 47.636,368.471 43.188 C 369.326 42.672,370.506 41.987,371.093 41.667 C 372.693 40.793,375.385 39.235,377.167 38.151 C 378.037 37.621,378.900 37.132,379.083 37.064 C 379.267 36.996,380.257 36.427,381.285 35.801 C 382.312 35.174,383.287 34.611,383.451 34.548 C 383.616 34.486,384.387 34.048,385.167 33.575 C 385.946 33.102,387.183 32.394,387.917 32.001 C 388.650 31.608,389.550 31.083,389.917 30.836 C 390.283 30.588,391.183 30.061,391.917 29.665 C 392.650 29.269,393.839 28.577,394.558 28.127 C 395.278 27.678,396.000 27.259,396.163 27.197 C 396.904 26.914,399.327 25.396,399.330 25.213 C 399.334 24.988,396.477 20.995,395.519 19.886 C 395.188 19.503,394.617 18.803,394.250 18.331 C 391.855 15.248,388.448 11.276,387.439 10.389 C 383.513 6.939,378.802 6.565,373.083 9.249 C 372.442 9.550,371.624 9.918,371.266 10.067 C 370.908 10.216,369.946 10.731,369.128 11.211 C 368.311 11.691,367.246 12.308,366.761 12.583 C 366.276 12.858,365.288 13.444,364.565 13.886 C 360.282 16.498,355.717 19.000,352.413 20.544 C 344.972 24.021,337.740 22.435,332.765 16.233 C 332.390 15.766,331.108 14.198,329.917 12.749 C 328.725 11.301,327.450 9.726,327.083 9.251 C 322.925 3.860,319.288 1.434,313.603 0.259 C 312.417 0.014,306.053 -0.090,304.833 0.116 " stroke="none" fill="#fcbc04" fill-rule="evenodd"></path><path id="path1" d="M219.333 57.413 L 219.333 70.164 218.027 68.707 C 217.308 67.906,216.502 67.141,216.235 67.008 C 215.968 66.876,215.525 66.605,215.250 66.408 C 211.005 63.356,201.979 62.964,196.438 65.590 C 193.993 66.749,190.211 69.323,189.971 69.992 C 189.941 70.075,189.535 70.543,189.068 71.031 C 182.379 78.019,180.435 92.122,184.689 102.802 C 185.139 103.931,185.632 105.056,185.786 105.302 C 189.400 111.081,192.622 113.819,198.031 115.708 L 199.583 116.250 204.167 116.250 L 208.750 116.249 210.167 115.771 C 214.265 114.389,217.995 111.701,219.740 108.872 C 220.094 108.298,220.413 107.857,220.448 107.893 C 220.514 107.959,220.996 114.219,220.999 115.042 L 221.000 115.500 226.857 115.500 L 232.713 115.500 232.583 114.625 C 232.511 114.144,232.407 98.225,232.351 79.250 L 232.250 44.750 225.792 44.706 L 219.333 44.663 219.333 57.413 M23.168 64.193 C 21.187 64.530,18.826 65.419,17.759 66.230 C 17.479 66.443,16.998 66.747,16.690 66.906 C 15.783 67.373,13.345 69.823,12.535 71.080 C 11.596 72.539,11.613 72.582,11.329 68.208 L 11.109 64.833 5.596 64.833 L 0.083 64.833 0.133 89.958 C 0.161 103.777,0.214 115.177,0.253 115.292 C 0.307 115.453,1.721 115.500,6.570 115.500 L 12.818 115.500 12.877 99.625 C 12.943 81.657,12.828 83.177,14.365 80.028 C 17.193 74.236,23.803 72.522,27.956 76.505 C 29.389 77.879,30.098 79.402,30.863 82.750 C 30.996 83.332,31.073 88.394,31.118 99.542 L 31.184 115.500 37.508 115.500 L 43.833 115.500 43.833 99.852 C 43.833 81.243,43.856 81.012,45.904 78.349 C 50.064 72.943,57.349 73.039,60.177 78.538 C 61.943 81.972,62.000 82.659,62.000 100.480 L 62.000 115.500 68.339 115.500 L 74.678 115.500 74.626 98.292 C 74.566 78.325,74.647 79.308,72.609 73.779 C 71.255 70.105,67.617 66.352,63.991 64.887 C 59.323 63.001,51.626 63.749,48.053 66.435 C 47.761 66.654,47.470 66.833,47.406 66.833 C 46.897 66.833,43.280 70.109,42.620 71.167 C 42.420 71.487,42.163 71.862,42.048 72.000 C 41.933 72.137,41.721 72.400,41.576 72.583 C 41.431 72.767,41.278 72.842,41.237 72.750 C 38.118 65.875,31.551 62.765,23.168 64.193 M97.833 64.000 C 97.237 64.078,96.040 64.226,95.172 64.327 C 92.782 64.606,90.178 65.317,87.417 66.443 C 86.055 66.999,83.667 68.199,83.667 68.327 C 83.667 68.385,83.967 69.325,84.333 70.417 C 84.700 71.508,85.000 72.512,85.000 72.647 C 85.000 73.228,86.193 76.667,86.394 76.667 C 86.513 76.667,87.391 76.262,88.347 75.767 C 90.726 74.535,92.319 74.045,96.333 73.312 C 103.933 71.922,109.537 75.065,109.952 80.951 L 110.050 82.333 108.150 82.335 C 97.105 82.345,87.571 85.750,83.423 91.167 C 78.132 98.076,79.418 109.092,86.030 113.500 C 89.800 116.013,91.265 116.393,96.846 116.301 C 102.759 116.203,107.414 114.237,110.422 110.567 L 111.071 109.775 111.449 112.262 C 111.658 113.631,111.868 114.919,111.917 115.125 L 112.006 115.500 117.837 115.500 C 121.043 115.500,123.666 115.444,123.665 115.375 C 123.665 115.306,123.551 114.394,123.413 113.348 C 123.007 110.273,122.840 104.446,122.837 93.141 C 122.833 81.204,122.720 79.379,121.807 76.523 C 119.544 69.447,114.725 65.378,107.167 64.159 C 105.635 63.912,99.319 63.805,97.833 64.000 M155.250 64.177 C 150.613 64.962,146.469 67.598,143.672 71.541 C 143.363 71.977,143.091 72.313,143.067 72.289 C 143.019 72.242,142.526 66.870,142.459 65.667 L 142.417 64.917 136.684 64.873 L 130.952 64.829 131.069 66.373 C 131.339 69.907,131.489 80.974,131.494 97.708 L 131.500 115.500 137.992 115.500 L 144.483 115.500 144.549 99.458 C 144.621 82.019,144.598 82.423,145.588 80.457 C 149.567 72.548,159.938 72.243,163.022 79.944 C 164.252 83.017,164.217 82.461,164.289 99.877 L 164.355 115.504 170.802 115.460 L 177.250 115.417 177.300 100.083 C 177.365 79.759,177.262 78.692,174.663 72.891 C 171.716 66.310,163.754 62.737,155.250 64.177 M241.000 90.167 L 241.000 115.500 247.583 115.500 L 254.167 115.500 254.167 90.167 L 254.167 64.833 247.583 64.833 L 241.000 64.833 241.000 90.167 M262.413 65.292 C 262.478 65.544,262.570 76.944,262.616 90.625 L 262.700 115.500 269.174 115.500 L 275.648 115.500 275.712 101.292 C 275.774 87.453,275.785 87.045,276.132 85.617 C 277.890 78.394,282.744 75.153,290.208 76.220 L 291.167 76.357 291.167 70.595 L 291.167 64.833 289.179 64.833 C 282.088 64.833,277.056 67.758,274.818 73.179 C 274.120 74.870,274.089 74.782,273.939 70.667 C 273.877 68.971,273.780 66.965,273.724 66.208 L 273.621 64.833 267.958 64.833 L 262.294 64.833 262.413 65.292 M296.833 90.167 L 296.833 115.504 303.375 115.460 L 309.917 115.417 309.917 90.167 L 309.917 64.917 303.375 64.873 L 296.833 64.829 296.833 90.167 M211.750 74.382 C 215.193 75.636,218.182 79.142,219.026 82.917 C 219.465 84.879,219.337 95.621,218.856 97.250 C 215.497 108.605,201.344 109.221,197.086 98.197 C 193.178 88.079,197.635 75.418,205.549 74.157 C 206.865 73.947,210.964 74.096,211.750 74.382 M110.129 95.560 C 110.054 100.528,110.065 100.466,108.900 102.288 C 104.925 108.501,95.746 108.883,93.454 102.930 C 91.911 98.924,93.987 94.603,98.409 92.614 C 100.797 91.540,106.347 90.719,109.474 90.976 L 110.198 91.036 110.129 95.560 " stroke="none" fill="#043c73" fill-rule="evenodd"></path></g></svg>