<svg width="175" height="144" viewBox="0 0 175 144" fill="none" xmlns="http://www.w3.org/2000/svg">
<g clip-path="url(#clip0_808_2323)">
<path d="M130.212 112.405H75.9523C75.086 112.404 74.2555 112.06 73.6429 111.447C73.0304 110.835 72.6858 110.004 72.6848 109.138V70.1259C72.6858 69.2596 73.0304 68.4291 73.6429 67.8165C74.2555 67.2039 75.086 66.8594 75.9523 66.8584H130.212C131.079 66.8594 131.909 67.204 132.522 67.8165C133.134 68.4291 133.479 69.2596 133.48 70.1259V109.138C133.479 110.004 133.134 110.835 132.522 111.447C131.909 112.06 131.079 112.404 130.212 112.405Z" fill="#E6F2FF"/>
<path d="M76.9553 109.801H129.209C129.63 109.801 130.033 109.634 130.33 109.337C130.627 109.04 130.794 108.637 130.794 108.217V71.0476C130.794 70.6274 130.627 70.2245 130.33 69.9274C130.033 69.6303 129.63 69.4634 129.209 69.4634H76.9553C76.5352 69.4634 76.1322 69.6303 75.8351 69.9274C75.538 70.2245 75.3711 70.6274 75.3711 71.0476V108.217C75.3711 108.637 75.538 109.04 75.8351 109.337C76.1322 109.634 76.5352 109.801 76.9553 109.801Z" fill="white"/>
<path d="M57.5275 60.0316H3.26748C2.40119 60.0306 1.57066 59.686 0.958104 59.0735C0.345544 58.4609 0.00097856 57.6304 0 56.7641V17.7523C0.000978037 16.8861 0.345544 16.0555 0.958104 15.443C1.57066 14.8304 2.40119 14.4858 3.26748 14.4849H57.5275C58.3938 14.4858 59.2243 14.8304 59.8369 15.443C60.4494 16.0555 60.794 16.8861 60.795 17.7523V56.7641C60.794 57.6304 60.4494 58.4609 59.8369 59.0735C59.2243 59.686 58.3938 60.0306 57.5275 60.0316Z" fill="#E6F2FF"/>
<path d="M4.27045 57.4268H56.5245C56.9447 57.4268 57.3477 57.2599 57.6448 56.9628C57.9419 56.6657 58.1088 56.2627 58.1088 55.8426V18.6736C58.1088 18.2534 57.9419 17.8505 57.6448 17.5534C57.3477 17.2563 56.9447 17.0894 56.5245 17.0894H4.27045C3.85029 17.0894 3.44733 17.2563 3.15023 17.5534C2.85313 17.8505 2.68622 18.2534 2.68622 18.6736V55.8426C2.68622 56.2627 2.85313 56.6657 3.15023 56.9628C3.44733 57.2599 3.85029 57.4268 4.27045 57.4268Z" fill="white"/>
<path d="M122.981 81.0122H89.6028C89.4462 81.0122 89.2912 81.043 89.1466 81.1029C89.002 81.1629 88.8705 81.2507 88.7599 81.3614C88.6492 81.4721 88.5614 81.6035 88.5015 81.7481C88.4415 81.8927 88.4107 82.0477 88.4107 82.2043C88.4107 82.3608 88.4415 82.5158 88.5015 82.6605C88.5614 82.8051 88.6492 82.9365 88.7599 83.0472C88.8705 83.1579 89.002 83.2457 89.1466 83.3056C89.2912 83.3655 89.4462 83.3964 89.6028 83.3964H122.981C123.297 83.3964 123.6 83.2708 123.824 83.0472C124.047 82.8236 124.173 82.5204 124.173 82.2043C124.173 81.8881 124.047 81.5849 123.824 81.3614C123.6 81.1378 123.297 81.0122 122.981 81.0122Z" fill="#E6F2FF"/>
<path d="M89.6028 88.3481C89.4462 88.3481 89.2912 88.379 89.1466 88.4389C89.002 88.4988 88.8705 88.5866 88.7599 88.6973C88.6492 88.808 88.5614 88.9394 88.5015 89.084C88.4415 89.2287 88.4107 89.3837 88.4107 89.5402C88.4107 89.6968 88.4415 89.8518 88.5015 89.9964C88.5614 90.141 88.6492 90.2724 88.7599 90.3831C88.8705 90.4938 89.002 90.5816 89.1466 90.6415C89.2912 90.7015 89.4462 90.7323 89.6028 90.7323H122.981C123.297 90.7323 123.6 90.6067 123.824 90.3831C124.047 90.1596 124.173 89.8564 124.173 89.5402C124.173 89.2241 124.047 88.9209 123.824 88.6973C123.6 88.4737 123.297 88.3481 122.981 88.3481H89.6028Z" fill="#E6F2FF"/>
<path d="M89.6028 95.6841C89.2866 95.6841 88.9834 95.8097 88.7599 96.0332C88.5363 96.2568 88.4107 96.56 88.4107 96.8761C88.4107 97.1923 88.5363 97.4955 88.7599 97.7191C88.9834 97.9426 89.2866 98.0682 89.6028 98.0682H122.981C123.297 98.0682 123.6 97.9426 123.824 97.7191C124.047 97.4955 124.173 97.1923 124.173 96.8761C124.173 96.56 124.047 96.2568 123.824 96.0332C123.6 95.8097 123.297 95.6841 122.981 95.6841H89.6028Z" fill="#E6F2FF"/>
<path d="M83.2756 83.7634C84.0859 83.7634 84.7428 83.1066 84.7428 82.2963C84.7428 81.486 84.0859 80.8291 83.2756 80.8291C82.4653 80.8291 81.8085 81.486 81.8085 82.2963C81.8085 83.1066 82.4653 83.7634 83.2756 83.7634Z" fill="#58B1D9"/>
<path d="M83.2756 91.0994C84.0859 91.0994 84.7428 90.4425 84.7428 89.6322C84.7428 88.8219 84.0859 88.165 83.2756 88.165C82.4653 88.165 81.8085 88.8219 81.8085 89.6322C81.8085 90.4425 82.4653 91.0994 83.2756 91.0994Z" fill="#E6F2FF"/>
<path d="M83.2756 98.4348C84.0859 98.4348 84.7428 97.7779 84.7428 96.9677C84.7428 96.1574 84.0859 95.5005 83.2756 95.5005C82.4653 95.5005 81.8085 96.1574 81.8085 96.9677C81.8085 97.7779 82.4653 98.4348 83.2756 98.4348Z" fill="#E6F2FF"/>
<path d="M109.685 82.2043C109.685 82.3608 109.654 82.5158 109.594 82.6605C109.534 82.8051 109.446 82.9365 109.335 83.0472C109.225 83.1579 109.093 83.2457 108.949 83.3056C108.804 83.3655 108.649 83.3964 108.493 83.3964H89.6457C89.3513 83.4007 89.0652 83.2984 88.8401 83.1085C88.6151 82.9186 88.4662 82.6537 88.421 82.3627C88.3988 82.1943 88.4127 82.0231 88.4619 81.8606C88.5111 81.698 88.5944 81.5478 88.7063 81.42C88.8181 81.2922 88.9559 81.1897 89.1105 81.1194C89.2651 81.049 89.4329 81.0125 89.6028 81.0122H108.493C108.809 81.0122 109.112 81.1378 109.335 81.3614C109.559 81.5849 109.685 81.8881 109.685 82.2043Z" fill="#58B1D9"/>
<path d="M103.082 61.8476C105.716 61.8476 107.851 59.7128 107.851 57.0793C107.851 54.4459 105.716 52.311 103.082 52.311C100.449 52.311 98.3141 54.4459 98.3141 57.0793C98.3141 59.7128 100.449 61.8476 103.082 61.8476Z" fill="#E6F2FF"/>
<path d="M105.436 57.4612C105.647 56.1615 104.764 54.9369 103.464 54.726C102.164 54.5151 100.94 55.3977 100.729 56.6974C100.518 57.9971 101.401 59.2218 102.7 59.4327C104 59.6436 105.225 58.7609 105.436 57.4612Z" fill="white"/>
<path d="M8.13321 36.1255C7.81989 36.1255 7.51941 36.25 7.29786 36.4715C7.07631 36.6931 6.95184 36.9935 6.95184 37.3069C6.95184 37.6202 7.07631 37.9207 7.29786 38.1422C7.51941 38.3638 7.81989 38.4882 8.13321 38.4882H52.6618C52.9751 38.4882 53.2756 38.3638 53.4971 38.1422C53.7187 37.9207 53.8431 37.6202 53.8431 37.3069C53.8431 36.9935 53.7187 36.6931 53.4971 36.4715C53.2756 36.25 52.9751 36.1255 52.6618 36.1255H8.13321Z" fill="#E6F2FF"/>
<path d="M8.13321 43.3955C7.81989 43.3955 7.51941 43.52 7.29786 43.7415C7.07631 43.9631 6.95184 44.2636 6.95184 44.5769C6.95184 44.8902 7.07631 45.1907 7.29786 45.4122C7.51941 45.6338 7.81989 45.7582 8.13321 45.7582H52.6618C52.9751 45.7582 53.2756 45.6338 53.4971 45.4122C53.7187 45.1907 53.8431 44.8902 53.8431 44.5769C53.8431 44.2636 53.7187 43.9631 53.4971 43.7415C53.2756 43.52 52.9751 43.3955 52.6618 43.3955H8.13321Z" fill="#E6F2FF"/>
<path d="M28.0348 51.0288C27.7215 51.0288 27.421 51.1533 27.1994 51.3748C26.9779 51.5964 26.8534 51.8969 26.8534 52.2102C26.8534 52.5235 26.9779 52.824 27.1994 53.0455C27.421 53.2671 27.7215 53.3915 28.0348 53.3915H32.7602C33.0736 53.3915 33.374 53.2671 33.5956 53.0455C33.8171 52.824 33.9416 52.5235 33.9416 52.2102C33.9416 51.8969 33.8171 51.5964 33.5956 51.3748C33.374 51.1533 33.0736 51.0288 32.7602 51.0288H28.0348Z" fill="#58B1D9"/>
<path d="M24.0654 21.1245C23.969 21.1246 23.8766 21.1629 23.8085 21.2311C23.7403 21.2992 23.702 21.3916 23.7019 21.488V30.7154C23.702 30.8118 23.7403 30.9042 23.8085 30.9723C23.8766 31.0405 23.969 31.0788 24.0654 31.0789H36.7296C36.826 31.0788 36.9184 31.0405 36.9865 30.9723C37.0547 30.9042 37.093 30.8118 37.0931 30.7154V21.488C37.093 21.3916 37.0547 21.2992 36.9865 21.2311C36.9184 21.1629 36.826 21.1246 36.7296 21.1245L24.0654 21.1245Z" fill="#58B1D9"/>
<path d="M30.3975 27.0805C31.5016 27.0805 32.3967 26.1854 32.3967 25.0813C32.3967 23.9771 31.5016 23.082 30.3975 23.082C29.2933 23.082 28.3983 23.9771 28.3983 25.0813C28.3983 26.1854 29.2933 27.0805 30.3975 27.0805Z" fill="white"/>
<path d="M33.669 30.1701C33.6697 30.4861 33.5949 30.7977 33.4509 31.0789H27.3441C27.1885 30.7741 27.1137 30.4344 27.127 30.0925C27.1402 29.7505 27.2411 29.4176 27.4198 29.1258C27.5986 28.834 27.8493 28.5929 28.1479 28.4257C28.4465 28.2585 28.783 28.1708 29.1252 28.1709H31.6697C32.1997 28.1706 32.708 28.3808 33.0829 28.7553C33.4579 29.1298 33.6687 29.6379 33.669 30.1679V30.1701Z" fill="white"/>
<path d="M30.3975 27.0805C31.5016 27.0805 32.3967 26.1854 32.3967 25.0813C32.3967 23.9771 31.5016 23.082 30.3975 23.082C29.2933 23.082 28.3983 23.9771 28.3983 25.0813C28.3983 26.1854 29.2933 27.0805 30.3975 27.0805Z" fill="white"/>
<path d="M33.669 30.1701C33.6697 30.4861 33.5949 30.7977 33.4509 31.0789H27.3441C27.1885 30.7741 27.1137 30.4344 27.127 30.0925C27.1402 29.7505 27.2411 29.4176 27.4198 29.1258C27.5986 28.834 27.8493 28.5929 28.1479 28.4257C28.4465 28.2585 28.783 28.1708 29.1252 28.1709H31.6697C32.1997 28.1706 32.708 28.3808 33.0829 28.7553C33.4579 29.1298 33.6687 29.6379 33.669 30.1679V30.1701Z" fill="white"/>
<path d="M30.3975 9.45096C33.0073 9.45096 35.123 7.33529 35.123 4.72548C35.123 2.11567 33.0073 0 30.3975 0C27.7877 0 25.672 2.11567 25.672 4.72548C25.672 7.33529 27.7877 9.45096 30.3975 9.45096Z" fill="#E6F2FF"/>
<path d="M30.3975 7.08827C31.7024 7.08827 32.7602 6.03044 32.7602 4.72553C32.7602 3.42063 31.7024 2.36279 30.3975 2.36279C29.0926 2.36279 28.0347 3.42063 28.0347 4.72553C28.0347 6.03044 29.0926 7.08827 30.3975 7.08827Z" fill="#58B1D9"/>
<path d="M148.149 140.846L145.886 140.846L144.809 132.114L148.15 132.114L148.149 140.846Z" fill="#FFB8B8"/>
<path d="M144.268 140.199H148.635V142.948H141.519C141.519 142.587 141.591 142.23 141.729 141.896C141.867 141.563 142.069 141.26 142.325 141.004C142.58 140.749 142.883 140.547 143.216 140.408C143.55 140.27 143.907 140.199 144.268 140.199Z" fill="#2F2E41"/>
<path d="M160.352 140.846L158.088 140.846L157.012 132.114L160.353 132.114L160.352 140.846Z" fill="#FFB8B8"/>
<path d="M156.471 140.199H160.837V142.948H153.722C153.722 142.587 153.793 142.23 153.931 141.896C154.07 141.563 154.272 141.26 154.527 141.004C154.783 140.749 155.086 140.547 155.419 140.408C155.753 140.27 156.11 140.199 156.471 140.199Z" fill="#2F2E41"/>
<path d="M153.722 78.7691C156.408 78.7691 158.586 76.5915 158.586 73.9053C158.586 71.2191 156.408 69.0415 153.722 69.0415C151.036 69.0415 148.858 71.2191 148.858 73.9053C148.858 76.5915 151.036 78.7691 153.722 78.7691Z" fill="#FFB8B8"/>
<path d="M137.091 105.625C137.125 105.356 137.218 105.097 137.362 104.868C137.507 104.638 137.7 104.443 137.929 104.296C138.157 104.149 138.415 104.054 138.684 104.017C138.953 103.981 139.226 104.004 139.486 104.085L142.204 100.826L144.587 101.995L140.684 106.543C140.519 106.969 140.204 107.32 139.798 107.53C139.392 107.739 138.923 107.793 138.48 107.68C138.037 107.567 137.651 107.295 137.395 106.916C137.139 106.538 137.031 106.078 137.091 105.625Z" fill="#FFB8B8"/>
<path d="M160.485 108.921C160.369 108.675 160.309 108.407 160.308 108.136C160.306 107.865 160.365 107.596 160.479 107.35C160.593 107.103 160.759 106.885 160.967 106.71C161.174 106.535 161.417 106.407 161.679 106.336L162.225 102.128L164.863 101.836L164.009 107.768C164.099 108.216 164.021 108.681 163.791 109.076C163.561 109.471 163.194 109.768 162.759 109.91C162.325 110.052 161.853 110.03 161.434 109.847C161.015 109.665 160.677 109.336 160.485 108.921Z" fill="#FFB8B8"/>
<path d="M157.787 83.092C158.046 82.7599 158.387 82.5019 158.777 82.3441C159.168 82.1862 159.593 82.1341 160.009 82.1929C160.426 82.2518 160.82 82.4196 161.151 82.6793C161.483 82.939 161.739 83.2816 161.896 83.6723L165.883 93.6213C166.29 94.638 166.42 95.7448 166.259 96.8282L164.96 105.573C164.944 105.686 164.903 105.794 164.84 105.889C164.778 105.985 164.696 106.066 164.6 106.126C164.503 106.187 164.395 106.227 164.281 106.242C164.168 106.257 164.053 106.247 163.944 106.214L162.234 105.688C162.056 105.634 161.904 105.519 161.803 105.364C161.701 105.209 161.658 105.023 161.679 104.839C162.283 99.6906 161.485 94.4749 159.37 89.7428L157.49 85.539C157.313 85.1426 157.247 84.7054 157.299 84.2744C157.352 83.8433 157.52 83.4346 157.787 83.092Z" fill="#58B1D9"/>
<path d="M154.906 78.7692C155.638 78.785 156.365 78.6457 157.04 78.3605C157.714 78.0753 158.32 77.6506 158.819 77.1144C159.318 76.5781 159.697 75.9424 159.932 75.2491C160.168 74.5558 160.254 73.8205 160.185 73.0915C160.116 72.3626 159.893 71.6566 159.532 71.0198C159.17 70.383 158.678 69.8299 158.088 69.3968C157.497 68.9637 156.822 68.6604 156.106 68.507C155.39 68.3535 154.65 68.3532 153.934 68.5062C152.864 67.8568 151.621 67.4198 150.374 67.5309C149.128 67.6421 147.895 68.382 147.429 69.5433C146.963 70.7046 147.464 72.2354 148.623 72.7073C149.366 73.0099 150.205 72.8631 150.998 72.7411C151.791 72.6191 152.656 72.5395 153.346 72.9486C154.036 73.3577 154.346 74.4547 153.728 74.9662C153.4 75.2481 153.166 75.6231 153.057 76.0413C152.948 76.4595 152.969 76.901 153.117 77.307C153.428 78.1102 154.275 78.7555 154.906 78.7692Z" fill="#2F2E41"/>
<path d="M160.941 105.433L161.804 138.175C161.807 138.284 161.787 138.393 161.746 138.494C161.705 138.595 161.643 138.687 161.565 138.763C161.487 138.839 161.394 138.898 161.292 138.937C161.19 138.975 161.08 138.993 160.971 138.987L158.129 138.842C157.948 138.833 157.775 138.761 157.64 138.64C157.505 138.519 157.416 138.355 157.387 138.175L154.007 116.909C153.992 116.818 153.947 116.735 153.877 116.674C153.808 116.613 153.72 116.578 153.628 116.575C153.536 116.572 153.446 116.602 153.373 116.658C153.3 116.715 153.249 116.795 153.229 116.885L148.653 137.36C148.629 137.47 148.581 137.573 148.514 137.663C148.447 137.752 148.361 137.827 148.263 137.881C148.165 137.935 148.056 137.968 147.945 137.977C147.833 137.986 147.72 137.972 147.615 137.934L144.794 137.762C144.631 137.704 144.491 137.594 144.396 137.449C144.302 137.304 144.257 137.132 144.269 136.959L146.732 105.123L160.941 105.433Z" fill="#2F2E41"/>
<path d="M162.325 89.8815C162.801 84.9198 159.153 80.432 154.181 80.0789C152.039 79.9268 148.713 79.8724 147.617 82.6803C144.314 91.1389 150.096 90.9334 148.104 98.2618C146.112 105.59 144.353 106.01 147.086 106.54C149.819 107.069 162.11 110.193 161.605 105.034C161.295 101.864 161.851 94.8308 162.325 89.8815Z" fill="#58B1D9"/>
<path d="M148.202 81.82C148.594 81.6681 149.02 81.6224 149.436 81.6875C149.852 81.7527 150.243 81.9263 150.57 82.191C150.898 82.4557 151.149 82.8021 151.3 83.1952C151.451 83.5882 151.495 84.014 151.428 84.4297L149.876 94.1313C149.611 95.7903 148.909 97.349 147.843 98.6477L142.801 104.791C142.729 104.88 142.639 104.951 142.536 105.001C142.433 105.051 142.321 105.078 142.207 105.081C142.093 105.083 141.98 105.061 141.875 105.016C141.771 104.971 141.677 104.904 141.601 104.819L140.403 103.489C140.279 103.351 140.207 103.174 140.2 102.989C140.193 102.804 140.251 102.622 140.364 102.476L140.717 102.018C143.65 98.2115 145.5 93.6835 146.072 88.9124L146.69 83.7667C146.741 83.3355 146.909 82.9266 147.176 82.5837C147.442 82.2408 147.797 81.9768 148.202 81.82Z" fill="#58B1D9"/>
<path d="M174.802 143.418H123.71C123.658 143.418 123.608 143.397 123.57 143.36C123.533 143.322 123.512 143.272 123.512 143.22C123.512 143.167 123.533 143.117 123.57 143.079C123.608 143.042 123.658 143.021 123.71 143.021H174.802C174.855 143.021 174.905 143.042 174.942 143.079C174.979 143.117 175 143.167 175 143.22C175 143.272 174.979 143.322 174.942 143.36C174.905 143.397 174.855 143.418 174.802 143.418Z" fill="#CCCCCC"/>
</g>
<defs>
<clipPath id="clip0_808_2323">
<rect width="175" height="143.418" fill="white"/>
</clipPath>
</defs>
</svg>
