<svg width="175" height="158" viewBox="0 0 175 158" fill="none" xmlns="http://www.w3.org/2000/svg">
<g clip-path="url(#clip0_1112_109)">
<path d="M71.5363 22.3315H0V62.672H71.5363V22.3315Z" fill="#58B1D9"/>
<path d="M76.8176 59.0697H4.80109V18.249H76.8176V59.0697ZM5.2812 58.5895H76.3374V18.7293H5.2812V58.5895Z" fill="#3F3D56"/>
<path d="M169.719 4.08203H98.1824V44.4225H169.719V4.08203Z" fill="#E6F2FF"/>
<path d="M175 40.8207H102.984V0H175V40.8207ZM103.464 40.3404H174.52V0.480243H103.464V40.3404Z" fill="#3F3D56"/>
<path d="M122.936 158H31.4746C31.4109 158 31.3499 157.974 31.3049 157.929C31.2598 157.884 31.2346 157.823 31.2346 157.76C31.2346 157.696 31.2598 157.635 31.3049 157.59C31.3499 157.545 31.4109 157.52 31.4746 157.52H122.936C122.999 157.52 123.06 157.545 123.105 157.59C123.15 157.635 123.176 157.696 123.176 157.76C123.176 157.823 123.15 157.884 123.105 157.929C123.06 157.974 122.999 158 122.936 158Z" fill="#CCCCCC"/>
<path d="M88.7318 101.267C88.7524 100.833 88.8678 100.408 89.0701 100.024C89.2723 99.6392 89.5564 99.3036 89.9024 99.0406C90.2483 98.7777 90.6477 98.5938 91.0723 98.502C91.497 98.4101 91.9366 98.4125 92.3603 98.509L96.2905 92.9688L100.239 94.5366L94.5788 102.283C94.3696 102.984 93.9105 103.584 93.2886 103.969C92.6666 104.354 91.925 104.498 91.2043 104.373C90.4836 104.247 89.8338 103.862 89.3781 103.29C88.9224 102.717 88.6925 101.998 88.7318 101.267Z" fill="#A0616A"/>
<path d="M93.0432 96.5022L100.031 84.7465L97.184 77.1526L101.061 66.8096L101.204 66.8709C101.298 66.9111 103.501 67.8945 103.828 71.4163L108.284 85.4243L96.3916 100.856L93.0432 96.5022Z" fill="#3F3D56"/>
<path d="M55.0922 53.285C55.5234 53.339 55.9374 53.487 56.3051 53.7184C56.6729 53.9499 56.9854 54.2591 57.2208 54.6245C57.4561 54.9898 57.6085 55.4023 57.6672 55.8329C57.7259 56.2635 57.6895 56.7018 57.5606 57.1168L62.7789 61.4647L60.9109 65.2811L53.6279 59.0376C52.9452 58.7747 52.3826 58.2705 52.0468 57.6204C51.711 56.9704 51.6252 56.2197 51.8057 55.5107C51.9862 54.8016 52.4204 54.1834 53.0262 53.7732C53.6319 53.3629 54.367 53.1892 55.0922 53.285Z" fill="#A0616A"/>
<path d="M59.5079 57.9531L70.6849 65.8308L78.4741 63.5787L88.4835 68.2453L88.4113 68.3832C88.364 68.4736 87.2134 70.5947 83.6779 70.6481L69.3712 74.0088L54.9092 60.9558L59.5079 57.9531Z" fill="#3F3D56"/>
<path d="M79.9597 153.749H76.0741L74.2255 138.757L79.9604 138.758L79.9597 153.749Z" fill="#A0616A"/>
<path d="M72.1539 152.639H80.7923V157.358H68.5803V156.213C68.5803 155.265 68.9568 154.356 69.627 153.686C70.2972 153.015 71.2061 152.639 72.1539 152.639Z" fill="#2F2E41"/>
<path d="M95.49 153.749H91.6042L89.7558 138.757L95.4905 138.758L95.49 153.749Z" fill="#A0616A"/>
<path d="M87.6841 152.639H96.3225V157.358H84.1105V156.213C84.1105 155.265 84.487 154.356 85.1572 153.686C85.8274 153.015 86.7363 152.639 87.6841 152.639Z" fill="#2F2E41"/>
<path d="M96.8718 99.0278L96.5549 121.22L96.238 150.387L89.2651 149.753L85.7788 109.49L81.3416 149.753H74.1431L73.4182 109.173L75.9536 100.296L96.8718 99.0278Z" fill="#2F2E41"/>
<path d="M75.2586 100.431L74.1964 100.385L79.1304 73.1971L77.1102 64.9793C77.0052 64.5518 77.0606 64.1006 77.266 63.7112C77.4713 63.3218 77.8124 63.0213 78.2245 62.8666L81.8593 61.5032L83.1435 57.9707L93.2753 59.0628L93.5245 61.8235C94.6224 62.1758 103.664 65.1876 103.04 68.6195C102.424 72.0068 98.7887 82.6639 98.604 83.2039L97.9674 98.4875L97.8891 98.5266C97.7948 98.5738 90.8113 102.009 83.2245 102.008C80.5528 102.008 77.8047 101.582 75.2586 100.431Z" fill="#3F3D56"/>
<path d="M94.2134 52.4255C96.1459 48.8893 94.8466 44.4557 91.3115 42.5226C87.7763 40.5896 83.3438 41.8892 81.4113 45.4253C79.4788 48.9615 80.7781 53.3952 84.3132 55.3282C87.8484 57.2612 92.2809 55.9617 94.2134 52.4255Z" fill="#A0616A"/>
<path d="M93.7213 55.9895C92.331 57.4708 89.7492 56.6756 89.568 54.6519C89.5538 54.4948 89.5548 54.3367 89.5711 54.1798C89.6646 53.2834 90.1824 52.4695 90.0583 51.523C90.0303 51.2875 89.9425 51.063 89.8034 50.8708C88.6956 49.3869 86.095 51.5346 85.0494 50.1912C84.4083 49.3675 85.1619 48.0706 84.67 47.15C84.0206 45.9349 82.0973 46.5343 80.8912 45.8688C79.5493 45.1285 79.6296 43.069 80.5129 41.8163C81.5902 40.2886 83.479 39.4734 85.3443 39.3559C87.2096 39.2384 89.0621 39.7428 90.8035 40.4216C92.7821 41.1929 94.7442 42.2589 95.9618 43.9992C97.4425 46.1155 97.5851 48.9608 96.8445 51.4355C96.394 52.9409 94.8566 54.7799 93.7213 55.9895Z" fill="#2F2E41"/>
</g>
<defs>
<clipPath id="clip0_1112_109">
<rect width="175" height="158" fill="white"/>
</clipPath>
</defs>
</svg>
