<svg width="175" height="95" viewBox="0 0 175 95" fill="none" xmlns="http://www.w3.org/2000/svg">
<g clip-path="url(#clip0_808_2364)">
<path d="M94.9637 50.1255V50.3312C94.9634 52.2211 94.2124 54.0334 92.8759 55.3695C91.5393 56.7056 89.7268 57.4561 87.8369 57.4558H7.39585C5.50637 57.4556 3.69433 56.7049 2.35827 55.3688C1.02221 54.0328 0.271542 52.2207 0.271362 50.3312V50.1255H94.9637Z" fill="#F2F2F2"/>
<path d="M17.0957 16.2099C11.2826 17.6457 6.06411 13.1733 5.15295 9.02432L5.55768 8.95197C10.4574 7.86893 15.9268 11.3713 17.0957 16.2099Z" fill="#6C63FF"/>
<path d="M157.61 93.0472C155.929 92.3212 155.547 89.6764 156.954 88.5045C158.362 87.3326 160.894 88.1867 161.303 89.9715L159.735 78.7526C159.374 76.1734 159.086 73.2901 160.645 71.2037C162.104 69.25 164.956 68.624 167.245 69.4651C169.534 70.3061 171.226 72.4041 171.944 74.7348C172.662 77.0656 172.492 79.5985 171.866 81.9553C171.239 84.3122 170.174 86.526 169.097 88.7141C167.994 90.9563 166.655 93.3861 164.296 94.2114C162.043 94.9998 157.61 93.0472 157.61 93.0472Z" fill="#F2F2F2"/>
<path d="M164.978 69.2527C166.009 72.4693 166.499 75.8343 166.43 79.2112C166.365 82.5731 165.761 85.9029 164.641 89.0734C164.004 90.8721 163.196 92.6059 162.229 94.2511C162.187 94.3285 162.177 94.4192 162.201 94.5039C162.225 94.5886 162.28 94.6608 162.356 94.7052C162.432 94.7496 162.523 94.7628 162.608 94.7419C162.694 94.7211 162.768 94.6678 162.815 94.5934C164.551 91.6265 165.785 88.393 166.466 85.0236C167.157 81.6383 167.296 78.1635 166.876 74.734C166.639 72.812 166.223 70.9165 165.632 69.0724C165.499 68.6585 164.844 68.8355 164.978 69.2527Z" fill="white"/>
<path d="M156.614 88.9175L161.982 94.5591C162.284 94.876 162.763 94.3958 162.462 94.0795L157.093 88.4378C156.792 88.121 156.313 88.6011 156.614 88.9175Z" fill="white"/>
<path d="M152.053 67.616C151.862 67.6163 151.677 67.5476 151.532 67.4224C148.217 65.2639 145.267 62.5921 142.791 59.5069C142.639 59.3631 142.55 59.1659 142.542 58.9572C142.534 58.7485 142.608 58.5451 142.749 58.3903L144.376 56.5933L144.711 56.8969L143.084 58.6939C143.022 58.7622 142.99 58.8522 142.994 58.9442C142.999 59.0362 143.04 59.1226 143.108 59.1844L143.132 59.2095C145.583 62.2671 148.506 64.9142 151.791 67.0512L151.821 67.0739C151.889 67.1357 151.979 67.1679 152.071 67.1633C152.163 67.1587 152.249 67.1178 152.311 67.0496L155.486 63.5432C155.545 63.478 155.578 63.3928 155.576 63.3049C155.575 63.2169 155.54 63.1327 155.479 63.0694C154.743 62.6685 154.026 62.2314 153.345 61.77L153.599 61.3958C154.275 61.8545 154.99 62.2887 155.722 62.6865L155.766 62.7176C155.843 62.7881 155.907 62.8732 155.952 62.9681C155.996 63.063 156.022 63.1658 156.027 63.2706C156.033 63.3755 156.017 63.4803 155.982 63.5792C155.946 63.6781 155.892 63.769 155.822 63.8468L152.646 67.3532C152.576 67.4312 152.491 67.4946 152.396 67.5395C152.301 67.5844 152.198 67.6101 152.093 67.615C152.08 67.6156 152.067 67.616 152.053 67.616Z" fill="#3F3D56"/>
<path d="M148.553 61.7132C149.55 62.6154 150.574 63.1105 150.841 62.8166C150.876 62.7668 150.898 62.7091 150.905 62.6487C150.912 62.5884 150.904 62.5272 150.882 62.4707C150.773 62.1379 150.601 61.8297 150.373 61.564C149.487 60.9332 148.625 60.2526 147.789 59.5223C147.526 59.4363 147.325 59.4386 147.228 59.5471C147.214 59.5627 147.203 59.5802 147.194 59.5991C147.027 59.9406 147.608 60.8563 148.553 61.7132Z" fill="#6C63FF"/>
<path d="M142.543 54.444C142.551 54.6499 142.641 54.8441 142.792 54.9844C144.131 56.6398 145.604 58.1831 147.194 59.5992C148.358 60.6375 149.59 61.5968 150.882 62.4707C151.096 62.6177 151.314 62.7602 151.533 62.9003C151.677 63.0263 151.862 63.0955 152.053 63.0948C152.066 63.0948 152.08 63.0925 152.094 63.0925C152.199 63.0877 152.302 63.062 152.397 63.017C152.492 62.9719 152.577 62.9085 152.648 62.8302L155.822 59.3256C155.964 59.1682 156.038 58.9607 156.028 58.7487C156.017 58.5367 155.923 58.3376 155.765 58.1951L155.723 58.1635C152.257 56.2914 149.294 53.6099 147.088 50.347L147.054 50.3063C146.896 50.164 146.689 50.09 146.477 50.1006C146.265 50.1112 146.066 50.2055 145.923 50.3629L142.749 53.8675C142.678 53.9453 142.624 54.0363 142.588 54.1352C142.553 54.2342 142.538 54.3391 142.543 54.444ZM142.995 54.4214C142.993 54.3762 142.999 54.331 143.014 54.2883C143.03 54.2456 143.053 54.2063 143.083 54.1727L146.258 50.6658C146.289 50.6318 146.326 50.6043 146.367 50.5849C146.409 50.5655 146.454 50.5546 146.5 50.5528C146.583 50.5478 146.665 50.5735 146.73 50.6251C148.97 53.9285 151.97 56.6457 155.478 58.5478C155.539 58.6108 155.574 58.6946 155.576 58.7823C155.578 58.87 155.546 58.9551 155.487 59.0204L152.311 62.5273C152.28 62.5614 152.244 62.5891 152.202 62.6085C152.161 62.6279 152.116 62.6388 152.071 62.6403C151.979 62.6448 151.889 62.6132 151.82 62.5522L151.791 62.5296C151.311 62.222 150.839 61.9002 150.373 61.5641C149.487 60.9332 148.625 60.2527 147.789 59.5224C146.099 58.0487 144.541 56.4313 143.131 54.6883L143.108 54.6634C143.04 54.6006 143 54.5138 142.995 54.4214Z" fill="#3F3D56"/>
<path d="M150.841 58.2952C151.106 58.0018 150.513 57.0316 149.515 56.1283C148.518 55.225 147.494 54.7305 147.228 55.0239C146.962 55.3173 147.556 56.2875 148.553 57.1908C149.551 58.0941 150.575 58.5886 150.841 58.2952Z" fill="#6C63FF"/>
<path d="M130.893 91.9227L128.121 91.9225L126.802 81.2305L130.893 81.2307L130.893 91.9227Z" fill="#FFB8B8"/>
<path d="M131.6 94.6099L122.662 94.6095V94.4965C122.662 94.0396 122.752 93.5872 122.926 93.1651C123.101 92.743 123.358 92.3595 123.681 92.0365C124.004 91.7134 124.387 91.4572 124.809 91.2824C125.231 91.1075 125.684 91.0176 126.141 91.0176H126.141L131.6 91.0178L131.6 94.6099Z" fill="#2F2E41"/>
<path d="M139.032 91.9227L136.261 91.9225L134.942 81.2305L139.033 81.2307L139.032 91.9227Z" fill="#FFB8B8"/>
<path d="M139.739 94.6099L130.801 94.6095V94.4965C130.801 94.0396 130.891 93.5872 131.066 93.1651C131.241 92.743 131.497 92.3595 131.82 92.0365C132.143 91.7134 132.527 91.4572 132.949 91.2824C133.371 91.1075 133.823 91.0176 134.28 91.0176H134.281L139.74 91.0178L139.739 94.6099Z" fill="#2F2E41"/>
<path d="M140.893 48.7124L140.231 87.9854C140.229 88.1097 140.201 88.2323 140.149 88.3455C140.098 88.4587 140.023 88.56 139.931 88.6431C139.838 88.7262 139.73 88.7893 139.611 88.8285C139.493 88.8677 139.369 88.8821 139.245 88.8708L136.001 88.5759C135.788 88.5566 135.589 88.4625 135.439 88.3105C135.289 88.1584 135.198 87.9581 135.181 87.7451L133.282 63.2478C133.278 63.1903 133.251 63.1366 133.209 63.0978C133.166 63.059 133.11 63.0381 133.052 63.0392C132.994 63.0403 132.939 63.0635 132.898 63.104C132.857 63.1444 132.833 63.1991 132.831 63.2567L131.882 88.3149C131.873 88.5487 131.774 88.7699 131.605 88.9322C131.437 89.0944 131.212 89.1851 130.978 89.1851H127.499C127.269 89.1851 127.047 89.0972 126.879 88.9394C126.712 88.7816 126.61 88.5657 126.596 88.3358L124.161 48.4863L138.632 44.8687L140.893 48.7124Z" fill="#2F2E41"/>
<path d="M130.397 11.8357C133.464 11.8357 135.95 9.34939 135.95 6.28236C135.95 3.21532 133.464 0.729004 130.397 0.729004C127.33 0.729004 124.843 3.21532 124.843 6.28236C124.843 9.34939 127.33 11.8357 130.397 11.8357Z" fill="#FFB8B8"/>
<path d="M123.666 49.8805C123.569 49.7876 123.493 49.6765 123.44 49.5537C123.387 49.4308 123.359 49.2987 123.357 49.1649L122.982 22.3846C122.96 21.0223 123.37 19.6879 124.153 18.5731C124.936 17.4583 126.053 16.6205 127.342 16.18C127.862 13.8196 130.632 13.5239 132.246 13.5592C132.649 13.5679 133.044 13.6736 133.397 13.8674C133.75 14.0611 134.052 14.3373 134.276 14.6723L135.433 16.4081L137.983 17.9031C139.164 18.5921 140.095 19.6382 140.642 20.8905C141.19 22.1428 141.325 23.5366 141.029 24.8709L140.636 26.657C139.254 32.9787 139.385 39.5378 141.02 45.799L141.81 48.8116C141.852 48.9685 141.855 49.133 141.819 49.2913C141.784 49.4496 141.711 49.5972 141.607 49.7217C141.503 49.8463 141.371 49.9441 141.222 50.0072C141.072 50.0702 140.91 50.0966 140.748 50.0841L139.83 50.0135C139.592 49.9954 139.368 49.894 139.197 49.727C139.026 49.5601 138.92 49.3382 138.896 49.1004L138.744 47.5817C138.741 47.5539 138.728 47.528 138.708 47.5092C138.687 47.4904 138.66 47.48 138.632 47.48C138.604 47.48 138.577 47.4904 138.556 47.5092C138.535 47.528 138.522 47.5539 138.519 47.5817L138.372 49.0521C138.347 49.3005 138.232 49.5311 138.048 49.7C137.865 49.8689 137.625 49.9644 137.375 49.9682L124.39 50.168C124.385 50.168 124.379 50.1683 124.374 50.1683C124.109 50.1688 123.855 50.0655 123.666 49.8805Z" fill="#3F3D56"/>
<path d="M130.831 9.4833C130.854 10.2683 131.399 10.7225 132.068 11.1337C132.737 11.5449 133.519 11.7232 134.286 11.8951C134.389 11.9498 134.504 11.977 134.62 11.9742C134.737 11.9713 134.851 11.9385 134.951 11.8788C135.051 11.8192 135.134 11.7347 135.192 11.6337C135.25 11.5326 135.281 11.4182 135.282 11.3017L135.984 8.62844C136.233 7.77449 136.414 6.90227 136.526 6.01988C136.695 4.32203 136.292 2.49558 135.107 1.26799C133.922 0.0404101 131.867 -0.395669 130.447 0.550163C128.762 -1.6023 121.058 3.1533 122.959 4.65007C123.297 4.91634 123.813 4.57941 124.243 4.54675C124.672 4.51409 125.153 4.58957 125.425 4.92258C125.781 5.35765 125.626 6.00574 125.773 6.54847C125.834 6.73943 125.931 6.91649 126.061 7.06943C126.19 7.22237 126.349 7.34817 126.527 7.43957C126.705 7.53097 126.9 7.58616 127.1 7.60196C127.3 7.61777 127.501 7.59387 127.691 7.53165C128.046 7.35684 128.38 7.14227 128.686 6.89209C129.015 6.67286 129.431 6.51088 129.801 6.64914C130.29 6.8314 130.463 7.4293 130.507 7.94869C130.582 8.46672 130.69 8.97934 130.831 9.4833Z" fill="#2F2E41"/>
<path opacity="0.2" d="M129.534 24.3667L128.63 35.4458L123.882 46.9771L130.891 35.6719L129.534 24.3667Z" fill="black"/>
<path d="M122.771 51.2713C123.03 51.0632 123.241 50.8008 123.388 50.5026C123.534 50.2043 123.614 49.8776 123.621 49.5452C123.628 49.2129 123.562 48.8831 123.427 48.5791C123.293 48.2751 123.094 48.0043 122.843 47.7856L125.868 40.2935L121.752 41.1246L119.511 48.1118C119.172 48.5568 119.007 49.1109 119.049 49.6689C119.091 50.227 119.336 50.7503 119.738 51.1397C120.14 51.5292 120.67 51.7577 121.23 51.7819C121.789 51.8062 122.337 51.6245 122.771 51.2713Z" fill="#FFB8B8"/>
<path d="M122.551 47.9671L120.221 47.1275C119.981 47.0397 119.783 46.8652 119.665 46.6384C119.547 46.4116 119.519 46.149 119.585 45.9021L123.428 31.8341L124.014 19.1197C124.032 18.7359 124.125 18.3595 124.29 18.0123C124.454 17.6651 124.686 17.354 124.972 17.0972C125.258 16.8404 125.592 16.643 125.954 16.5164C126.317 16.3898 126.701 16.3366 127.085 16.3598C127.468 16.3831 127.843 16.4823 128.188 16.6518C128.533 16.8213 128.84 17.0576 129.093 17.347C129.346 17.6365 129.538 17.9733 129.659 18.3378C129.781 18.7023 129.828 19.0873 129.8 19.4704L128.753 33.3924L123.856 47.3472C123.782 47.558 123.64 47.7386 123.453 47.8611C123.267 47.9837 123.044 48.0414 122.822 48.0253C122.729 48.0183 122.638 47.9987 122.551 47.9671Z" fill="#3F3D56"/>
<path d="M146.56 52.0061C146.719 51.7142 146.812 51.391 146.833 51.0592C146.853 50.7274 146.801 50.3952 146.679 50.0859C146.557 49.7766 146.369 49.4977 146.128 49.269C145.887 49.0402 145.599 48.8671 145.283 48.7619L145.188 40.6826L141.71 43.0352L142.334 50.3467C142.192 50.8881 142.254 51.4627 142.508 51.9615C142.761 52.4604 143.189 52.8489 143.71 53.0535C144.231 53.258 144.809 53.2643 145.334 53.0713C145.859 52.8783 146.295 52.4992 146.56 52.0061Z" fill="#FFB8B8"/>
<path d="M145.084 49.0417L142.61 49.1645C142.355 49.1759 142.105 49.0914 141.909 48.9275C141.713 48.7636 141.585 48.5322 141.551 48.2789L139.677 33.8162L135.319 21.8577C135.188 21.4967 135.129 21.1132 135.147 20.7295C135.165 20.3457 135.259 19.9694 135.424 19.6223C135.589 19.2753 135.821 18.9644 136.107 18.7079C136.393 18.4513 136.727 18.2542 137.09 18.1279C137.452 18.0016 137.837 17.9487 138.22 17.9723C138.604 17.9958 138.979 18.0954 139.323 18.2651C139.668 18.4349 139.975 18.6715 140.228 18.9611C140.48 19.2507 140.672 19.5876 140.793 19.9523L145.192 33.2026L146.049 47.9667C146.062 48.1899 146.001 48.4111 145.876 48.5962C145.75 48.7813 145.568 48.9201 145.356 48.9912C145.268 49.0203 145.176 49.0373 145.084 49.0417Z" fill="#3F3D56"/>
<path d="M174.774 94.7247H88.6282C88.5682 94.7247 88.5107 94.7008 88.4683 94.6584C88.4259 94.616 88.4021 94.5585 88.4021 94.4986C88.4021 94.4386 88.4259 94.3811 88.4683 94.3387C88.5107 94.2963 88.5682 94.2725 88.6282 94.2725H174.774C174.834 94.2725 174.891 94.2963 174.934 94.3387C174.976 94.3811 175 94.4386 175 94.4986C175 94.5585 174.976 94.616 174.934 94.6584C174.891 94.7008 174.834 94.7247 174.774 94.7247Z" fill="#3F3D56"/>
<path d="M73.0811 45.9087C71.7825 45.9087 70.7498 45.5225 70.0113 44.7608C68.3423 43.0389 68.4468 39.7201 68.5309 37.0533C68.5553 36.2775 68.5783 35.5447 68.555 34.9309L68.5549 34.9216C68.5608 33.7222 69.0397 32.5737 69.8875 31.7254C70.7354 30.8771 71.8837 30.3976 73.083 30.3911H83.8491C85.1461 30.3911 86.1778 30.7768 86.9157 31.5375C88.5847 33.2579 88.4813 36.576 88.3983 39.2421C88.374 40.0195 88.3511 40.7539 88.3749 41.3689C88.3707 42.57 87.8924 43.7208 87.044 44.571C86.1956 45.4213 85.0457 45.902 83.8446 45.9087H73.0811ZM69.0071 34.9184C69.0307 35.5469 69.0075 36.2856 68.9828 37.0676C68.9015 39.649 68.8003 42.8617 70.336 44.446C70.9952 45.126 71.8931 45.4565 73.081 45.4565H83.844C84.9241 45.4508 85.9584 45.0191 86.7221 44.2553C87.4858 43.4914 87.9173 42.4571 87.9229 41.3769C87.8987 40.7556 87.9218 40.0136 87.9463 39.2279C88.0267 36.6472 88.1267 33.4352 86.5912 31.8524C85.9325 31.1734 85.0355 30.8433 83.8492 30.8433H73.0837C72.0046 30.8493 70.9715 31.2806 70.2083 32.0434C69.4451 32.8063 69.0135 33.8393 69.0071 34.9184Z" fill="#3F3D56"/>
<path d="M14.7171 16.6263C12.8293 16.6149 10.9826 16.074 9.38693 15.0651C7.0493 13.6125 5.28424 11.2861 4.78058 8.99406L4.7301 8.76432L5.36183 8.65126C10.3346 7.55375 15.9591 11.0905 17.164 16.0757L17.2168 16.2943L16.9985 16.3483C16.2521 16.533 15.486 16.6264 14.7171 16.6263ZM5.27695 9.12589C5.81955 11.2285 7.46632 13.3392 9.62562 14.681C11.7134 16.0171 14.2434 16.4771 16.6678 15.9613C15.4072 11.3168 10.1283 8.05764 5.45505 9.09389L5.27695 9.12589Z" fill="#3F3D56"/>
<path d="M8.44444 42.3209C6.96513 42.3209 5.7633 41.659 5.05771 40.4514C4.66223 39.7488 4.45435 38.9563 4.4541 38.1501C4.45385 37.3438 4.66124 36.5512 5.05627 35.8484C5.77314 34.6201 7.00364 33.9539 8.5233 33.9772H22.8682C24.3827 33.9578 25.6141 34.6211 26.3314 35.8508C26.7265 36.5534 26.934 37.3459 26.9339 38.152C26.9339 38.9581 26.7262 39.7506 26.331 40.4531C25.614 41.6799 24.3829 42.3352 22.8648 42.3204H8.51963C8.49448 42.3207 8.46942 42.3209 8.44444 42.3209ZM8.45283 34.4288C7.13358 34.4288 6.06792 35.0122 5.44682 36.0763C5.09094 36.7095 4.90412 37.4236 4.90435 38.1499C4.90459 38.8763 5.09188 39.5903 5.44818 40.2232C6.07974 41.3042 7.16723 41.8894 8.51624 41.8682H22.8682C24.2186 41.8897 25.3095 41.3048 25.9406 40.2249C26.2966 39.592 26.4836 38.878 26.4837 38.1518C26.4837 37.4256 26.2968 36.7117 25.9408 36.0787C25.3093 34.9961 24.2182 34.4131 22.8714 34.4294H8.51855C8.49663 34.429 8.47462 34.4288 8.45283 34.4288Z" fill="#3F3D56"/>
<path d="M76.7623 35.7679H72.2403C71.9404 35.7679 71.6529 35.6488 71.4409 35.4368C71.2289 35.2247 71.1097 34.9372 71.1097 34.6374C71.1097 34.3375 71.2289 34.05 71.4409 33.838C71.6529 33.6259 71.9404 33.5068 72.2403 33.5068H76.7623C77.0622 33.5068 77.3497 33.6259 77.5617 33.838C77.7738 34.05 77.8929 34.3375 77.8929 34.6374C77.8929 34.9372 77.7738 35.2247 77.5617 35.4368C77.3497 35.6488 77.0622 35.7679 76.7623 35.7679Z" fill="#6C63FF"/>
<path d="M76.7623 39.3856H72.2403C71.9404 39.3856 71.6529 39.2665 71.4409 39.0544C71.2289 38.8424 71.1097 38.5549 71.1097 38.255C71.1097 37.9552 71.2289 37.6677 71.4409 37.4556C71.6529 37.2436 71.9404 37.1245 72.2403 37.1245H76.7623C77.0622 37.1245 77.3497 37.2436 77.5617 37.4556C77.7738 37.6677 77.8929 37.9552 77.8929 38.255C77.8929 38.5549 77.7738 38.8424 77.5617 39.0544C77.3497 39.2665 77.0622 39.3856 76.7623 39.3856Z" fill="#6C63FF"/>
<path d="M76.7623 43.0032H72.2403C71.9404 43.0032 71.6529 42.8841 71.4409 42.6721C71.2289 42.4601 71.1097 42.1725 71.1097 41.8727C71.1097 41.5729 71.2289 41.2853 71.4409 41.0733C71.6529 40.8613 71.9404 40.7422 72.2403 40.7422H76.7623C77.0622 40.7422 77.3497 40.8613 77.5617 41.0733C77.7738 41.2853 77.8929 41.5729 77.8929 41.8727C77.8929 42.1725 77.7738 42.4601 77.5617 42.6721C77.3497 42.8841 77.0622 43.0032 76.7623 43.0032Z" fill="#6C63FF"/>
<path d="M84.676 35.7679H80.154C79.8541 35.7679 79.5666 35.6488 79.3546 35.4368C79.1425 35.2247 79.0234 34.9372 79.0234 34.6374C79.0234 34.3375 79.1425 34.05 79.3546 33.838C79.5666 33.6259 79.8541 33.5068 80.154 33.5068H84.676C84.9759 33.5068 85.2634 33.6259 85.4754 33.838C85.6875 34.05 85.8066 34.3375 85.8066 34.6374C85.8066 34.9372 85.6875 35.2247 85.4754 35.4368C85.2634 35.6488 84.9759 35.7679 84.676 35.7679Z" fill="#6C63FF"/>
<path d="M84.676 39.3856H80.154C79.8541 39.3856 79.5666 39.2665 79.3546 39.0544C79.1425 38.8424 79.0234 38.5549 79.0234 38.255C79.0234 37.9552 79.1425 37.6677 79.3546 37.4556C79.5666 37.2436 79.8541 37.1245 80.154 37.1245H84.676C84.9759 37.1245 85.2634 37.2436 85.4754 37.4556C85.6875 37.6677 85.8066 37.9552 85.8066 38.255C85.8066 38.5549 85.6875 38.8424 85.4754 39.0544C85.2634 39.2665 84.9759 39.3856 84.676 39.3856Z" fill="#6C63FF"/>
<path d="M84.676 43.0032H80.154C79.8541 43.0032 79.5666 42.8841 79.3546 42.6721C79.1425 42.4601 79.0234 42.1725 79.0234 41.8727C79.0234 41.5729 79.1425 41.2853 79.3546 41.0733C79.5666 40.8613 79.8541 40.7422 80.154 40.7422H84.676C84.9759 40.7422 85.2634 40.8613 85.4754 41.0733C85.6875 41.2853 85.8066 41.5729 85.8066 41.8727C85.8066 42.1725 85.6875 42.4601 85.4754 42.6721C85.2634 42.8841 84.9759 43.0032 84.676 43.0032Z" fill="#6C63FF"/>
<path d="M94.9638 19.7012H0.271362V20.1534H94.9638V19.7012Z" fill="#3F3D56"/>
<path d="M87.5023 57.5872H7.46144C5.48323 57.585 3.58668 56.7982 2.18787 55.3993C0.789066 54.0005 0.00223458 52.104 0 50.1258V11.2359C0.00223458 9.25764 0.789066 7.36109 2.18787 5.96229C3.58668 4.56348 5.48323 3.77665 7.46144 3.77441H87.5023C89.4805 3.77665 91.3771 4.56348 92.7759 5.96229C94.1747 7.36109 94.9615 9.25764 94.9638 11.2359V50.1258C94.9615 52.104 94.1747 54.0005 92.7759 55.3993C91.3771 56.7982 89.4805 57.585 87.5023 57.5872ZM7.46144 4.22662C5.60312 4.22873 3.82152 4.96789 2.50749 6.28192C1.19347 7.59594 0.45432 9.37754 0.452208 11.2359V50.1258C0.45432 51.9841 1.19347 53.7657 2.5075 55.0797C3.82153 56.3937 5.60312 57.1329 7.46144 57.135H87.5023C89.3606 57.1329 91.1422 56.3938 92.4563 55.0797C93.7703 53.7657 94.5094 51.9841 94.5116 50.1258V11.2359C94.5094 9.37754 93.7703 7.59594 92.4563 6.28191C91.1422 4.96788 89.3606 4.22873 87.5023 4.22662H7.46144Z" fill="#3F3D56"/>
</g>
<defs>
<clipPath id="clip0_808_2364">
<rect width="175" height="94.7567" fill="white"/>
</clipPath>
</defs>
</svg>
